<svg xmlns="http://www.w3.org/2000/svg" width="159.8" height="184.6" viewBox="0 0 159.8 184.6"><path fill="#fadb94" d="M159.8 46.1L79.9 0 0 46.1v92.3l79.9 46.2 79.9-46.2z"/><path fill="#fff" d="M92.8 74.9h.8v25.3c-14 7.3-27.6 0-27.6 0V75.6a70.3 70.3 0 0 1-23.7-6.7l.4 63.6s35.7 13.9 74.8 0V68.9a121.4 121.4 0 0 1-24.7 6z"/><path fill="#fff" d="M42.3 57.8v6.6s33.5 15.8 75.2 0v-6.6s-38.9 18-75.2 0z"/><path fill="#fff" d="M42.3 54.1s33.7-18.4 73.7 0c0 0-35.8 15.8-73.7 0z"/><path fill="#4c4a4b" d="M159.8 46.1L79.9 0 0 46.1v92.3l79.9 46.2 79.9-46.2z" opacity=".85"/><path fill="#fff" d="M19.7 56.2a3.9 3.9 0 0 0 2.3-.6 2 2 0 0 0 .8-1.7 1.9 1.9 0 0 0-1-1.8 4.8 4.8 0 0 0-2.6-.6h-1.9v-7.7h7.9v2.8h-5.3v2.6h.9a4.6 4.6 0 0 1 2.1.4 3.8 3.8 0 0 1 1.5.9 4 4 0 0 1 1 1.5 5.8 5.8 0 0 1 .3 1.9 4.3 4.3 0 0 1-1.7 3.7 5.6 5.6 0 0 1-1.9.9 8.8 8.8 0 0 1-2.4.3h-2a5.3 5.3 0 0 1-1.5-.5l.8-2.4 1.1.3zm8.6.9a1.3 1.3 0 0 1 .5-1.2 1.8 1.8 0 0 1 1.3-.4 1.7 1.7 0 0 1 1.3.4 1.7 1.7 0 0 1 0 2.4 1.7 1.7 0 0 1-1.3.5 1.9 1.9 0 0 1-1.3-.5 1.3 1.3 0 0 1-.5-1.2zm20.9-10.5h-4.7v11.9h-3.1V46.6h-4.6v-2.8h12.4zm9.2 11.9v-6a4.8 4.8 0 0 0-.4-2.1 2 2 0 0 0-1.6-.6 3 3 0 0 0-1.6.5 2.9 2.9 0 0 0-.9 1.5v6.7H51V43.8h2.9v5.1h.2a4.4 4.4 0 0 1 1.5-1.2 4.1 4.1 0 0 1 2.1-.5l1.6.2a2.8 2.8 0 0 1 1.1.8 3.7 3.7 0 0 1 .7 1.4 7.2 7.2 0 0 1 .2 2.2v6.7zm15.4-1a6.2 6.2 0 0 1-2 1 10.9 10.9 0 0 1-2.6.4 5.4 5.4 0 0 1-4.2-1.6 6.9 6.9 0 0 1-1.3-4.3 5.8 5.8 0 0 1 1.5-4.3 5.7 5.7 0 0 1 4.2-1.5l1.8.2a5.5 5.5 0 0 1 1.5.8 4.7 4.7 0 0 1 1.1 1.3 6.7 6.7 0 0 1 .4 2.2 3.8 3.8 0 0 1-.1 1 5.2 5.2 0 0 1-.2 1.1h-7.3a3.3 3.3 0 0 0 .8 2.1 3.8 3.8 0 0 0 2.4.6l1.8-.2 1.2-.6zm-4.4-8a2.6 2.6 0 0 0-2 .7 3.6 3.6 0 0 0-.7 1.8h4.7a2.1 2.1 0 0 0-.4-1.8 1.8 1.8 0 0 0-1.6-.7zm20.7 9v-6a3.6 3.6 0 0 0-.5-2.1 1.8 1.8 0 0 0-1.6-.6 3 3 0 0 0-1.5.5 2.4 2.4 0 0 0-.9 1.5v6.7h-3V43.8h3v5.1h.2a5.3 5.3 0 0 1 1.4-1.2 4.8 4.8 0 0 1 2.2-.5l1.6.2a2.8 2.8 0 0 1 1.1.8 3.7 3.7 0 0 1 .7 1.4 12.7 12.7 0 0 1 .2 2.2v6.7zm5.3-5.5a6.1 6.1 0 0 1 1.4-4.2 5.4 5.4 0 0 1 4.2-1.6 6.1 6.1 0 0 1 2.4.4 4.6 4.6 0 0 1 1.8 1.3 5.2 5.2 0 0 1 1 1.8 8.5 8.5 0 0 1 .4 2.3 10.1 10.1 0 0 1-.4 2.5 5.4 5.4 0 0 1-1.1 1.8 5.7 5.7 0 0 1-1.8 1.2 7.9 7.9 0 0 1-2.3.4 6.2 6.2 0 0 1-2.5-.5 4.3 4.3 0 0 1-1.7-1.2 4.5 4.5 0 0 1-1.1-1.9 8 8 0 0 1-.3-2.3zm3 0a5.1 5.1 0 0 0 .2 1.3 3.6 3.6 0 0 0 .4 1.1 2.7 2.7 0 0 0 .8.7 2.1 2.1 0 0 0 1.2.3c1.7 0 2.5-1.1 2.5-3.4a5.3 5.3 0 0 0-.1-1.3 3.6 3.6 0 0 0-.4-1.1 2.7 2.7 0 0 0-.8-.7 2.5 2.5 0 0 0-1.2-.2 2.2 2.2 0 0 0-1.9.8 3.4 3.4 0 0 0-.7 2.5zm18 5.5v-6a3.8 3.8 0 0 0-.5-2.1 1.6 1.6 0 0 0-1.5-.6 2.8 2.8 0 0 0-1.6.5 2.2 2.2 0 0 0-.9 1.3v6.9H109v-11h2.3l.3 1.6h.3a4.4 4.4 0 0 1 1.4-1.3 4.3 4.3 0 0 1 2.4-.6l1.6.2a2.8 2.8 0 0 1 1.1.8 3.7 3.7 0 0 1 .7 1.4 14 14 0 0 1 .2 2.3v6.6zm15.4-1a6.2 6.2 0 0 1-2 1 10.9 10.9 0 0 1-2.6.4 5.4 5.4 0 0 1-4.2-1.6 6.9 6.9 0 0 1-1.3-4.3 5.8 5.8 0 0 1 1.5-4.3 5.7 5.7 0 0 1 4.2-1.5l1.8.2a5.5 5.5 0 0 1 1.5.8 4.7 4.7 0 0 1 1.1 1.3 6.7 6.7 0 0 1 .4 2.2 3.8 3.8 0 0 1-.1 1 5.2 5.2 0 0 1-.2 1.1h-7.3a3.3 3.3 0 0 0 .8 2.1 3.8 3.8 0 0 0 2.4.6l1.8-.2 1.2-.6zm-4.4-8a2.6 2.6 0 0 0-2 .7 3.6 3.6 0 0 0-.7 1.8h4.7a2.1 2.1 0 0 0-.4-1.8 1.8 1.8 0 0 0-1.6-.7zm11.1 4.1l.5 1.8h.2l.4-1.8 1.9-6.1h3l-3.7 10c-.3.8-.6 1.6-.9 2.2a4.6 4.6 0 0 1-.9 1.7 3.6 3.6 0 0 1-1 1.1 3.3 3.3 0 0 1-1.5.3h-1a1.1 1.1 0 0 1-.8-.3l.6-2.2h1.2l.5-.2.4-.5a1.9 1.9 0 0 0 .4-.9l-5.1-11.1h3.6zM22.4 70.3a1.5 1.5 0 0 1 .4-1.1 2.1 2.1 0 0 1 1.4-.4 2 2 0 0 1 1.4.4 1.3 1.3 0 0 1 0 2.2 2 2 0 0 1-1.4.4 2.1 2.1 0 0 1-1.4-.4 1.5 1.5 0 0 1-.4-1.1zm.4 2.4h2.9v11h-2.9zm6.3 8.2l.7.3.8.2.9.3h1c.5 0 .9 0 1.1-.2s.4-.4.4-.8a.7.7 0 0 0-.5-.8l-1.4-.5-1.2-.4a3.4 3.4 0 0 1-1.2-.6 3.4 3.4 0 0 1-1.2-2.6 3.4 3.4 0 0 1 1-2.5 4.5 4.5 0 0 1 3-.9l2.4.2 1.7.5-.6 2.3-1.4-.5-1.7-.2-1.1.2a1 1 0 0 0-.3.8.6.6 0 0 0 .5.7l1.4.5 1.2.4a3.4 3.4 0 0 1 1.2.6 2.7 2.7 0 0 1 .8 1 2.4 2.4 0 0 1 .4 1.5 3.4 3.4 0 0 1-1.2 2.7 5.3 5.3 0 0 1-3.4 1 8.5 8.5 0 0 1-2.3-.3 4.8 4.8 0 0 1-1.8-.6zM45 72.7h2.1l.4 1.4h.3a3.7 3.7 0 0 1 1.5-1.3 4 4 0 0 1 2-.4 3.9 3.9 0 0 1 3.3 1.3c.8.9 1.1 2.3 1.1 4.3a10.1 10.1 0 0 1-.3 2.5 5.9 5.9 0 0 1-1.1 1.9 3.5 3.5 0 0 1-1.7 1.2 5.6 5.6 0 0 1-2.3.5l-1.3-.2-1-.3v4.3h-3zm5.4 2.2a2.5 2.5 0 0 0-1.6.4 3.7 3.7 0 0 0-.8 1.4V81l.8.4a1.8 1.8 0 0 0 1.1.2 2.5 2.5 0 0 0 2.1-.9 4.3 4.3 0 0 0 .7-2.8 4.2 4.2 0 0 0-.5-2.2 1.9 1.9 0 0 0-1.8-.8zm10.7 5c0 1 .4 1.6 1.1 1.6h.5l.6-.2.4 2.3-1.2.4-1.6.2a3 3 0 0 1-2-.6 2.2 2.2 0 0 1-.7-1.9V69h2.9zm4-6.4a10.5 10.5 0 0 1 2.3-.7 13.6 13.6 0 0 1 2.9-.3 5.4 5.4 0 0 1 1.9.3 3.5 3.5 0 0 1 1.3.8 2.3 2.3 0 0 1 .6 1.2 7.8 7.8 0 0 1 .2 1.6 14.8 14.8 0 0 1-.1 2.1c0 .7-.1 1.5-.1 2.3a7.7 7.7 0 0 0 .2 1.5 4 4 0 0 0 .3 1.5h-2.4l-.5-1.7h-.2a8.6 8.6 0 0 1-1.4 1.3 4.8 4.8 0 0 1-2.2.5l-1.4-.2a3.5 3.5 0 0 1-1.2-.7 3.6 3.6 0 0 1-.7-1 2.8 2.8 0 0 1-.3-1.3 3.2 3.2 0 0 1 1.3-2.8 6.4 6.4 0 0 1 3.8-1h1.1l.9.2v-.8a1.6 1.6 0 0 0-.4-1.2 2.4 2.4 0 0 0-1.5-.3 6.2 6.2 0 0 0-1.9.2l-1.7.6zm3.8 8.1a2.5 2.5 0 0 0 1.6-.5 2.8 2.8 0 0 0 .9-1v-1.2h-1.8a3.5 3.5 0 0 0-1.7.4 1.2 1.2 0 0 0-.6 1 1.7 1.7 0 0 0 .5 1.2 1.8 1.8 0 0 0 1.1.1zm16.8 1.5l-1.7.7a7.6 7.6 0 0 1-2.1.3 5.4 5.4 0 0 1-2.4-.5 2.8 2.8 0 0 1-1.6-1.2 5.1 5.1 0 0 1-.9-1.8 8.8 8.8 0 0 1-.3-2.4 6.5 6.5 0 0 1 1.4-4.3 5 5 0 0 1 3.9-1.5l2.1.2 1.4.5-.7 2.4-1.1-.4h-1.2a2.5 2.5 0 0 0-2 .8 3.3 3.3 0 0 0-.7 2.4 5.3 5.3 0 0 0 .1 1.3 3.1 3.1 0 0 0 .5 1l1 .7a2.2 2.2 0 0 0 1.2.2H84l1-.4zm11.2-.4a7.5 7.5 0 0 1-2 1 10.9 10.9 0 0 1-2.6.4 5.4 5.4 0 0 1-4.2-1.6 6.9 6.9 0 0 1-1.3-4.3 5.8 5.8 0 0 1 1.5-4.3 5.7 5.7 0 0 1 4.2-1.5l1.7.2a4.8 4.8 0 0 1 1.6.8 4.7 4.7 0 0 1 1.1 1.3 6.7 6.7 0 0 1 .4 2.2 3.8 3.8 0 0 1-.1 1A5.2 5.2 0 0 1 97 79h-7.3a3.3 3.3 0 0 0 .8 2.1 3.8 3.8 0 0 0 2.4.6l1.8-.2 1.2-.6zm-4.4-8a2.4 2.4 0 0 0-2 .7 3.6 3.6 0 0 0-.7 1.8h4.7a2.1 2.1 0 0 0-.4-1.8 1.8 1.8 0 0 0-1.6-.7zm17.5 5.2v1.8a8.2 8.2 0 0 0 .2 2.1h-2.1l-.4-1.6h-.3a3.5 3.5 0 0 1-1.3 1.4 4.8 4.8 0 0 1-2.2.5 4.4 4.4 0 0 1-3.4-1.4 6.5 6.5 0 0 1-1.2-4.3 10.1 10.1 0 0 1 .3-2.5 7.2 7.2 0 0 1 1.1-1.9 4.3 4.3 0 0 1 1.7-1.2 7.3 7.3 0 0 1 2.3-.4h1.3l1 .3V69h3zm-5.3 1.7a2.3 2.3 0 0 0 1.5-.5 2.5 2.5 0 0 0 .8-1.2v-4.5l-.8-.4h-1.1a2.3 2.3 0 0 0-2.1.8 4.1 4.1 0 0 0-.7 2.8 3.6 3.6 0 0 0 .6 2.2 2 2 0 0 0 1.8.8zm14.1-11.3a1.6 1.6 0 0 1 .5-1.1 2 2 0 0 1 1.4-.4 2.1 2.1 0 0 1 1.4.4 1.5 1.5 0 0 1 0 2.2 2.1 2.1 0 0 1-1.4.4 2 2 0 0 1-1.4-.4 1.6 1.6 0 0 1-.5-1.1zm.5 2.4h2.9v11h-2.9zm13.7 11v-6a3.8 3.8 0 0 0-.5-2.1 1.6 1.6 0 0 0-1.5-.6 2.8 2.8 0 0 0-1.6.5 2.2 2.2 0 0 0-.9 1.3v6.9h-2.9v-11h2.3l.3 1.6h.3a4.4 4.4 0 0 1 1.4-1.3 4.3 4.3 0 0 1 2.4-.6l1.6.2a2.8 2.8 0 0 1 1.1.8 3.7 3.7 0 0 1 .7 1.4 14 14 0 0 1 .2 2.3v6.6zM8.6 97.9h2.9v11.5a4.6 4.6 0 0 1-.8 3.1 3 3 0 0 1-2.6 1.1l-1.5-.2V111h1a1 1 0 0 0 .6-.5.9.9 0 0 0 .3-.7 4.1 4.1 0 0 0 .1-1.1zm-.5-2.4a1.6 1.6 0 0 1 .5-1.1A2.1 2.1 0 0 1 10 94a2 2 0 0 1 1.4.4 1.5 1.5 0 0 1 0 2.2 2 2 0 0 1-1.4.4 2.1 2.1 0 0 1-1.4-.4 1.6 1.6 0 0 1-.5-1.1zm6.7 3.2a10.5 10.5 0 0 1 2.3-.7 12.7 12.7 0 0 1 2.8-.3 6 6 0 0 1 2 .3 2.5 2.5 0 0 1 1.2.8 3.5 3.5 0 0 1 .7 1.2 7.8 7.8 0 0 1 .2 1.6 14.8 14.8 0 0 1-.1 2.1 16.9 16.9 0 0 0-.1 2.3 7.6 7.6 0 0 0 .1 1.5 8.3 8.3 0 0 0 .4 1.5h-2.4l-.5-1.7h-.3a4.4 4.4 0 0 1-1.4 1.3 4.1 4.1 0 0 1-2.1.5l-1.5-.2a4.1 4.1 0 0 1-1.1-.7 3.9 3.9 0 0 1-.8-1 5.1 5.1 0 0 1-.2-1.3 3.4 3.4 0 0 1 1.2-2.8 6.6 6.6 0 0 1 3.8-1h1.2l.8.2a2.5 2.5 0 0 0 .1-.8 2.1 2.1 0 0 0-.4-1.2 2.8 2.8 0 0 0-1.5-.3 6.8 6.8 0 0 0-2 .2l-1.7.6zm3.8 8.1a2.5 2.5 0 0 0 1.6-.5 1.9 1.9 0 0 0 .8-1v-1.2h-1.8a3.1 3.1 0 0 0-1.6.4 1.2 1.2 0 0 0-.6 1 2.1 2.1 0 0 0 .4 1.2 2.1 2.1 0 0 0 1.2.1zm14.9-6.2l-1.2-.2a2.4 2.4 0 0 0-1.5.4 2.1 2.1 0 0 0-.8 1.1v7h-3v-11h2.3l.3 1.5h.3a4.7 4.7 0 0 1 1.1-1.3 3.3 3.3 0 0 1 1.7-.4 3.4 3.4 0 0 1 1.3.2zm2 5.5l.7.3.9.2.9.3h.9a2.2 2.2 0 0 0 1.2-.2.9.9 0 0 0 .4-.8c0-.4-.2-.6-.6-.8l-1.3-.5-1.2-.4a2.3 2.3 0 0 1-1.2-.6 2.2 2.2 0 0 1-.9-1 3.8 3.8 0 0 1-.3-1.6 3 3 0 0 1 1-2.5 4.5 4.5 0 0 1 3-.9l2.3.2 1.8.5-.6 2.3-1.4-.5-1.7-.2-1.1.2a.8.8 0 0 0-.4.8.7.7 0 0 0 .6.7l1.3.5 1.2.4a2.3 2.3 0 0 1 1.2.6c.4.2.6.6.9 1a3.3 3.3 0 0 1 .3 1.5 3.7 3.7 0 0 1-1.1 2.7 5.6 5.6 0 0 1-3.5 1 9.1 9.1 0 0 1-2.3-.3 3.8 3.8 0 0 1-1.7-.6zm14.6-8.2h1.7v-1.5l3-.8v2.3h2.9v2.5h-2.9v3.8a7.8 7.8 0 0 0 .2 1.9 1.1 1.1 0 0 0 1.1.6h.8l.7-.2.6 2.2-1.5.5-1.7.2a3.3 3.3 0 0 1-2.4-.8 3.8 3.8 0 0 1-.8-2.6v-5.5h-1.7zm9.1 5.5a5.7 5.7 0 0 1 1.5-4.2 5 5 0 0 1 4.1-1.6 6.6 6.6 0 0 1 2.5.4 4.3 4.3 0 0 1 1.7 1.3 4 4 0 0 1 1 1.8 5.9 5.9 0 0 1 .4 2.3 6.9 6.9 0 0 1-.4 2.5 4.2 4.2 0 0 1-1.1 1.8 5.2 5.2 0 0 1-1.7 1.2 8.6 8.6 0 0 1-2.4.4 6.6 6.6 0 0 1-2.5-.5 4.5 4.5 0 0 1-2.7-3.1 5.6 5.6 0 0 1-.4-2.3zm3 0a5.1 5.1 0 0 0 .2 1.3 3.6 3.6 0 0 0 .4 1.1 2.7 2.7 0 0 0 .8.7 2.1 2.1 0 0 0 1.2.3c1.7 0 2.6-1.1 2.6-3.4a5.1 5.1 0 0 0-.2-1.3 3.6 3.6 0 0 0-.4-1.1 2.7 2.7 0 0 0-.8-.7 2.2 2.2 0 0 0-1.2-.2 2.2 2.2 0 0 0-1.9.8 3.9 3.9 0 0 0-.7 2.5zm16.4-9.2h2.9v4.7h.3a2.5 2.5 0 0 1 1.3-.9 3.3 3.3 0 0 1 1.7-.4 4.2 4.2 0 0 1 3.3 1.4 6.9 6.9 0 0 1 1.1 4.1 10.1 10.1 0 0 1-.4 2.6 5.2 5.2 0 0 1-1.2 1.9 5.7 5.7 0 0 1-1.8 1.2 6.9 6.9 0 0 1-2.5.4l-2.8-.2-1.9-.5zm2.9 12.2a1.6 1.6 0 0 0 .9.3h1c1.8 0 2.8-1.2 2.8-3.6a3.7 3.7 0 0 0-.6-2.3 2 2 0 0 0-1.7-.8 2.4 2.4 0 0 0-1.5.4 3 3 0 0 0-.9 1.3zm19.5 1.5a6.7 6.7 0 0 1-1.9 1 11.7 11.7 0 0 1-2.7.4 5.2 5.2 0 0 1-4.1-1.6 6.3 6.3 0 0 1-1.4-4.3 5.8 5.8 0 0 1 1.5-4.3 5.7 5.7 0 0 1 4.2-1.5l1.8.2a3.6 3.6 0 0 1 1.5.8 3.5 3.5 0 0 1 1.1 1.3 4.8 4.8 0 0 1 .4 2.2v1c-.1.3-.1.7-.2 1.1h-7.4a3.4 3.4 0 0 0 .9 2.1 3.3 3.3 0 0 0 2.3.6l1.8-.2 1.2-.6zm-4.4-8a2.2 2.2 0 0 0-1.9.7 3 3 0 0 0-.8 1.8h4.8a3 3 0 0 0-.4-1.8 1.9 1.9 0 0 0-1.7-.7zm13.2 6.2l.7.3.8.2 1 .3h.9a2.2 2.2 0 0 0 1.2-.2.9.9 0 0 0 .4-.8c0-.4-.2-.6-.6-.8l-1.3-.5-1.2-.4a2.3 2.3 0 0 1-1.2-.6 2.2 2.2 0 0 1-.9-1 3.8 3.8 0 0 1-.3-1.6 3 3 0 0 1 1-2.5 4.4 4.4 0 0 1 2.9-.9l2.4.2 1.8.5-.6 2.3-1.4-.5-1.8-.2-1 .2a.8.8 0 0 0-.4.8.7.7 0 0 0 .6.7l1.3.5 1.2.4a2.3 2.3 0 0 1 1.2.6c.4.2.6.6.9 1a3.3 3.3 0 0 1 .3 1.5 3.7 3.7 0 0 1-1.1 2.7 5.6 5.6 0 0 1-3.5 1 8.5 8.5 0 0 1-2.3-.3 3.8 3.8 0 0 1-1.7-.6zm9.6-2.7a5.6 5.6 0 0 1 1.4-4.2 5.3 5.3 0 0 1 4.1-1.6 6.2 6.2 0 0 1 2.5.4 3.7 3.7 0 0 1 1.7 1.3 4.2 4.2 0 0 1 1.1 1.8 8.5 8.5 0 0 1 .3 2.3 10.1 10.1 0 0 1-.3 2.5 7.8 7.8 0 0 1-1.1 1.8 5.7 5.7 0 0 1-1.8 1.2 8.6 8.6 0 0 1-2.4.4 6 6 0 0 1-2.4-.5 5.7 5.7 0 0 1-1.8-1.2 5.7 5.7 0 0 1-1-1.9 8 8 0 0 1-.3-2.3zm3 0a5.3 5.3 0 0 0 .1 1.3 3.7 3.7 0 0 0 .5 1.1 1.9 1.9 0 0 0 .8.7 2 2 0 0 0 1.1.3c1.8 0 2.6-1.1 2.6-3.4a5.3 5.3 0 0 0-.1-1.3 3.7 3.7 0 0 0-.5-1.1 1.9 1.9 0 0 0-.8-.7 2.2 2.2 0 0 0-1.2-.2 1.9 1.9 0 0 0-1.8.8 3.4 3.4 0 0 0-.7 2.5zm13.5 1.7c0 1 .4 1.6 1.1 1.6h.5l.6-.2.4 2.3-1.2.4-1.6.2a3 3 0 0 1-2-.6 2.2 2.2 0 0 1-.7-1.9V94.2h2.9zm14.1 0a10.9 10.9 0 0 0 .1 1.8 16.2 16.2 0 0 0 .1 2.1h-2l-.4-1.6h-.3a3.8 3.8 0 0 1-1.4 1.4 4.6 4.6 0 0 1-2.1.5 4.3 4.3 0 0 1-3.4-1.4 6.5 6.5 0 0 1-1.2-4.3 10.1 10.1 0 0 1 .3-2.5 6.9 6.9 0 0 1 1-1.9 6.6 6.6 0 0 1 1.7-1.2 8.6 8.6 0 0 1 2.4-.4h1.2l1.1.3v-3.7h2.9zm-5.2 1.7a2.5 2.5 0 0 0 1.5-.5 2.5 2.5 0 0 0 .8-1.2v-4.5l-.8-.4h-1.1a2.6 2.6 0 0 0-2.1.8 4.1 4.1 0 0 0-.7 2.8 3.6 3.6 0 0 0 .6 2.2 2 2 0 0 0 1.8.8zM21.1 120.7a1.6 1.6 0 0 1 .5-1.1 2 2 0 0 1 1.4-.4 2.1 2.1 0 0 1 1.4.4 1.5 1.5 0 0 1 0 2.2 2.1 2.1 0 0 1-1.4.4 2 2 0 0 1-1.4-.4 1.6 1.6 0 0 1-.5-1.1zm.4 2.4h3v11h-3zm13.8 11v-6a3.8 3.8 0 0 0-.5-2.1 1.8 1.8 0 0 0-1.5-.6 2.8 2.8 0 0 0-1.6.5 2.2 2.2 0 0 0-.9 1.3v6.9h-3v-11h2.4l.3 1.6h.3a3.5 3.5 0 0 1 1.4-1.3 4.3 4.3 0 0 1 2.4-.6l1.5.2a2.5 2.5 0 0 1 1.2.8 3.7 3.7 0 0 1 .7 1.4 14 14 0 0 1 .2 2.3v6.6zm11.1-5.5a5.7 5.7 0 0 1 1.5-4.2 5 5 0 0 1 4.1-1.6 6.1 6.1 0 0 1 2.4.4 4.6 4.6 0 0 1 1.8 1.3 4 4 0 0 1 1 1.8 5.9 5.9 0 0 1 .4 2.3 6.9 6.9 0 0 1-.4 2.5 5.4 5.4 0 0 1-1.1 1.8 6.6 6.6 0 0 1-1.7 1.2 8.6 8.6 0 0 1-2.4.4 6.2 6.2 0 0 1-2.5-.5 4.3 4.3 0 0 1-1.7-1.2 5.9 5.9 0 0 1-1.1-1.9 8 8 0 0 1-.3-2.3zm3 0a5.1 5.1 0 0 0 .2 1.3 3.6 3.6 0 0 0 .4 1.1 2.7 2.7 0 0 0 .8.7 2.1 2.1 0 0 0 1.2.3c1.7 0 2.6-1.1 2.6-3.4a5.1 5.1 0 0 0-.2-1.3 3.6 3.6 0 0 0-.4-1.1 2.7 2.7 0 0 0-.8-.7 2.2 2.2 0 0 0-1.2-.2 2.2 2.2 0 0 0-1.9.8 3.9 3.9 0 0 0-.7 2.5zm13.5-5.5v6.1a3.5 3.5 0 0 0 .4 2c.2.4.7.6 1.4.6a2.5 2.5 0 0 0 1.6-.4 3.8 3.8 0 0 0 .9-1.3v-7h3v7.7a9.1 9.1 0 0 0 .1 1.7 7 7 0 0 0 .2 1.6h-2.1l-.6-1.7h-.2a4.6 4.6 0 0 1-1.6 1.5 4.4 4.4 0 0 1-2.3.6 4.1 4.1 0 0 1-1.6-.3 2.4 2.4 0 0 1-1.2-.7 5.2 5.2 0 0 1-.7-1.5 11.5 11.5 0 0 1-.2-2.1v-6.8zm17.1 2.7l-1.3-.2a2.4 2.4 0 0 0-1.5.4 2.1 2.1 0 0 0-.8 1.1v7h-2.9v-11h2.3l.3 1.5h.3a2.8 2.8 0 0 1 1.1-1.3 2.7 2.7 0 0 1 1.6-.4 3.2 3.2 0 0 1 1.3.2zm7.8 5.5l.6.3.9.2.9.3h1a2 2 0 0 0 1.1-.2c.3-.1.4-.4.4-.8a.9.9 0 0 0-.5-.8l-1.4-.5-1.2-.4-1.2-.6a4.5 4.5 0 0 1-.9-1 3.8 3.8 0 0 1-.3-1.6 3 3 0 0 1 1-2.5 4.5 4.5 0 0 1 3-.9l2.3.2 1.8.5-.6 2.3-1.4-.5-1.7-.2-1.1.2a.8.8 0 0 0-.4.8.7.7 0 0 0 .6.7l1.3.5 1.3.4a2.4 2.4 0 0 1 1.1.6 2.2 2.2 0 0 1 .9 1 3.3 3.3 0 0 1 .4 1.5 3.4 3.4 0 0 1-1.2 2.7 5.5 5.5 0 0 1-3.4 1 8 8 0 0 1-2.3-.3 4.2 4.2 0 0 1-1.8-.6zm8.8-8.2h1.7v-1.5l2.9-.8v2.3h3v2.5h-3v3.8a4.4 4.4 0 0 0 .3 1.9.9.9 0 0 0 1 .6h.8l.7-.2.6 2.2-1.5.5-1.7.2a3.3 3.3 0 0 1-2.4-.8 3.8 3.8 0 0 1-.7-2.6v-5.5h-1.7zm9 5.5a5.7 5.7 0 0 1 1.5-4.2 5.1 5.1 0 0 1 4.1-1.6 6.2 6.2 0 0 1 2.5.4 3.7 3.7 0 0 1 1.7 1.3 5.4 5.4 0 0 1 1.1 1.8 8.5 8.5 0 0 1 .3 2.3 6.9 6.9 0 0 1-.4 2.5 4.2 4.2 0 0 1-1.1 1.8 4.3 4.3 0 0 1-1.7 1.2 8.6 8.6 0 0 1-2.4.4 6 6 0 0 1-2.4-.5 5.7 5.7 0 0 1-1.8-1.2 5.7 5.7 0 0 1-1-1.9 7.9 7.9 0 0 1-.4-2.3zm3.1 0a5.3 5.3 0 0 0 .1 1.3 3.7 3.7 0 0 0 .5 1.1 1.9 1.9 0 0 0 .8.7 2 2 0 0 0 1.1.3c1.7 0 2.6-1.1 2.6-3.4 0-.5-.1-.9-.1-1.3a3.7 3.7 0 0 0-.5-1.1 2.7 2.7 0 0 0-.8-.7 2.2 2.2 0 0 0-1.2-.2 1.9 1.9 0 0 0-1.8.8 3.4 3.4 0 0 0-.7 2.5zm17-2.8l-1.2-.2a2.5 2.5 0 0 0-1.6.4 1.9 1.9 0 0 0-.7 1.1v7h-3v-11h2.3l.3 1.5h.3a4.7 4.7 0 0 1 1.1-1.3 3.8 3.8 0 0 1 2.9-.2zm11.5 7.3a7.5 7.5 0 0 1-2 1 10.9 10.9 0 0 1-2.6.4 5.4 5.4 0 0 1-4.2-1.6 6.9 6.9 0 0 1-1.3-4.3 5.8 5.8 0 0 1 1.5-4.3 5.7 5.7 0 0 1 4.2-1.5l1.7.2a4.8 4.8 0 0 1 1.6.8 4.7 4.7 0 0 1 1.1 1.3 6.7 6.7 0 0 1 .4 2.2c0 .3-.1.6-.1 1a5.2 5.2 0 0 1-.2 1.1H130a3.3 3.3 0 0 0 .8 2.1 3.8 3.8 0 0 0 2.4.6l1.8-.2 1.2-.6zm-4.4-8a2.4 2.4 0 0 0-2 .7 3.6 3.6 0 0 0-.7 1.8h4.7a2.1 2.1 0 0 0-.4-1.8 1.8 1.8 0 0 0-1.6-.7z"/></svg>