<svg xmlns="http://www.w3.org/2000/svg" width="159.8" height="184.6" viewBox="0 0 159.8 184.6"><path fill="#fadb94" d="M159.8 46.1L79.9 0 0 46.1v92.3l79.9 46.2 79.9-46.2z"/><path fill="#fff" d="M63.4 45.1v93.6l47.3-9.4v-77zm40.2 78l-33 6.6V53.8l33 4.4z"/><path fill="#fadb94" stroke="#fff" stroke-miterlimit="10" stroke-width="4.55" d="M55.1 42.2l.2 100.1"/><path fill="#fff" d="M75 123.2l24.5-4.1V63.2l-24.5-3z"/><path fill="#4c4a4b" d="M159.9 46.1L79.9 0 0 46.1v92.3l79.9 46.1 80-46.1z" opacity=".85"/><path fill="#fff" d="M28 59.5h-2.5v4h-2.8v-4h-6.9v-1.7l7.2-9.1h2.5v8.5H28zm-5.3-5.3l.2-1.7h-.1l-.7 1.4-2.4 2.7-1.2.8 1.5-.2h2.7zm6.3 7.9a1.7 1.7 0 0 1 .5-1.2 1.8 1.8 0 0 1 1.3-.4 2.1 2.1 0 0 1 1.4.4 1.7 1.7 0 0 1 0 2.4 2.2 2.2 0 0 1-1.4.5 1.9 1.9 0 0 1-1.3-.5 1.7 1.7 0 0 1-.5-1.2zm20.9-10.5h-4.6v11.9h-3.2V51.6h-4.6v-2.8h12.4zm9.2 11.9v-6a3.7 3.7 0 0 0-.4-2.1 1.8 1.8 0 0 0-1.6-.6 2.5 2.5 0 0 0-1.5.5 3.1 3.1 0 0 0-1 1.5v6.7h-2.9V48.8h2.9v5.1h.3a4.1 4.1 0 0 1 1.4-1.2 4.6 4.6 0 0 1 2.1-.5l1.6.2a2.3 2.3 0 0 1 1.1.8 2.6 2.6 0 0 1 .7 1.4 6.9 6.9 0 0 1 .3 2.2v6.7zm15.4-1a6.7 6.7 0 0 1-1.9 1 11.7 11.7 0 0 1-2.7.4 5.2 5.2 0 0 1-4.1-1.6 6.3 6.3 0 0 1-1.4-4.3 5.8 5.8 0 0 1 1.5-4.3 5.7 5.7 0 0 1 4.2-1.5l1.8.2a3.6 3.6 0 0 1 1.5.8 3.5 3.5 0 0 1 1.1 1.3 4.8 4.8 0 0 1 .4 2.2v1c-.1.3-.1.7-.2 1.1h-7.4a3.4 3.4 0 0 0 .9 2.1 3.3 3.3 0 0 0 2.3.6l1.8-.2 1.2-.6zm-4.4-8a2.2 2.2 0 0 0-1.9.7 3 3 0 0 0-.8 1.8h4.8a3 3 0 0 0-.4-1.8 1.9 1.9 0 0 0-1.7-.7zm20.7 9v-6a4.8 4.8 0 0 0-.4-2.1 2 2 0 0 0-1.6-.6 3 3 0 0 0-1.6.5 2.9 2.9 0 0 0-.9 1.5v6.7h-2.9V48.8h2.9v5.1h.2a4.4 4.4 0 0 1 1.5-1.2 4.1 4.1 0 0 1 2.1-.5l1.6.2a2.8 2.8 0 0 1 1.1.8 3.7 3.7 0 0 1 .7 1.4 12.7 12.7 0 0 1 .2 2.2v6.7zm5.3-5.5a5.7 5.7 0 0 1 1.5-4.2 5 5 0 0 1 4.1-1.6 6.6 6.6 0 0 1 2.5.4 4.3 4.3 0 0 1 1.7 1.3 4 4 0 0 1 1 1.8 5.9 5.9 0 0 1 .4 2.3 6.9 6.9 0 0 1-.4 2.5 4.2 4.2 0 0 1-1.1 1.8 5.2 5.2 0 0 1-1.7 1.2 8.6 8.6 0 0 1-2.4.4 6.6 6.6 0 0 1-2.5-.5 4.5 4.5 0 0 1-2.7-3.1 5.6 5.6 0 0 1-.4-2.3zm3 0a5.1 5.1 0 0 0 .2 1.3 3.6 3.6 0 0 0 .4 1.1 2.7 2.7 0 0 0 .8.7 2.1 2.1 0 0 0 1.2.3c1.7 0 2.6-1.1 2.6-3.4a5.1 5.1 0 0 0-.2-1.3 3.6 3.6 0 0 0-.4-1.1 2.7 2.7 0 0 0-.8-.7 2.2 2.2 0 0 0-1.2-.2 2.2 2.2 0 0 0-1.9.8 3.9 3.9 0 0 0-.7 2.5zm18 5.5v-6a3.9 3.9 0 0 0-.4-2.1 1.8 1.8 0 0 0-1.6-.6 3 3 0 0 0-1.6.5 3.8 3.8 0 0 0-.9 1.3v6.9h-2.9v-11h2.3l.3 1.6h.3a4.7 4.7 0 0 1 1.5-1.3 4.1 4.1 0 0 1 2.3-.6l1.6.2a2.8 2.8 0 0 1 1.1.8 2.6 2.6 0 0 1 .7 1.4 7.5 7.5 0 0 1 .3 2.3v6.6zm15.4-1a6.7 6.7 0 0 1-1.9 1 11.7 11.7 0 0 1-2.7.4 5.2 5.2 0 0 1-4.1-1.6 6.3 6.3 0 0 1-1.3-4.3 5.1 5.1 0 0 1 5.6-5.8l1.8.2a3.6 3.6 0 0 1 1.5.8 3.5 3.5 0 0 1 1.1 1.3 4.8 4.8 0 0 1 .4 2.2v1c-.1.3-.1.7-.2 1.1h-7.4a3.4 3.4 0 0 0 .9 2.1 3.3 3.3 0 0 0 2.3.6l1.8-.2 1.2-.6zm-4.4-8a2.2 2.2 0 0 0-1.9.7 3 3 0 0 0-.8 1.8h4.8a3 3 0 0 0-.4-1.8 1.9 1.9 0 0 0-1.7-.7zm11.2 4.1l.4 1.8h.2l.4-1.8 1.9-6.1h3l-3.7 10-.8 2.2a13.1 13.1 0 0 1-.9 1.7 3.8 3.8 0 0 1-1.1 1.1 3.2 3.2 0 0 1-1.4.3h-1.1a1.1 1.1 0 0 1-.8-.3l.6-2.2h1.2l.5-.2a1 1 0 0 0 .4-.5 1.9 1.9 0 0 0 .4-.9l-5-11.1h3.5zM10.4 75.3a1.3 1.3 0 0 1 .5-1.1 1.7 1.7 0 0 1 1.3-.4 2.4 2.4 0 0 1 1.5.4 1.5 1.5 0 0 1 0 2.2 2.4 2.4 0 0 1-1.5.4 1.7 1.7 0 0 1-1.3-.4 1.3 1.3 0 0 1-.5-1.1zm.4 2.4h3v11h-3zm6.3 8.2l.7.3.8.2.9.3h1c.5 0 .9 0 1.1-.2a.8.8 0 0 0 .5-.8c0-.4-.2-.6-.6-.8l-1.3-.5-1.3-.4a2.4 2.4 0 0 1-1.1-.6 2.2 2.2 0 0 1-.9-1 2.7 2.7 0 0 1-.4-1.6 3.1 3.1 0 0 1 1.1-2.5 4 4 0 0 1 2.9-.9l2.4.2 1.8.5-.7 2.3-1.3-.5-1.8-.2-1.1.2a1 1 0 0 0-.3.8.8.8 0 0 0 .5.7l1.4.5 1.2.4a3.4 3.4 0 0 1 1.2.6 2.7 2.7 0 0 1 .8 1 2.4 2.4 0 0 1 .4 1.5 3.4 3.4 0 0 1-1.2 2.7 5.3 5.3 0 0 1-3.4 1 8.5 8.5 0 0 1-2.3-.3 3.8 3.8 0 0 1-1.7-.6zm22.5-5.5l-1.3-.2a2.4 2.4 0 0 0-1.5.4 2.1 2.1 0 0 0-.8 1.1v7h-2.9v-11h2.3l.3 1.5h.3a2.8 2.8 0 0 1 1.1-1.3 2.7 2.7 0 0 1 1.6-.4 3.2 3.2 0 0 1 1.3.2zM51 87.7a6.7 6.7 0 0 1-1.9 1 11.7 11.7 0 0 1-2.7.4 5.2 5.2 0 0 1-4.1-1.6 6.3 6.3 0 0 1-1.3-4.3 5.1 5.1 0 0 1 5.6-5.8l1.8.2a3.6 3.6 0 0 1 1.5.8 3.5 3.5 0 0 1 1.1 1.3 4.8 4.8 0 0 1 .4 2.2v1c-.1.3-.1.7-.2 1.1h-7.4a3.4 3.4 0 0 0 .9 2.1 3.3 3.3 0 0 0 2.3.6l1.8-.2 1.2-.6zm-4.4-8a2.2 2.2 0 0 0-1.9.7 3 3 0 0 0-.8 1.8h4.8a3 3 0 0 0-.4-1.8 1.9 1.9 0 0 0-1.7-.7zm14.3 9V83a6.3 6.3 0 0 0-.3-2.3c-.2-.5-.7-.7-1.4-.7a2.1 2.1 0 0 0-1.4.4 3.6 3.6 0 0 0-.8 1.2v7.1h-2.9v-11h2.2l.4 1.5h.2l.7-.6a1.9 1.9 0 0 1 .7-.6l1-.4 1.2-.2a3.6 3.6 0 0 1 1.9.5 3.4 3.4 0 0 1 1.2 1.6A5.1 5.1 0 0 1 65 78a3.7 3.7 0 0 1 2.1-.6l1.7.2a2.3 2.3 0 0 1 1.1.8 4.8 4.8 0 0 1 .7 1.6 14.4 14.4 0 0 1 .2 2.4v6.3h-3v-7.1l-.3-.9a1.2 1.2 0 0 0-.5-.5l-.9-.2a2.5 2.5 0 0 0-1.5.5 2.4 2.4 0 0 0-.7 1.2v7zm12.3-5.5a5.6 5.6 0 0 1 1.4-4.2 5.3 5.3 0 0 1 4.1-1.6 6.2 6.2 0 0 1 2.5.4 3.7 3.7 0 0 1 1.7 1.3 4.2 4.2 0 0 1 1.1 1.8 8.5 8.5 0 0 1 .3 2.3 10.1 10.1 0 0 1-.3 2.5 7.8 7.8 0 0 1-1.1 1.8 5.7 5.7 0 0 1-1.8 1.2 8.6 8.6 0 0 1-2.4.4 6 6 0 0 1-2.4-.5 5.7 5.7 0 0 1-1.8-1.2 5.7 5.7 0 0 1-1-1.9 8 8 0 0 1-.3-2.3zm3 0a5.3 5.3 0 0 0 .1 1.3 3.7 3.7 0 0 0 .5 1.1 2.7 2.7 0 0 0 .8.7 2 2 0 0 0 1.1.3c1.8 0 2.6-1.1 2.6-3.4a5.3 5.3 0 0 0-.1-1.3 3.7 3.7 0 0 0-.5-1.1 1.9 1.9 0 0 0-.8-.7 2.2 2.2 0 0 0-1.2-.2 2.1 2.1 0 0 0-1.8.8 3.4 3.4 0 0 0-.7 2.5zm14.1.2l.5 1.7h.3l.3-1.7 2.1-5.7h3.1l-5 11.1h-1.7l-5.2-11.1h3.4zm16.9 4.3a7.5 7.5 0 0 1-2 1 10.9 10.9 0 0 1-2.6.4 5.4 5.4 0 0 1-4.2-1.6 6.3 6.3 0 0 1-1.3-4.3 5.8 5.8 0 0 1 1.5-4.3 5.7 5.7 0 0 1 4.2-1.5l1.7.2a4.8 4.8 0 0 1 1.6.8 4.7 4.7 0 0 1 1.1 1.3 6.7 6.7 0 0 1 .4 2.2c0 .3-.1.6-.1 1a5.2 5.2 0 0 1-.2 1.1H100a3.3 3.3 0 0 0 .8 2.1 3.8 3.8 0 0 0 2.4.6l1.7-.2 1.3-.6zm-4.4-8a2.4 2.4 0 0 0-2 .7 3.6 3.6 0 0 0-.7 1.8h4.7a2.4 2.4 0 0 0-.4-1.8 1.8 1.8 0 0 0-1.6-.7zm17.4 5.2c0 .6.1 1.2.1 1.8a8.2 8.2 0 0 0 .2 2.1h-2.1l-.4-1.6h-.3a4.4 4.4 0 0 1-1.3 1.4 5.1 5.1 0 0 1-2.2.5 4.3 4.3 0 0 1-3.4-1.4 6.5 6.5 0 0 1-1.2-4.3 10.1 10.1 0 0 1 .3-2.5A7.2 7.2 0 0 1 111 79a4.8 4.8 0 0 1 1.6-1.2 8.6 8.6 0 0 1 2.4-.4h1.2l1.1.3V74h2.9zm-5.2 1.7a2.5 2.5 0 0 0 1.5-.5 2.5 2.5 0 0 0 .8-1.2v-4.5l-.8-.4h-1.1a2.3 2.3 0 0 0-2.1.8 4.1 4.1 0 0 0-.7 2.8 3.6 3.6 0 0 0 .6 2.2 2 2 0 0 0 1.8.8zM129.2 74h2.9v4.7h.3a3 3 0 0 1 1.3-.9 3.3 3.3 0 0 1 1.7-.4 4.2 4.2 0 0 1 3.3 1.4 6.9 6.9 0 0 1 1.1 4.1 7.1 7.1 0 0 1-.4 2.6 5.2 5.2 0 0 1-1.2 1.9 5.7 5.7 0 0 1-1.8 1.2 6.9 6.9 0 0 1-2.5.4l-2.8-.2-1.9-.5zm2.9 12.2a1.6 1.6 0 0 0 .9.3h1c1.9 0 2.8-1.2 2.8-3.6a3.7 3.7 0 0 0-.6-2.3 2 2 0 0 0-1.7-.8 2.4 2.4 0 0 0-1.5.4 3 3 0 0 0-.9 1.3zm13.8-2.4l.5 1.8h.2l.4-1.8 1.9-6.1h3l-3.7 10c-.3.8-.6 1.6-.9 2.2a6.7 6.7 0 0 1-.8 1.7 5.7 5.7 0 0 1-1.1 1.1 3.2 3.2 0 0 1-1.4.3h-1.1a1.1 1.1 0 0 1-.8-.3l.6-2.2h1.2l.5-.2.4-.5a1.9 1.9 0 0 0 .4-.9l-5.1-11.1h3.6zM41.1 102.9h1.7v-1.5l2.9-.8v2.3h3v2.5h-3v3.8a4.4 4.4 0 0 0 .3 1.9 1 1 0 0 0 1 .6h.8l.8-.2.6 2.2-1.6.5-1.7.2a3.3 3.3 0 0 1-2.4-.8 3.8 3.8 0 0 1-.7-2.6v-5.5h-1.7zm17.3 11v-6a3.6 3.6 0 0 0-.5-2.1 1.8 1.8 0 0 0-1.6-.6 3 3 0 0 0-1.5.5 2.4 2.4 0 0 0-.9 1.5v6.7h-3V99.2h3v5.1h.2a5.3 5.3 0 0 1 1.4-1.2 4.8 4.8 0 0 1 2.2-.5l1.6.2a2.8 2.8 0 0 1 1.1.8 3.7 3.7 0 0 1 .7 1.4 12.7 12.7 0 0 1 .2 2.2v6.7zm15.4-1a7.5 7.5 0 0 1-2 1 10.9 10.9 0 0 1-2.6.4 5.4 5.4 0 0 1-4.2-1.6 6.3 6.3 0 0 1-1.3-4.3 5.8 5.8 0 0 1 1.5-4.3 5.7 5.7 0 0 1 4.2-1.5l1.7.2a4.8 4.8 0 0 1 1.6.8 3.2 3.2 0 0 1 1 1.3 4.8 4.8 0 0 1 .5 2.2c0 .3-.1.6-.1 1a5.2 5.2 0 0 1-.2 1.1h-7.3a2.9 2.9 0 0 0 .8 2.1 3.8 3.8 0 0 0 2.4.6l1.7-.2 1.2-.6zm-4.5-8a2.4 2.4 0 0 0-1.9.7 2.9 2.9 0 0 0-.7 1.8h4.7a2.4 2.4 0 0 0-.4-1.8 1.8 1.8 0 0 0-1.7-.7zm13.3-5.7h2.9v4.7h.3a3 3 0 0 1 1.3-.9 3.3 3.3 0 0 1 1.7-.4 4.2 4.2 0 0 1 3.3 1.4 6.9 6.9 0 0 1 1.1 4.1 7.1 7.1 0 0 1-.4 2.6 5.2 5.2 0 0 1-1.2 1.9 5.7 5.7 0 0 1-1.8 1.2 6.9 6.9 0 0 1-2.5.4l-2.8-.2-1.9-.5zm2.9 12.2a1.6 1.6 0 0 0 .9.3h1c1.9 0 2.8-1.2 2.8-3.6a3.7 3.7 0 0 0-.6-2.3 2 2 0 0 0-1.7-.8 2.4 2.4 0 0 0-1.5.4 3 3 0 0 0-.9 1.3zm19.5 1.5a6.7 6.7 0 0 1-1.9 1 11 11 0 0 1-2.7.4 5.3 5.3 0 0 1-4.1-1.6 6.3 6.3 0 0 1-1.3-4.3 5.8 5.8 0 0 1 1.5-4.3 5.4 5.4 0 0 1 4.2-1.5l1.7.2a3.6 3.6 0 0 1 1.5.8 3.5 3.5 0 0 1 1.1 1.3 4.8 4.8 0 0 1 .4 2.2v1c-.1.3-.1.7-.2 1.1h-7.4a3.4 3.4 0 0 0 .9 2.1 3.5 3.5 0 0 0 2.3.6l1.8-.2 1.2-.6zm-4.4-8a2.2 2.2 0 0 0-1.9.7 3.7 3.7 0 0 0-.8 1.8h4.8a3 3 0 0 0-.4-1.8 1.9 1.9 0 0 0-1.7-.7zm16.8 8a7.5 7.5 0 0 1-2 1 10.9 10.9 0 0 1-2.6.4 5.4 5.4 0 0 1-4.2-1.6 6.9 6.9 0 0 1-1.3-4.3 5.8 5.8 0 0 1 1.5-4.3 5.7 5.7 0 0 1 4.2-1.5l1.7.2a4.8 4.8 0 0 1 1.6.8 4.7 4.7 0 0 1 1.1 1.3 6.7 6.7 0 0 1 .4 2.2 3.8 3.8 0 0 1-.1 1 5.2 5.2 0 0 1-.2 1.1h-7.3a3.3 3.3 0 0 0 .8 2.1 3.8 3.8 0 0 0 2.4.6l1.8-.2 1.2-.6zm-4.4-8a2.4 2.4 0 0 0-2 .7 3.6 3.6 0 0 0-.7 1.8h4.7a2.1 2.1 0 0 0-.4-1.8 1.8 1.8 0 0 0-1.6-.7zm-62.9 29.7h-1v4.5h-2.9v-14.7h2.9v8.5l1-.4 2.7-4.4H56l-2.8 4h.1l-1.4 1 1.4.9 3.2 5.1h-3.4zm17.1 3.5a6.2 6.2 0 0 1-2 1 10.9 10.9 0 0 1-2.6.4 5.4 5.4 0 0 1-4.2-1.6 6.9 6.9 0 0 1-1.3-4.3 5.8 5.8 0 0 1 1.5-4.3 5.7 5.7 0 0 1 4.2-1.5l1.8.2a5.5 5.5 0 0 1 1.5.8 4.7 4.7 0 0 1 1.1 1.3 6.7 6.7 0 0 1 .4 2.2 3.8 3.8 0 0 1-.1 1 5.2 5.2 0 0 1-.2 1.1H60a3.3 3.3 0 0 0 .8 2.1 3.8 3.8 0 0 0 2.4.6l1.8-.2 1.2-.6zm-4.4-8a2.6 2.6 0 0 0-2 .7 3.6 3.6 0 0 0-.7 1.8h4.7a2.1 2.1 0 0 0-.4-1.8 1.8 1.8 0 0 0-1.6-.7zm16.7 8a5.6 5.6 0 0 1-1.9 1 11 11 0 0 1-2.7.4 5.3 5.3 0 0 1-4.1-1.6 6.3 6.3 0 0 1-1.3-4.3 5.8 5.8 0 0 1 1.5-4.3 5.7 5.7 0 0 1 4.2-1.5l1.7.2a3.6 3.6 0 0 1 1.5.8 3.5 3.5 0 0 1 1.1 1.3 4.8 4.8 0 0 1 .4 2.2v1c-.1.3-.1.7-.2 1.1h-7.4a3.4 3.4 0 0 0 .9 2.1 3.5 3.5 0 0 0 2.3.6l1.8-.2 1.2-.6zm-4.4-8a2.2 2.2 0 0 0-1.9.7 3.7 3.7 0 0 0-.8 1.8h4.8a2.4 2.4 0 0 0-.4-1.8 1.9 1.9 0 0 0-1.7-.7zm7.5-2h2.1l.3 1.4h.3a3.7 3.7 0 0 1 1.5-1.3 4.2 4.2 0 0 1 2-.4 3.9 3.9 0 0 1 3.3 1.3 6.3 6.3 0 0 1 1.2 4.3 10.1 10.1 0 0 1-.4 2.5 5.7 5.7 0 0 1-1 1.9 4.4 4.4 0 0 1-1.8 1.2 5.2 5.2 0 0 1-2.3.5l-1.2-.2-1.1-.3v4.3h-2.9zm5.3 2.2a2.1 2.1 0 0 0-1.5.4 2.8 2.8 0 0 0-.9 1.4v4.3l.8.4a2 2 0 0 0 1.1.2 2.3 2.3 0 0 0 2.1-.9 4.3 4.3 0 0 0 .7-2.8 3.4 3.4 0 0 0-.5-2.2 1.9 1.9 0 0 0-1.8-.8zm17.2 7.8a6.2 6.2 0 0 1-2 1 10.9 10.9 0 0 1-2.6.4 5.4 5.4 0 0 1-4.2-1.6 6.9 6.9 0 0 1-1.3-4.3 5.8 5.8 0 0 1 1.5-4.3 5.7 5.7 0 0 1 4.2-1.5l1.8.2a5.5 5.5 0 0 1 1.5.8 4.7 4.7 0 0 1 1.1 1.3 6.7 6.7 0 0 1 .4 2.2 3.8 3.8 0 0 1-.1 1c0 .3-.1.7-.1 1.1h-7.4a3.3 3.3 0 0 0 .8 2.1 3.8 3.8 0 0 0 2.4.6l1.8-.2 1.2-.6zm-4.4-8a2.6 2.6 0 0 0-2 .7 3.6 3.6 0 0 0-.7 1.8h4.8a2.4 2.4 0 0 0-.5-1.8 1.8 1.8 0 0 0-1.6-.7zm13.9.7l-1.2-.2a2.4 2.4 0 0 0-1.5.4 2.1 2.1 0 0 0-.8 1.1v7h-3v-11h2.3l.4 1.5h.2a3.7 3.7 0 0 1 1.2-1.3 2.7 2.7 0 0 1 1.6-.4 3.4 3.4 0 0 1 1.3.2z"/></svg>