<svg xmlns="http://www.w3.org/2000/svg" width="159.8" height="184.6" viewBox="0 0 159.8 184.6"><g id="Layer_11"><path fill="#fadb94" d="M159.8 46.1L79.9 0 0 46.1v92.3l79.9 46.2 79.9-46.2V46.1z"/><path fill="#fff" d="M37.5 77.6l24.7-14.4 25 14.4v28.7l-25 14.4-24.7-14.4z"/><path fill="#fff" d="M37.5 56.6l24.7-14.4 25 14.4V71l-25-14.4L37.5 71zM87.2 128l-25 14.3L37.5 128v-14.4L62.2 128l25-14.4zm5.5-50.3v12.8l47.7-12.8-24.8-14.5zm21 12.8l-21 5.1V107l26.7 12.1z"/><path fill="#4c4a4b" d="M160 45.8L80.1-.3.2 45.8v92.3l79.9 46.1 79.9-46.1V45.8z" opacity=".85"/><path fill="#fff" d="M33 48.4a5.2 5.2 0 0 1-.4 2.1 10.6 10.6 0 0 1-1.1 2.1 24.3 24.3 0 0 1-1.4 2l-1.5 1.8-1.2.8L29 57h4.3v2.4h-9.6V58l1.3-1.3 1.3-1.4 1.4-1.6 1.2-1.7a11.9 11.9 0 0 0 .8-1.6A3.9 3.9 0 0 0 30 49a2.2 2.2 0 0 0-.5-1.4 2 2 0 0 0-1.6-.6 2.8 2.8 0 0 0-1.5.4 4 4 0 0 0-1.3.7L23.8 46a10.3 10.3 0 0 1 2.1-1.1 6.7 6.7 0 0 1 2.6-.5 4.8 4.8 0 0 1 1.8.3 5.2 5.2 0 0 1 1.5.7 6 6 0 0 1 .9 1.3 4.3 4.3 0 0 1 .3 1.7zm2.8 9.6a1.7 1.7 0 0 1 .5-1.2 2 2 0 0 1 1.3-.4 2.1 2.1 0 0 1 1.4.4 1.7 1.7 0 0 1 0 2.4 2.2 2.2 0 0 1-1.4.5 2.1 2.1 0 0 1-1.3-.5 1.7 1.7 0 0 1-.5-1.2zm20.9-10.5h-4.6v11.9H49V47.5h-4.7v-2.8h12.4zm9.2 11.9v-6a3.7 3.7 0 0 0-.4-2.1 1.8 1.8 0 0 0-1.6-.6 2.7 2.7 0 0 0-1.5.5 3.1 3.1 0 0 0-1 1.5v6.7h-2.9V44.7h2.9v5.1h.3a4.1 4.1 0 0 1 1.4-1.2 4.8 4.8 0 0 1 2.2-.5l1.5.2a2.5 2.5 0 0 1 1.2.8 2.6 2.6 0 0 1 .6 1.4 6.9 6.9 0 0 1 .3 2.2v6.7zm15.4-1a6.7 6.7 0 0 1-1.9 1 11 11 0 0 1-2.7.4 5.3 5.3 0 0 1-4.1-1.6 6.3 6.3 0 0 1-1.3-4.3 5.8 5.8 0 0 1 1.5-4.3 5.4 5.4 0 0 1 4.2-1.5l1.7.2a3.6 3.6 0 0 1 1.5.8 3.5 3.5 0 0 1 1.1 1.3 4.8 4.8 0 0 1 .4 2.2v1c-.1.3-.1.7-.2 1h-7.4a3.4 3.4 0 0 0 .9 2.2 3.5 3.5 0 0 0 2.3.6l1.8-.2 1.2-.6zm-4.4-8a2.2 2.2 0 0 0-1.9.7 3.7 3.7 0 0 0-.8 1.8H79a3 3 0 0 0-.4-1.8 1.9 1.9 0 0 0-1.7-.7zm13.3-5.7h2.9v4.7h.3a2.7 2.7 0 0 1 1.2-.9 3.7 3.7 0 0 1 1.8-.4 3.9 3.9 0 0 1 3.2 1.4 6.3 6.3 0 0 1 1.2 4.1 10.1 10.1 0 0 1-.4 2.6 5.1 5.1 0 0 1-3.1 3.1 6.1 6.1 0 0 1-2.4.4l-2.8-.2-1.9-.5zm2.9 12.2a1.6 1.6 0 0 0 .9.3h1q2.7 0 2.7-3.6a3.7 3.7 0 0 0-.5-2.3 2.1 2.1 0 0 0-1.7-.8 2.4 2.4 0 0 0-1.5.5 3 3 0 0 0-.9 1.3zm19.5 1.5a6.2 6.2 0 0 1-2 1 10.9 10.9 0 0 1-2.6.4 5 5 0 0 1-4.1-1.6 6.3 6.3 0 0 1-1.4-4.3 5.8 5.8 0 0 1 1.5-4.3 5.7 5.7 0 0 1 4.2-1.5l1.8.2a5.5 5.5 0 0 1 1.5.8 4.7 4.7 0 0 1 1.1 1.3 4.8 4.8 0 0 1 .4 2.2 3.8 3.8 0 0 1-.1 1c0 .3-.1.7-.1 1h-7.4a4.1 4.1 0 0 0 .8 2.2 3.8 3.8 0 0 0 2.4.6l1.8-.2 1.2-.6zm-4.4-8a2.6 2.6 0 0 0-2 .7 3.6 3.6 0 0 0-.7 1.8h4.8a2.4 2.4 0 0 0-.5-1.8 1.8 1.8 0 0 0-1.6-.7zm16.7 8a5.6 5.6 0 0 1-1.9 1 10.9 10.9 0 0 1-2.6.4 5.4 5.4 0 0 1-4.2-1.6 6.3 6.3 0 0 1-1.3-4.3 5.8 5.8 0 0 1 1.5-4.3 5.7 5.7 0 0 1 4.2-1.5l1.7.2a3.6 3.6 0 0 1 1.5.8 2.8 2.8 0 0 1 1.1 1.3 4.8 4.8 0 0 1 .4 2.2v1c-.1.3-.1.7-.2 1h-7.3a2.9 2.9 0 0 0 .8 2.2 3.7 3.7 0 0 0 2.3.6l1.8-.2 1.2-.6zm-4.4-8a2.4 2.4 0 0 0-1.9.7 2.9 2.9 0 0 0-.7 1.8h4.7a2.4 2.4 0 0 0-.4-1.8 1.9 1.9 0 0 0-1.7-.7zm7.5 6.2l.6.3.9.2.9.3h1a1.8 1.8 0 0 0 1.1-.2c.3-.1.4-.4.4-.8a.9.9 0 0 0-.5-.8l-1.4-.5-1.2-.4a3.4 3.4 0 0 1-1.2-.6 4.5 4.5 0 0 1-.9-1 3.8 3.8 0 0 1-.3-1.6 3 3 0 0 1 1-2.5 4.5 4.5 0 0 1 3-.9l2.3.2 1.8.5-.6 2.3-1.4-.5-1.7-.2-1.1.2a1 1 0 0 0-.4.8.7.7 0 0 0 .6.7l1.3.5 1.3.4a2.4 2.4 0 0 1 1.1.6 2.2 2.2 0 0 1 .9 1 3.3 3.3 0 0 1 .4 1.5 3.4 3.4 0 0 1-1.2 2.7 5.5 5.5 0 0 1-3.4 1 8.5 8.5 0 0 1-2.3-.3 4.8 4.8 0 0 1-1.8-.6zm-88.8 17h2.1l.3 1.4h.3a3.7 3.7 0 0 1 1.5-1.3 4 4 0 0 1 2-.4 3.9 3.9 0 0 1 3.3 1.3c.8.9 1.1 2.3 1.1 4.3a10.1 10.1 0 0 1-.3 2.5 5.9 5.9 0 0 1-1.1 1.9 3.5 3.5 0 0 1-1.7 1.2 5.6 5.6 0 0 1-2.3.5l-1.3-.2-1-.3v4.3h-2.9zm5.3 2.2a2.5 2.5 0 0 0-1.6.4 3.7 3.7 0 0 0-.8 1.4v4.3l.8.4a2 2 0 0 0 1.1.2 2.3 2.3 0 0 0 2.1-.9 4.3 4.3 0 0 0 .7-2.8 4.2 4.2 0 0 0-.5-2.2 1.9 1.9 0 0 0-1.8-.8zm14.2.5l-1.2-.2a2.4 2.4 0 0 0-1.5.4 2.1 2.1 0 0 0-.8 1.1v7h-3v-11h2.3l.4 1.5h.2a3.7 3.7 0 0 1 1.2-1.3 2.7 2.7 0 0 1 1.6-.4 3.4 3.4 0 0 1 1.3.2zm1.4 2.8a5.7 5.7 0 0 1 1.5-4.2 5 5 0 0 1 4.1-1.6 6.2 6.2 0 0 1 2.5.4 3.7 3.7 0 0 1 1.7 1.3 5.4 5.4 0 0 1 1.1 1.8 8.5 8.5 0 0 1 .3 2.3 6.9 6.9 0 0 1-.4 2.5 4.2 4.2 0 0 1-1.1 1.8 4.3 4.3 0 0 1-1.7 1.2 8.6 8.6 0 0 1-2.4.4 6.6 6.6 0 0 1-2.5-.5 5.2 5.2 0 0 1-1.7-1.2 4.4 4.4 0 0 1-1-1.9 5.6 5.6 0 0 1-.4-2.3zm3.1 0a5.3 5.3 0 0 0 .1 1.3 3.7 3.7 0 0 0 .5 1.1l.7.7a2.7 2.7 0 0 0 1.2.3c1.7 0 2.6-1.1 2.6-3.4a5.1 5.1 0 0 0-.2-1.3 2.1 2.1 0 0 0-.4-1.1 2.7 2.7 0 0 0-.8-.7 2.2 2.2 0 0 0-1.2-.2 2.2 2.2 0 0 0-1.9.8 4 4 0 0 0-.6 2.5zm20.5 1.7a10.9 10.9 0 0 0 .1 1.8 16.2 16.2 0 0 0 .1 2.1h-2l-.4-1.6h-.3a3.8 3.8 0 0 1-1.4 1.4 4.6 4.6 0 0 1-2.1.5 4.3 4.3 0 0 1-3.4-1.4 6.5 6.5 0 0 1-1.2-4.3 10.1 10.1 0 0 1 .3-2.5 6.9 6.9 0 0 1 1-1.9 6.6 6.6 0 0 1 1.7-1.2 8.6 8.6 0 0 1 2.4-.4h1.2l1.1.3v-3.7h2.9zm-5.2 1.7A2.5 2.5 0 0 0 80 82a2.5 2.5 0 0 0 .8-1.2v-4.5l-.8-.4h-1.1a2.3 2.3 0 0 0-2.1.8 4.1 4.1 0 0 0-.7 2.8 3.6 3.6 0 0 0 .6 2.2 2 2 0 0 0 1.8.8zm11.3-8.9v6.1a4.6 4.6 0 0 0 .4 2 1.6 1.6 0 0 0 1.5.6 2.4 2.4 0 0 0 1.5-.4 3.8 3.8 0 0 0 .9-1.3v-7h3v7.7a9.1 9.1 0 0 0 .1 1.7 7 7 0 0 0 .2 1.6h-2.1l-.6-1.7h-.2a4.6 4.6 0 0 1-1.6 1.5 4.4 4.4 0 0 1-2.3.6 4.1 4.1 0 0 1-1.6-.3 2.9 2.9 0 0 1-1.2-.7 5.2 5.2 0 0 1-.7-1.5 12.5 12.5 0 0 1-.2-2.1v-6.8zM108.7 84l-1.7.7a7.6 7.6 0 0 1-2.1.3 5.7 5.7 0 0 1-2.4-.5 2.8 2.8 0 0 1-1.6-1.2 5.1 5.1 0 0 1-.9-1.8 8.8 8.8 0 0 1-.3-2.4 6.5 6.5 0 0 1 1.4-4.3 5 5 0 0 1 3.9-1.5l2.1.2 1.4.5-.7 2.4-1.1-.4h-1.2a2.5 2.5 0 0 0-2 .8 3.3 3.3 0 0 0-.7 2.4 5.3 5.3 0 0 0 .1 1.3 2.1 2.1 0 0 0 .6 1 2.4 2.4 0 0 0 2.1.9h1.4l1-.4zm11.2-.4a6.2 6.2 0 0 1-2 1 10.9 10.9 0 0 1-2.6.4 5.4 5.4 0 0 1-4.2-1.6 6.9 6.9 0 0 1-1.3-4.3 5.8 5.8 0 0 1 1.5-4.3 5.7 5.7 0 0 1 4.2-1.5l1.8.2a5.5 5.5 0 0 1 1.5.8 4.7 4.7 0 0 1 1.1 1.3 6.7 6.7 0 0 1 .4 2.2 3.8 3.8 0 0 1-.1 1 3.6 3.6 0 0 1-.2 1h-7.3a3.4 3.4 0 0 0 .8 2.2 3.8 3.8 0 0 0 2.4.6l1.8-.2 1.2-.6zm-4.4-8a2.6 2.6 0 0 0-2 .7 3.6 3.6 0 0 0-.7 1.8h4.7a2.1 2.1 0 0 0-.4-1.8 1.8 1.8 0 0 0-1.6-.7zM28.2 98.8h2.1l.4 1.4h.2a5.8 5.8 0 0 1 1.5-1.3 4.6 4.6 0 0 1 2.1-.4 4 4 0 0 1 3.3 1.3 6.9 6.9 0 0 1 1.1 4.3 10.1 10.1 0 0 1-.3 2.5 5.9 5.9 0 0 1-1.1 1.9 4.1 4.1 0 0 1-1.7 1.2 5.9 5.9 0 0 1-2.3.5l-1.3-.2-1-.3v4.3h-3zm5.4 2.2a2.5 2.5 0 0 0-1.6.4 2.7 2.7 0 0 0-.8 1.4v4.3a2 2 0 0 0 .8.4 1.8 1.8 0 0 0 1.1.2 2.6 2.6 0 0 0 2.1-.9 4.3 4.3 0 0 0 .7-2.8 4.2 4.2 0 0 0-.5-2.2 1.9 1.9 0 0 0-1.8-.8zm14.2.5l-1.2-.2a2.5 2.5 0 0 0-1.6.4 2.8 2.8 0 0 0-.8 1.1v7h-2.9v-11h2.3l.3 1.5h.3a4.7 4.7 0 0 1 1.1-1.3 2.9 2.9 0 0 1 1.6-.4 3.2 3.2 0 0 1 1.3.2zm1.4 2.8a5.7 5.7 0 0 1 1.5-4.2 5 5 0 0 1 4.1-1.6 6.1 6.1 0 0 1 2.4.4 4.6 4.6 0 0 1 1.8 1.3 5.2 5.2 0 0 1 1 1.8 5.9 5.9 0 0 1 .4 2.3 10.1 10.1 0 0 1-.4 2.5 5.4 5.4 0 0 1-1.1 1.8 6.6 6.6 0 0 1-1.7 1.2 8.6 8.6 0 0 1-2.4.4 6.2 6.2 0 0 1-2.5-.5 4.3 4.3 0 0 1-1.7-1.2 5.9 5.9 0 0 1-1.1-1.9 8 8 0 0 1-.3-2.3zm3 0a5.1 5.1 0 0 0 .2 1.3 3.6 3.6 0 0 0 .4 1.1 2.7 2.7 0 0 0 .8.7 2.1 2.1 0 0 0 1.2.3c1.7 0 2.5-1.1 2.5-3.4a5.3 5.3 0 0 0-.1-1.3 3.6 3.6 0 0 0-.4-1.1 2.7 2.7 0 0 0-.8-.7 2.3 2.3 0 0 0-1.2-.2 2.2 2.2 0 0 0-1.9.8 3.9 3.9 0 0 0-.7 2.5zm9.2-5.5h1.7v-1.5l2.9-.8v2.3h3v2.5h-3v3.8a4.4 4.4 0 0 0 .3 1.9 1 1 0 0 0 1 .6h.9l.7-.2.6 2.2-1.6.5-1.6.2a3.3 3.3 0 0 1-2.4-.8 3.8 3.8 0 0 1-.8-2.6v-5.5h-1.7zm19.2 10a7.5 7.5 0 0 1-2 1 10.9 10.9 0 0 1-2.6.4 5.4 5.4 0 0 1-4.2-1.6 6.3 6.3 0 0 1-1.3-4.3A5.8 5.8 0 0 1 72 100a5.7 5.7 0 0 1 4.2-1.5l1.7.2a4.8 4.8 0 0 1 1.6.8 3.2 3.2 0 0 1 1 1.3 4.8 4.8 0 0 1 .5 2.2c0 .3-.1.6-.1 1a3.6 3.6 0 0 1-.2 1h-7.3a2.9 2.9 0 0 0 .8 2.2 3.8 3.8 0 0 0 2.4.6l1.7-.2a3.3 3.3 0 0 0 1.2-.6zm-4.5-8a2.4 2.4 0 0 0-1.9.7 2.9 2.9 0 0 0-.7 1.8h4.7a2.4 2.4 0 0 0-.4-1.8 1.8 1.8 0 0 0-1.7-.7zm7.4-4.4a1.6 1.6 0 0 1 .5-1.1 2 2 0 0 1 1.4-.4 2.1 2.1 0 0 1 1.4.4 1.5 1.5 0 0 1 0 2.2 2.1 2.1 0 0 1-1.4.4 2 2 0 0 1-1.4-.4 1.6 1.6 0 0 1-.5-1.1zm.5 2.4h2.9v11H84zm13.7 11v-6a3.8 3.8 0 0 0-.5-2.1 1.6 1.6 0 0 0-1.5-.6 2.8 2.8 0 0 0-1.6.5 2.2 2.2 0 0 0-.9 1.3v6.9h-2.9v-11h2.3l.3 1.6h.3a4.4 4.4 0 0 1 1.4-1.3 4.3 4.3 0 0 1 2.4-.6l1.6.2a2.8 2.8 0 0 1 1.1.8 3.7 3.7 0 0 1 .7 1.4 14 14 0 0 1 .2 2.3v6.6zm5.9-2.8l.7.3.9.2.9.3h.9a2.2 2.2 0 0 0 1.2-.2c.3-.1.4-.4.4-.8s-.2-.6-.6-.8l-1.3-.5-1.2-.4a2.7 2.7 0 0 1-1.2-.6 2.2 2.2 0 0 1-.9-1 3.8 3.8 0 0 1-.3-1.6 3 3 0 0 1 1-2.5 4.5 4.5 0 0 1 3-.9l2.3.2 1.8.5-.6 2.3-1.4-.5-1.7-.2-1.1.2a.8.8 0 0 0-.4.8.7.7 0 0 0 .6.7l1.3.5 1.2.4a2.3 2.3 0 0 1 1.2.6 2.2 2.2 0 0 1 .9 1 3.3 3.3 0 0 1 .3 1.5 3.7 3.7 0 0 1-1.1 2.7 5.5 5.5 0 0 1-3.4 1 9.3 9.3 0 0 1-2.4-.3 3.8 3.8 0 0 1-1.7-.6zm15.9-10.6a1.6 1.6 0 0 1 .5-1.1 2 2 0 0 1 1.4-.4 2.1 2.1 0 0 1 1.4.4 1.5 1.5 0 0 1 0 2.2 2.1 2.1 0 0 1-1.4.4 2 2 0 0 1-1.4-.4 1.6 1.6 0 0 1-.5-1.1zm.4 2.4h3v11h-3zm13.8 11v-6a3.8 3.8 0 0 0-.5-2.1 1.8 1.8 0 0 0-1.5-.6 2.8 2.8 0 0 0-1.6.5 2.2 2.2 0 0 0-.9 1.3v6.9h-3v-11h2.4l.3 1.6h.3a4.4 4.4 0 0 1 1.4-1.3 4.3 4.3 0 0 1 2.4-.6l1.6.2a2.8 2.8 0 0 1 1.1.8 3.7 3.7 0 0 1 .7 1.4 14 14 0 0 1 .2 2.3v6.6zM26.9 124h1.7v-1.5l2.9-.8v2.3h3v2.5h-3v3.8a4.4 4.4 0 0 0 .3 1.9 1 1 0 0 0 1 .6h.9l.7-.2.6 2.2-1.6.5-1.7.2a3.5 3.5 0 0 1-2.4-.8 3.8 3.8 0 0 1-.7-2.6v-5.5h-1.7zm17.3 11v-6a3.6 3.6 0 0 0-.5-2.1 1.6 1.6 0 0 0-1.5-.6 3 3 0 0 0-1.6.5 2.4 2.4 0 0 0-.9 1.5v6.7h-3v-14.7h3v5.1h.2a5.3 5.3 0 0 1 1.4-1.2 4.8 4.8 0 0 1 2.2-.5l1.6.2a2.8 2.8 0 0 1 1.1.8 3.7 3.7 0 0 1 .7 1.4 12.7 12.7 0 0 1 .2 2.2v6.7zm15.4-1a7.5 7.5 0 0 1-2 1 10.9 10.9 0 0 1-2.6.4 5.4 5.4 0 0 1-4.2-1.6 6.3 6.3 0 0 1-1.3-4.3 5.8 5.8 0 0 1 1.5-4.3 5.7 5.7 0 0 1 4.2-1.5l1.7.2a4.8 4.8 0 0 1 1.6.8 4.7 4.7 0 0 1 1.1 1.3 6.7 6.7 0 0 1 .4 2.2c0 .3-.1.6-.1 1a3.6 3.6 0 0 1-.2 1h-7.3a3.4 3.4 0 0 0 .8 2.2 3.8 3.8 0 0 0 2.4.6l1.7-.2 1.3-.6zm-4.4-8a2.4 2.4 0 0 0-2 .7 3.6 3.6 0 0 0-.7 1.8h4.7a2.4 2.4 0 0 0-.4-1.8 1.8 1.8 0 0 0-1.6-.7zm20.6 9v-6a3.9 3.9 0 0 0-.4-2.1 1.8 1.8 0 0 0-1.6-.6 3 3 0 0 0-1.6.5 3.8 3.8 0 0 0-.9 1.3v6.9h-2.9v-11h2.3l.3 1.6h.3a4.7 4.7 0 0 1 1.5-1.3 4.1 4.1 0 0 1 2.3-.6l1.6.2a2.3 2.3 0 0 1 1.1.8 2.6 2.6 0 0 1 .7 1.4 7.5 7.5 0 0 1 .3 2.3v6.6zm15.4-1a5.6 5.6 0 0 1-1.9 1 10.9 10.9 0 0 1-2.6.4 5.4 5.4 0 0 1-4.2-1.6 6.3 6.3 0 0 1-1.3-4.3 5.8 5.8 0 0 1 1.5-4.3 5.7 5.7 0 0 1 4.2-1.5l1.7.2a3.6 3.6 0 0 1 1.5.8 3.5 3.5 0 0 1 1.1 1.3 4.8 4.8 0 0 1 .4 2.2v1c-.1.3-.1.7-.2 1H84a3.4 3.4 0 0 0 .9 2.2 3.5 3.5 0 0 0 2.3.6l1.8-.2 1.2-.6zm-4.4-8a2.4 2.4 0 0 0-1.9.7 2.9 2.9 0 0 0-.7 1.8h4.7a2.4 2.4 0 0 0-.4-1.8 1.9 1.9 0 0 0-1.7-.7zm15.7 8.4l-1.7.7a7.6 7.6 0 0 1-2.1.3 5.4 5.4 0 0 1-2.4-.5 2.8 2.8 0 0 1-1.6-1.2 5.1 5.1 0 0 1-.9-1.8 8.8 8.8 0 0 1-.3-2.4 6.5 6.5 0 0 1 1.4-4.3 5 5 0 0 1 3.9-1.5l2.1.2 1.4.5-.7 2.4-1.1-.4h-1.2a2.9 2.9 0 0 0-2.1.8 3.8 3.8 0 0 0-.7 2.4 5.1 5.1 0 0 0 .2 1.3 3.1 3.1 0 0 0 .5 1l.9.7a2.7 2.7 0 0 0 1.3.2h1.4l1-.4zm.8-10.4h1.7v-1.5l2.9-.8v2.3h3v2.5h-3v3.8a4.4 4.4 0 0 0 .3 1.9 1 1 0 0 0 1 .6h.8l.8-.2.6 2.2-1.6.5-1.7.2a3.3 3.3 0 0 1-2.4-.8 3.8 3.8 0 0 1-.7-2.6v-5.5h-1.7zm9.7.8l2.4-.7a12.7 12.7 0 0 1 2.8-.3 5 5 0 0 1 1.9.3 2.4 2.4 0 0 1 1.3.8 2.3 2.3 0 0 1 .6 1.2 4.1 4.1 0 0 1 .2 1.6v2.1a16.9 16.9 0 0 0-.1 2.3 7.6 7.6 0 0 0 .1 1.5l.3 1.5h-2.4l-.5-1.7h-.2a5.8 5.8 0 0 1-1.4 1.3 4.8 4.8 0 0 1-2.2.5l-1.4-.2a3 3 0 0 1-1.1-.7 2.5 2.5 0 0 1-.8-1 2.7 2.7 0 0 1-.2-1.3 3.4 3.4 0 0 1 1.2-2.8 6.4 6.4 0 0 1 3.8-1h1.2l.8.2c0-.3.1-.6.1-.8a2.1 2.1 0 0 0-.4-1.2 2.8 2.8 0 0 0-1.5-.3 6.5 6.5 0 0 0-2 .2l-1.7.6zm3.9 8.1a2.3 2.3 0 0 0 1.5-.5 2.8 2.8 0 0 0 .9-1v-1.2h-1.8a3.5 3.5 0 0 0-1.7.4 1.4 1.4 0 0 0-.5 1 1.6 1.6 0 0 0 .4 1.2 2.1 2.1 0 0 0 1.2.1zm14.9-6.2l-1.3-.2a2.4 2.4 0 0 0-1.5.4 2.8 2.8 0 0 0-.8 1.1v7h-2.9v-11h2.3l.3 1.5h.3a3.5 3.5 0 0 1 1.1-1.3 2.9 2.9 0 0 1 1.6-.4 3.2 3.2 0 0 1 1.3.2z"/></g></svg>