<svg xmlns="http://www.w3.org/2000/svg" width="159.8" height="184.6" viewBox="0 0 159.8 184.6"><g fill="#010101"><path d="M84.1 51.2l-3.8-.7a25 25 0 0 0-2.6 6 4.6 4.6 0 0 0 1.6.6c1-2.5 2.4-5 4.8-5.9z"/><path d="M79.5 3.8L3.1 47.9v88.2l76.4 44.1 76.4-44.1V47.9zM109 139.1c-29.2 14.7-62.6 0-62.6 0L46 75.6a62.5 62.5 0 0 0 33.5 7v33.2s.5 3 2.5 3a2.8 2.8 0 0 0 3-3.2l-.2-33.4h.4l2.6-.4h.3v21.6a2.7 2.7 0 0 0 2.6 2.5 2.7 2.7 0 0 0 3-2.6V80.6a78.1 78.1 0 0 0 15.3-5zM77.5 78.4C60.2 78.4 46 74.6 46 70s13.7-8.2 30.8-8.3a17.7 17.7 0 0 1 .9-5.2l-1.2-1s-6.5-6 6.5-15a10.1 10.1 0 0 0 2.1-3.7s10.9 18-4.6 20.4a2.8 2.8 0 0 1-1.2-.1 42.1 42.1 0 0 0-1.3 4.6c17.2 0 31.1 3.8 31.1 8.3s-14.2 8.4-31.6 8.4z"/></g></svg>