<svg xmlns="http://www.w3.org/2000/svg" width="159.8" height="184.6" viewBox="0 0 159.8 184.6"><path fill="#010101" d="M79.5 3.8L3.1 47.9v88.2l76.4 44.1 76.4-44.1V47.9zm25.2 135.7c0 5.9-3.4 10.7-7.5 10.7H68.4c-4.1 0-7.4-4.8-7.4-10.7v-14.7a6.7 6.7 0 0 1 .4-2.4l.4 1.8s23.9 12 42.8.1a4.3 4.3 0 0 1 .1.5zm1.4-30.9H75.4V73.1h34.8zm4.5-39.5H75.4a4 4 0 0 0-4 4v35.5a4 4 0 0 0 4 4h30.2l-.9 8.6h-.1c-18.9 11.9-42.8-.1-42.8-.1l-.4-1.8-13.9-65.5c30.4 14 65.3-3.3 65.3-3.3zm2.2-23S79.9 64.8 46 49.5l-2-10.6 70.5-1.5z"/></svg>