<svg xmlns="http://www.w3.org/2000/svg" width="159.8" height="184.6" viewBox="0 0 159.8 184.6"><path fill="#fadb94" d="M159.8 46.1L79.9 0 0 46.1v92.3l79.9 46.2 79.9-46.2z"/><path fill="#fff" d="M85.1 82.7l13.1-25.5L81 38.9 63.8 57.2l13.3 25.5a10.6 10.6 0 0 1 4-.8 11 11 0 0 1 4 .8zm36.4 7.7l8.7-25.7-27.7-2-12.7 23.5a10.7 10.7 0 0 1 2 3.8zM60 61.2l-28.2 2.3 8.5 26.9h30a12.2 12.2 0 0 1 2.8-5.1zm17.9 42.5l-12.6 24.2 17.2 18.3 17.3-18.3-13.1-25.3a10.8 10.8 0 0 1-5.6 1.6 11.3 11.3 0 0 1-3.2-.5zm25.3 18.7l29.1-2-10.1-25.7-30.2.4a12.6 12.6 0 0 1-1.5 3.8zM41 94.7l-9.2 26.9 28.9 2.3 12.5-23a11.8 11.8 0 0 1-3.1-6.2z"/></svg>