<svg xmlns="http://www.w3.org/2000/svg" width="159.8" height="184.6" viewBox="0 0 159.8 184.6"><g id="Layer_7"><path fill="#fadb94" d="M159.8 46.1L79.9 0 0 46.1v92.3l79.9 46.2 79.9-46.2V46.1z"/><path fill="#fff" d="M85.1 82.7l13.1-25.5L81 38.9 63.8 57.2l13.3 25.5a10.6 10.6 0 0 1 4-.8 11 11 0 0 1 4 .8zm36.4 7.7l8.7-25.7-27.7-2-12.7 23.5a10.7 10.7 0 0 1 2 3.8zM60 61.2l-28.2 2.3 8.5 26.9h30a12.2 12.2 0 0 1 2.8-5.1zm17.9 42.5l-12.6 24.2 17.2 18.3 17.3-18.3-13.1-25.3a10.8 10.8 0 0 1-5.6 1.6 11.3 11.3 0 0 1-3.2-.5zm25.3 18.7l29.1-2-10.1-25.7-30.2.4a12.6 12.6 0 0 1-1.5 3.8zM41 94.7l-9.2 26.9 28.9 2.3 12.5-23a11.8 11.8 0 0 1-3.1-6.2z"/><path fill="#4c4a4b" d="M159.8 46.5L79.9.4 0 46.5v92.3L79.9 185l79.9-46.2V46.5z" opacity=".85"/><path fill="#fff" d="M25.1 59.1h3.2V51l.3-1.5-1.1 1.3-2 1.4-1.2-1.8 5.2-3.8h1.6v12.5h3.1v2.4h-9.1zm11.4 1a1.7 1.7 0 0 1 .5-1.2 1.8 1.8 0 0 1 1.3-.4 2.1 2.1 0 0 1 1.4.4 1.7 1.7 0 0 1 0 2.4 2.2 2.2 0 0 1-1.4.5 1.9 1.9 0 0 1-1.3-.5 1.7 1.7 0 0 1-.5-1.2zm14.4-6.2l-1.3-2.2h-.1l.3 2.2v7.6h-2.9V46.7h2.2l6.1 7.9 1.2 2.1h.1l-.3-2.2v-7.7h2.9v14.8h-2.2zm20.6 6.6a7.5 7.5 0 0 1-2 1 10.9 10.9 0 0 1-2.6.4 5.4 5.4 0 0 1-4.2-1.6 6.3 6.3 0 0 1-1.3-4.3 5.8 5.8 0 0 1 1.5-4.3 5.7 5.7 0 0 1 4.2-1.5l1.7.2a4.8 4.8 0 0 1 1.6.8 3.2 3.2 0 0 1 1 1.3 4.8 4.8 0 0 1 .5 2.2c0 .3-.1.6-.1 1a5.2 5.2 0 0 1-.2 1.1h-7.3a2.9 2.9 0 0 0 .8 2.1 3.8 3.8 0 0 0 2.4.6 4.7 4.7 0 0 0 1.7-.2 3.3 3.3 0 0 0 1.2-.6zm-4.5-8a2.4 2.4 0 0 0-1.9.7 2.9 2.9 0 0 0-.7 1.8h4.7a2.4 2.4 0 0 0-.4-1.8 1.8 1.8 0 0 0-1.7-.7zm15.7 8.4l-1.7.7-2.1.3a6 6 0 0 1-2.4-.5 3.1 3.1 0 0 1-1.6-1.2 5.1 5.1 0 0 1-.9-1.8 8.8 8.8 0 0 1-.3-2.4 6.5 6.5 0 0 1 1.4-4.3 5 5 0 0 1 3.9-1.5l2.1.2 1.4.5-.7 2.4-1.1-.4h-1.2a2.5 2.5 0 0 0-2 .8 3.3 3.3 0 0 0-.7 2.4 5.3 5.3 0 0 0 .1 1.3 2.1 2.1 0 0 0 .6 1 2.2 2.2 0 0 0 .9.7 2.4 2.4 0 0 0 1.2.3l1.4-.2 1-.4zm.8-10.4h1.7V49l2.9-.8v2.3h3V53h-3v3.8a4.4 4.4 0 0 0 .3 1.9 1 1 0 0 0 1 .6h.9l.7-.3.6 2.2-1.6.5-1.6.2a3.3 3.3 0 0 1-2.4-.8 3.8 3.8 0 0 1-.8-2.6V53h-1.7zm9.7.8l2.4-.7a12.7 12.7 0 0 1 2.8-.3 6 6 0 0 1 2 .3 2.5 2.5 0 0 1 1.2.8 3.5 3.5 0 0 1 .7 1.2 7.8 7.8 0 0 1 .2 1.6c0 .7-.1 1.4-.1 2.1a16.9 16.9 0 0 0-.1 2.3 7.6 7.6 0 0 0 .1 1.5l.3 1.5h-2.4l-.4-1.7h-.3a5.8 5.8 0 0 1-1.4 1.3 4.3 4.3 0 0 1-2.1.5l-1.5-.2a4.1 4.1 0 0 1-1.1-.7 3.9 3.9 0 0 1-.8-1 5.1 5.1 0 0 1-.2-1.3 3.4 3.4 0 0 1 1.2-2.8 6.6 6.6 0 0 1 3.8-1h1.2l.8.2c0-.3.1-.6.1-.8a2.1 2.1 0 0 0-.4-1.2 2.8 2.8 0 0 0-1.5-.3 6.8 6.8 0 0 0-2 .2l-1.7.6zm3.9 8.1a2.8 2.8 0 0 0 1.6-.5 2.5 2.5 0 0 0 .8-1v-1.2c0-.1-.2-.1-.3-.1h-1.5a3.9 3.9 0 0 0-1.7.4 1.4 1.4 0 0 0-.5 1 1.6 1.6 0 0 0 .4 1.2 2.1 2.1 0 0 0 1.2.2zm14.9-6.2l-1.2-.2a2.5 2.5 0 0 0-1.6.4 1.9 1.9 0 0 0-.7 1.1v7h-3v-11h2.3l.3 1.5h.3a4.7 4.7 0 0 1 1.1-1.3 3.8 3.8 0 0 1 2.9-.2zm7.8-5.1a1.5 1.5 0 0 1 .4-1.1 2.1 2.1 0 0 1 1.4-.4 2 2 0 0 1 1.4.4 1.3 1.3 0 0 1 0 2.2 2 2 0 0 1-1.4.4 2.1 2.1 0 0 1-1.4-.4 1.5 1.5 0 0 1-.4-1.1zm.4 2.4h2.9v11h-2.9zm6.3 8.2l.7.3.8.3.9.2h1a1.8 1.8 0 0 0 1.1-.2c.3-.1.4-.4.4-.8a.9.9 0 0 0-.5-.8l-1.4-.5-1.2-.4a3.4 3.4 0 0 1-1.2-.6 4.5 4.5 0 0 1-.9-1 3.8 3.8 0 0 1-.3-1.6 3 3 0 0 1 1-2.5 4.5 4.5 0 0 1 3-.9l2.4.2 1.7.5-.6 2.3-1.4-.5-1.7-.2-1.1.2a1 1 0 0 0-.4.8.7.7 0 0 0 .6.7l1.4.5 1.2.4a2.4 2.4 0 0 1 1.1.6 2.2 2.2 0 0 1 .9 1 2.4 2.4 0 0 1 .4 1.5 3.4 3.4 0 0 1-1.2 2.7 5.3 5.3 0 0 1-3.4 1 8.5 8.5 0 0 1-2.3-.3 4.8 4.8 0 0 1-1.8-.6zM27.4 86.1l-1.7.7a7.1 7.1 0 0 1-2.1.3 6 6 0 0 1-2.4-.5 3.6 3.6 0 0 1-1.6-1.2 3.7 3.7 0 0 1-.8-1.8 8.8 8.8 0 0 1-.3-2.4 6.5 6.5 0 0 1 1.3-4.3 5.1 5.1 0 0 1 4-1.5l2 .2 1.5.5-.7 2.4-1.1-.4h-1.3a2.8 2.8 0 0 0-2 .8 3.3 3.3 0 0 0-.7 2.4 5.1 5.1 0 0 0 .2 1.3 3.1 3.1 0 0 0 .5 1 2.2 2.2 0 0 0 .9.7 2.8 2.8 0 0 0 1.3.3l1.4-.2 1-.4zm1.2-4.9A5.6 5.6 0 0 1 30 77a5.3 5.3 0 0 1 4.1-1.6 6.2 6.2 0 0 1 2.5.4 3.7 3.7 0 0 1 1.7 1.3 4.2 4.2 0 0 1 1.1 1.8 8.5 8.5 0 0 1 .3 2.3 10.1 10.1 0 0 1-.3 2.5 7.8 7.8 0 0 1-1.1 1.8 5.7 5.7 0 0 1-1.8 1.2 8.6 8.6 0 0 1-2.4.4 6 6 0 0 1-2.4-.5 5.7 5.7 0 0 1-1.8-1.2 5.7 5.7 0 0 1-1-1.9 8 8 0 0 1-.3-2.3zm3 0a5.3 5.3 0 0 0 .1 1.3 3.7 3.7 0 0 0 .5 1.1 1.9 1.9 0 0 0 .8.7 2 2 0 0 0 1.1.3c1.8 0 2.6-1.1 2.6-3.4a5.3 5.3 0 0 0-.1-1.3 3.7 3.7 0 0 0-.5-1.1 1.9 1.9 0 0 0-.8-.7 2.2 2.2 0 0 0-1.2-.2 1.9 1.9 0 0 0-1.8.8 3.4 3.4 0 0 0-.7 2.5zm13.5 1.7c0 1 .4 1.6 1.1 1.6h.5l.6-.2.4 2.3-1.2.4-1.6.2a3 3 0 0 1-2-.6 2.2 2.2 0 0 1-.7-1.9V72h2.9zm7.1 0c0 1 .3 1.6 1 1.6h.6l.6-.2.4 2.3a3.4 3.4 0 0 1-1.2.4l-1.6.2a2.8 2.8 0 0 1-2-.6 2.2 2.2 0 0 1-.7-1.9V72h2.9zm13.5 2.8a6.7 6.7 0 0 1-1.9 1 11.7 11.7 0 0 1-2.7.4 5.2 5.2 0 0 1-4.1-1.6 6.3 6.3 0 0 1-1.4-4.3 5.8 5.8 0 0 1 1.5-4.3 5.7 5.7 0 0 1 4.2-1.5l1.8.2a3.6 3.6 0 0 1 1.5.8 3.5 3.5 0 0 1 1.1 1.3 4.8 4.8 0 0 1 .4 2.2v1c-.1.3-.1.7-.2 1.1h-7.4a3.4 3.4 0 0 0 .9 2.1 3.3 3.3 0 0 0 2.3.6 5 5 0 0 0 1.8-.2l1.2-.6zm-4.4-8a2.2 2.2 0 0 0-1.9.7 3 3 0 0 0-.8 1.8h4.8a3 3 0 0 0-.4-1.8 1.9 1.9 0 0 0-1.7-.7zm15.6 8.4a5.4 5.4 0 0 1-1.7.7 6.4 6.4 0 0 1-2 .3 5.4 5.4 0 0 1-2.4-.5 2.8 2.8 0 0 1-1.6-1.2 3.8 3.8 0 0 1-.9-1.8 8.8 8.8 0 0 1-.3-2.4 6 6 0 0 1 1.4-4.3 5 5 0 0 1 3.9-1.5l2.1.2 1.4.5-.7 2.4-1.1-.4h-1.2a2.9 2.9 0 0 0-2.1.8 3.8 3.8 0 0 0-.7 2.4 5.1 5.1 0 0 0 .2 1.3 3.1 3.1 0 0 0 .5 1l.9.7a2.8 2.8 0 0 0 1.3.3l1.4-.2 1-.4zm.9-10.4h1.7v-1.5l2.9-.8v2.3h3v2.5h-3V82a4.4 4.4 0 0 0 .3 1.9.9.9 0 0 0 1 .6h.8l.7-.2.6 2.2-1.5.5-1.7.2a3.3 3.3 0 0 1-2.4-.8 3.8 3.8 0 0 1-.7-2.6v-5.6h-1.7zm19.1 10a6.7 6.7 0 0 1-1.9 1 11 11 0 0 1-2.7.4 5.2 5.2 0 0 1-4.1-1.6 6.3 6.3 0 0 1-1.3-4.3 6.2 6.2 0 0 1 1.4-4.3 5.7 5.7 0 0 1 4.2-1.5l1.8.2a3.6 3.6 0 0 1 1.5.8 3.5 3.5 0 0 1 1.1 1.3 4.8 4.8 0 0 1 .4 2.2v1c-.1.3-.1.7-.2 1.1h-7.4a3.4 3.4 0 0 0 .9 2.1 3.3 3.3 0 0 0 2.3.6 5 5 0 0 0 1.8-.2l1.2-.6zm-4.4-8a2.2 2.2 0 0 0-1.9.7 3.7 3.7 0 0 0-.8 1.8h4.8a3 3 0 0 0-.4-1.8 1.9 1.9 0 0 0-1.7-.7zm17.5 5.2v1.8a18.3 18.3 0 0 0 .2 2.1h-2l-.5-1.6h-.2a3.8 3.8 0 0 1-1.4 1.4 4.9 4.9 0 0 1-5.6-.9 6.5 6.5 0 0 1-1.2-4.3 6.9 6.9 0 0 1 .4-2.5 5 5 0 0 1 1-1.9 5.2 5.2 0 0 1 1.7-1.2 7.9 7.9 0 0 1 2.3-.4h1.3l1.1.3V72h2.9zm-5.3 1.7a2.5 2.5 0 0 0 1.6-.5 3.6 3.6 0 0 0 .8-1.2v-4.5l-.9-.4h-1.1a2.9 2.9 0 0 0-2.1.8 4.8 4.8 0 0 0-.6 2.8 3.6 3.6 0 0 0 .5 2.2 2 2 0 0 0 1.8.8zM118.9 72h3v4.7h.2a3.8 3.8 0 0 1 1.3-.9 5.3 5.3 0 0 1 1.8-.4 3.9 3.9 0 0 1 3.2 1.4 6.3 6.3 0 0 1 1.1 4.1 6.8 6.8 0 0 1-.4 2.6 4 4 0 0 1-1.1 1.9 5.2 5.2 0 0 1-1.9 1.2 6.1 6.1 0 0 1-2.4.4l-2.8-.2-2-.5zm3 12.2a1.6 1.6 0 0 0 .9.3h1q2.7 0 2.7-3.6a4.6 4.6 0 0 0-.5-2.3 2.1 2.1 0 0 0-1.7-.8 2.1 2.1 0 0 0-1.5.4 3 3 0 0 0-.9 1.3zm13.8-2.4l.4 1.8h.3l.4-1.8 1.8-6.1h3l-3.6 10c-.3.8-.6 1.6-.9 2.2a13.1 13.1 0 0 1-.9 1.7 3.8 3.8 0 0 1-1.1 1.1 2.9 2.9 0 0 1-1.4.3h-1a1.4 1.4 0 0 1-.9-.3l.6-2.2h1.2l.5-.2c.2-.1.3-.3.5-.5a4.6 4.6 0 0 0 .3-.9l-5-11.1h3.5zM7.8 100.9h1.7v-1.5l3-.8v2.3h2.9v2.5h-2.9v3.8a7.8 7.8 0 0 0 .2 1.9 1.1 1.1 0 0 0 1.1.6h.8l.7-.2.6 2.2-1.5.5-1.7.2a3.3 3.3 0 0 1-2.4-.8 3.8 3.8 0 0 1-.8-2.6v-5.5H7.8zm17.3 11v-6a3.7 3.7 0 0 0-.4-2.1 1.8 1.8 0 0 0-1.6-.6 3 3 0 0 0-1.6.5 3.8 3.8 0 0 0-.9 1.5v6.7h-2.9V97.2h2.9v5.1h.3a3.3 3.3 0 0 1 1.4-1.2 4.3 4.3 0 0 1 2.1-.5l1.6.2a2.3 2.3 0 0 1 1.1.8 2.6 2.6 0 0 1 .7 1.4 7.2 7.2 0 0 1 .2 2.2v6.7zm15.4-1a6.7 6.7 0 0 1-1.9 1 11.7 11.7 0 0 1-2.7.4 5 5 0 0 1-4.1-1.6 6.3 6.3 0 0 1-1.4-4.3 5.8 5.8 0 0 1 1.5-4.3 5.7 5.7 0 0 1 4.2-1.5l1.8.2a4.4 4.4 0 0 1 1.5.8 3.5 3.5 0 0 1 1.1 1.3 4.8 4.8 0 0 1 .4 2.2 3.8 3.8 0 0 1-.1 1c0 .3-.1.7-.1 1.1h-7.4a4 4 0 0 0 .8 2.1 3.8 3.8 0 0 0 2.4.6 5 5 0 0 0 1.8-.2l1.2-.6zm-4.4-8a2.2 2.2 0 0 0-1.9.7 3 3 0 0 0-.8 1.8h4.8a2.4 2.4 0 0 0-.5-1.8 1.7 1.7 0 0 0-1.6-.7zm13.2-5.7h3v4.7h.2a3.8 3.8 0 0 1 1.3-.9 4.8 4.8 0 0 1 1.8-.4 3.9 3.9 0 0 1 3.2 1.4 6.3 6.3 0 0 1 1.1 4.1 6.8 6.8 0 0 1-.4 2.6 4 4 0 0 1-1.1 1.9 6.2 6.2 0 0 1-1.9 1.2 6.1 6.1 0 0 1-2.4.4l-2.9-.2-1.9-.5zm3 12.2l.9.3h1q2.7 0 2.7-3.6a4.6 4.6 0 0 0-.5-2.3 2.1 2.1 0 0 0-1.7-.8 2.5 2.5 0 0 0-1.6.4 4.1 4.1 0 0 0-.8 1.3zm19.5 1.5a7.5 7.5 0 0 1-2 1 10.9 10.9 0 0 1-2.6.4 5.4 5.4 0 0 1-4.2-1.6 6.3 6.3 0 0 1-1.3-4.3 5.8 5.8 0 0 1 1.5-4.3 5.7 5.7 0 0 1 4.2-1.5l1.7.2a4.8 4.8 0 0 1 1.6.8 4.7 4.7 0 0 1 1.1 1.3 6.7 6.7 0 0 1 .4 2.2c0 .3-.1.6-.1 1a5.2 5.2 0 0 1-.2 1.1h-7.3a3.3 3.3 0 0 0 .8 2.1 3.8 3.8 0 0 0 2.4.6 5.5 5.5 0 0 0 1.8-.2l1.2-.6zm-4.4-8a2.4 2.4 0 0 0-2 .7 3.6 3.6 0 0 0-.7 1.8h4.7a2.1 2.1 0 0 0-.4-1.8 1.8 1.8 0 0 0-1.6-.7zm16.7 8a6.7 6.7 0 0 1-1.9 1 11 11 0 0 1-2.7.4 5.2 5.2 0 0 1-4.1-1.6 6.3 6.3 0 0 1-1.3-4.3 6.2 6.2 0 0 1 1.4-4.3 5.7 5.7 0 0 1 4.2-1.5l1.8.2a3.6 3.6 0 0 1 1.5.8 3.5 3.5 0 0 1 1.1 1.3 4.8 4.8 0 0 1 .4 2.2v1c-.1.3-.1.7-.2 1.1h-7.4a3.4 3.4 0 0 0 .9 2.1 3.3 3.3 0 0 0 2.3.6 5 5 0 0 0 1.8-.2l1.2-.6zm-4.4-8a2.2 2.2 0 0 0-1.9.7 3.7 3.7 0 0 0-.8 1.8h4.8a3 3 0 0 0-.4-1.8 1.9 1.9 0 0 0-1.7-.7zm7.4 6.2l.7.3.9.3.9.2h.9a2.2 2.2 0 0 0 1.2-.2c.3-.1.4-.4.4-.8s-.2-.6-.6-.8l-1.3-.5-1.2-.4a2.7 2.7 0 0 1-1.2-.6 2.2 2.2 0 0 1-.9-1 3.8 3.8 0 0 1-.3-1.6 3 3 0 0 1 1-2.5 4.5 4.5 0 0 1 3-.9l2.3.2 1.8.5-.6 2.3-1.4-.5-1.7-.2-1.1.2a.8.8 0 0 0-.4.8.7.7 0 0 0 .6.7l1.3.5 1.2.4a2.3 2.3 0 0 1 1.2.6 2.2 2.2 0 0 1 .9 1 3.9 3.9 0 0 1-.8 4.2 5.5 5.5 0 0 1-3.4 1 9.3 9.3 0 0 1-2.4-.3 4.3 4.3 0 0 1-1.7-.6zm14.8-8.2h1.7v-.7a4.1 4.1 0 0 1 .3-1.6 1.8 1.8 0 0 1 .8-.9 2.4 2.4 0 0 1 1.1-.6h3.2a3.5 3.5 0 0 1 1.4.3l-.6 2.3-.9-.3h-.9a1.2 1.2 0 0 0-1.5 1.5h2.7v2.5h-2.7v8.5h-2.9v-8.5h-1.7zm15.5 2.7l-1.3-.2a2.4 2.4 0 0 0-1.5.4 2.1 2.1 0 0 0-.8 1.1v7h-2.9v-11h2.3l.3 1.5h.3a2.8 2.8 0 0 1 1.1-1.3 2.9 2.9 0 0 1 1.6-.4 3.2 3.2 0 0 1 1.3.2zm1.4 2.8a5.6 5.6 0 0 1 1.4-4.2 5.3 5.3 0 0 1 4.1-1.6 6.2 6.2 0 0 1 2.5.4 3.7 3.7 0 0 1 1.7 1.3 4.2 4.2 0 0 1 1.1 1.8 8.5 8.5 0 0 1 .3 2.3 10.1 10.1 0 0 1-.3 2.5 7.8 7.8 0 0 1-1.1 1.8 5.7 5.7 0 0 1-1.8 1.2 8.6 8.6 0 0 1-2.4.4 6 6 0 0 1-2.4-.5 5.7 5.7 0 0 1-1.8-1.2 5.7 5.7 0 0 1-1-1.9 8 8 0 0 1-.3-2.3zm3 0a5.3 5.3 0 0 0 .1 1.3 3.7 3.7 0 0 0 .5 1.1 2.7 2.7 0 0 0 .8.7 2 2 0 0 0 1.1.3c1.8 0 2.6-1.1 2.6-3.4a5.3 5.3 0 0 0-.1-1.3 3.7 3.7 0 0 0-.5-1.1 1.9 1.9 0 0 0-.8-.7 2.2 2.2 0 0 0-1.2-.2 2.1 2.1 0 0 0-1.8.8 3.4 3.4 0 0 0-.7 2.5zm17.4 5.5v-5.7a6.3 6.3 0 0 0-.3-2.3c-.2-.5-.7-.7-1.4-.7a2 2 0 0 0-1.4.4 2.5 2.5 0 0 0-.8 1.2v7.1h-3v-11h2.3l.3 1.5h.3l.6-.6a2.1 2.1 0 0 1 .8-.6l1-.4 1.2-.2a3.8 3.8 0 0 1 1.9.5 3.3 3.3 0 0 1 1.1 1.6 4.3 4.3 0 0 1 1.5-1.5 3.6 3.6 0 0 1 2-.6l1.8.2 1.1.8a3.4 3.4 0 0 1 .6 1.6 8.2 8.2 0 0 1 .2 2.4v6.3h-2.9V106a4.9 4.9 0 0 0-.1-1.2 2.9 2.9 0 0 0-.2-.9l-.5-.5-1-.2a2.1 2.1 0 0 0-2.1 1.7v7zM21.6 126.1h1.7v-1.5l2.9-.8v2.3h3v2.5h-3v3.8a4.4 4.4 0 0 0 .3 1.9.9.9 0 0 0 1 .6h.8l.7-.2.6 2.2-1.5.5-1.7.2a3.3 3.3 0 0 1-2.4-.8 3.8 3.8 0 0 1-.7-2.6v-5.5h-1.7zm17.2 11v-6a3.7 3.7 0 0 0-.4-2.1 1.8 1.8 0 0 0-1.6-.6 2.7 2.7 0 0 0-1.5.5 3.1 3.1 0 0 0-1 1.5v6.7h-2.9v-14.7h2.9v5.1h.3a4.1 4.1 0 0 1 1.4-1.2 4.8 4.8 0 0 1 2.2-.5l1.5.2a2.5 2.5 0 0 1 1.2.8 2.6 2.6 0 0 1 .6 1.4 6.9 6.9 0 0 1 .3 2.2v6.7zm15.4-1a5.6 5.6 0 0 1-1.9 1 10.9 10.9 0 0 1-2.6.4 5.4 5.4 0 0 1-4.2-1.6 6.3 6.3 0 0 1-1.3-4.3 5.8 5.8 0 0 1 1.5-4.3 5.7 5.7 0 0 1 4.2-1.5l1.7.2a3.6 3.6 0 0 1 1.5.8 3.5 3.5 0 0 1 1.1 1.3 4.8 4.8 0 0 1 .4 2.2v1c-.1.3-.1.7-.2 1.1H47a3.4 3.4 0 0 0 .9 2.1 3.5 3.5 0 0 0 2.3.6 5 5 0 0 0 1.8-.2l1.2-.6zm-4.4-8a2.4 2.4 0 0 0-1.9.7 2.9 2.9 0 0 0-.7 1.8h4.7a2.4 2.4 0 0 0-.4-1.8 1.9 1.9 0 0 0-1.7-.7zm20.5-3.2h-2.9a.7.7 0 0 0-.6.3.5.5 0 0 0-.2.4 1.3 1.3 0 0 0-.1.6h2.4v2.5h-2.4v8.5h-2.9v-8.5h-1.7v-2.5h1.7v-.3a6.8 6.8 0 0 1 .2-1.5 2.3 2.3 0 0 1 .8-1.1 2.6 2.6 0 0 1 1.5-.7 7.5 7.5 0 0 1 2.3-.3h4.9V133a3.7 3.7 0 0 0 .2 1.2 1.2 1.2 0 0 0 .8.4h1.2l.3 2.2-1.2.4-1.5.2a2.8 2.8 0 0 1-2-.6 2.3 2.3 0 0 1-.8-1.9zm6.4 6.7a6.1 6.1 0 0 1 1.4-4.2 5.4 5.4 0 0 1 4.2-1.6 6.1 6.1 0 0 1 2.4.4 4.6 4.6 0 0 1 1.8 1.3 5.2 5.2 0 0 1 1 1.8 8.5 8.5 0 0 1 .4 2.3 10.1 10.1 0 0 1-.4 2.5 5.4 5.4 0 0 1-1.1 1.8 5.7 5.7 0 0 1-1.8 1.2 8.5 8.5 0 0 1-2.3.4 6.2 6.2 0 0 1-2.5-.5 5.7 5.7 0 0 1-1.8-1.2 5.7 5.7 0 0 1-1-1.9 8 8 0 0 1-.3-2.3zm3 0a5.1 5.1 0 0 0 .2 1.3 2.1 2.1 0 0 0 .4 1.1 2.7 2.7 0 0 0 .8.7 2.1 2.1 0 0 0 1.2.3c1.7 0 2.5-1.1 2.5-3.4a5.3 5.3 0 0 0-.1-1.3 2.2 2.2 0 0 0-.5-1.1l-.7-.7a2.5 2.5 0 0 0-1.2-.2 2.1 2.1 0 0 0-1.9.8 3.4 3.4 0 0 0-.7 2.5zm18.9-5.5c.3.9.7 1.9 1.1 2.8s.7 1.9 1.1 2.8l.4 1.8h.3l.3-1.8c.3-1 .5-1.9.8-2.8s.5-1.8.8-2.8h2.7l-3.8 11.1h-2.1q-.6-1.3-1.2-3a23.4 23.4 0 0 1-1.2-3l-.3-1.5h-.4l-.2.8c0 .2-.1.5-.1.7l-2.3 6h-2.2l-3.9-11.1h3.2l1.8 5.5.3 2h.3l.4-2.1 2-5.4zm18 10a6.7 6.7 0 0 1-1.9 1 11 11 0 0 1-2.7.4 5.3 5.3 0 0 1-4.1-1.6 6.3 6.3 0 0 1-1.3-4.3 5.8 5.8 0 0 1 1.5-4.3 5.4 5.4 0 0 1 4.2-1.5l1.7.2a3.6 3.6 0 0 1 1.5.8 3.5 3.5 0 0 1 1.1 1.3 4.8 4.8 0 0 1 .4 2.2v1c-.1.3-.1.7-.2 1.1h-7.4a3.4 3.4 0 0 0 .9 2.1 3.5 3.5 0 0 0 2.3.6 5 5 0 0 0 1.8-.2l1.2-.6zm-4.4-8a2.2 2.2 0 0 0-1.9.7 3.7 3.7 0 0 0-.8 1.8h4.8a3 3 0 0 0-.4-1.8 1.9 1.9 0 0 0-1.7-.7zm14 .7l-1.3-.2a2.4 2.4 0 0 0-1.5.4 2.1 2.1 0 0 0-.8 1.1v7h-2.9v-11h2.3l.3 1.5h.3a2.8 2.8 0 0 1 1.1-1.3 2.9 2.9 0 0 1 1.6-.4 3.2 3.2 0 0 1 1.3.2zm2 5.5l.7.3.8.3.9.2h1a1.8 1.8 0 0 0 1.1-.2c.3-.1.4-.4.4-.8a.9.9 0 0 0-.5-.8l-1.4-.5-1.2-.4a3.4 3.4 0 0 1-1.2-.6 3.4 3.4 0 0 1-1.2-2.6 3 3 0 0 1 1-2.5 4.5 4.5 0 0 1 3-.9l2.4.2 1.7.5-.6 2.3-1.4-.5-1.7-.2-1.1.2a1 1 0 0 0-.4.8.7.7 0 0 0 .6.7l1.4.5 1.2.4a2.4 2.4 0 0 1 1.1.6 2.2 2.2 0 0 1 .9 1 2.4 2.4 0 0 1 .4 1.5 3.4 3.4 0 0 1-1.2 2.7 5.3 5.3 0 0 1-3.4 1 8.5 8.5 0 0 1-2.3-.3 4.8 4.8 0 0 1-1.8-.6z"/></g></svg>