<svg xmlns="http://www.w3.org/2000/svg" width="161" height="184.6" viewBox="0 0 161 184.6"><g id="Layer_9"><path fill="#fadb94" d="M160.4 46.1L80.5 0 .6 46.1v92.3l79.9 46.2 79.9-46.2V46.1z"/><path fill="#fff" d="M56.9 59l23.5-14.5L105.7 59l3.3 14.5L80.4 59 52 73.5z"/><path fill="#fff" d="M52 80.9l28.4-14.4L109 80.9v14.5L80.4 80.9 52 95.4z"/><path fill="#fff" d="M80.4 88.1L52 102.5v37.6h16.5c.2-8 1.8-26.2 13.6-26.2s12.8 18.2 13 26.2H109v-37.6z"/><path fill="#4c4a4b" d="M160.4 46.1L80.5 0 .6 46.1v92.3l79.9 46.2 79.9-46.2V46.1z" opacity=".85"/><path fill="#fff" d="M20.5 57.5a2.7 2.7 0 0 0 1.3-.2l.9-.4a3.5 3.5 0 0 0 .5-.8 1.1 1.1 0 0 0 .2-.8 1.8 1.8 0 0 0-.8-1.7 3.9 3.9 0 0 0-2.4-.5h-1.7v-1.6l2.7-3.3 1.4-1-1.9.2h-3.8V45h8.8v1.6l-3.2 3.8-1 .6h1a3.2 3.2 0 0 1 1.4.3 5.7 5.7 0 0 1 1.3.8 5.7 5.7 0 0 1 .8 1.3 4.7 4.7 0 0 1 .4 1.7 5.1 5.1 0 0 1-.5 2.2 4.4 4.4 0 0 1-1.2 1.5 5.6 5.6 0 0 1-1.9.9 7.8 7.8 0 0 1-2.2.3h-2.1l-.9-.2-.8-.3.8-2.4 1.3.4a4.1 4.1 0 0 0 1.6 0zm8.1.8a1.7 1.7 0 0 1 .5-1.3 2.1 2.1 0 0 1 1.4-.4 1.8 1.8 0 0 1 1.3.4 1.7 1.7 0 0 1 .5 1.3 1.7 1.7 0 0 1-.5 1.2 1.8 1.8 0 0 1-1.3.4 2.1 2.1 0 0 1-1.4-.4 1.7 1.7 0 0 1-.5-1.2zm21-10.6h-4.7v12h-3.1v-12h-4.7V45h12.5zm9.2 12v-6.1a3.4 3.4 0 0 0-.5-2 1.8 1.8 0 0 0-1.6-.6 2.3 2.3 0 0 0-1.5.5 1.9 1.9 0 0 0-.9 1.4v6.8h-3V45h3v5h.2a5.3 5.3 0 0 1 1.4-1.2 4.8 4.8 0 0 1 2.2-.5 4.1 4.1 0 0 1 1.6.3 2.6 2.6 0 0 1 1.1.7 5.2 5.2 0 0 1 .7 1.5 11.8 11.8 0 0 1 .2 2.2v6.7zm15.3-1a5.6 5.6 0 0 1-1.9.9 7.5 7.5 0 0 1-2.6.4 5.4 5.4 0 0 1-4.2-1.5 6.5 6.5 0 0 1-1.3-4.3 6 6 0 0 1 1.5-4.4 5.7 5.7 0 0 1 4.2-1.5 5.1 5.1 0 0 1 1.7.3 4.6 4.6 0 0 1 1.6.7 3 3 0 0 1 1 1.4 4.6 4.6 0 0 1 .4 2.1v1a4.3 4.3 0 0 1-.2 1.1H67a2.6 2.6 0 0 0 .8 2.1 3.3 3.3 0 0 0 2.4.7 4.7 4.7 0 0 0 1.7-.3 3.3 3.3 0 0 0 1.2-.6zm-4.4-8a2.4 2.4 0 0 0-1.9.7 2.5 2.5 0 0 0-.7 1.8h4.7a2.8 2.8 0 0 0-.4-1.9 2.1 2.1 0 0 0-1.7-.6zm20.7 9v-6.1a3.5 3.5 0 0 0-.4-2 1.8 1.8 0 0 0-1.6-.6 2.4 2.4 0 0 0-1.6.5 2.5 2.5 0 0 0-.9 1.3v6.9H83v-11h2.3l.3 1.5h.3a6.4 6.4 0 0 1 1.5-1.3 4.6 4.6 0 0 1 3.9-.3 2.1 2.1 0 0 1 1.1.7 3.5 3.5 0 0 1 .7 1.5 6.9 6.9 0 0 1 .3 2.2v6.7zm15.4-1a6.7 6.7 0 0 1-1.9.9 7.7 7.7 0 0 1-2.7.4 5.1 5.1 0 0 1-4.1-1.5 6.5 6.5 0 0 1-1.3-4.3 6.4 6.4 0 0 1 1.4-4.4 6.3 6.3 0 0 1 6-1.2 3.5 3.5 0 0 1 1.5.7 3.1 3.1 0 0 1 1.1 1.4 4.6 4.6 0 0 1 .4 2.1v1c-.1.4-.1.7-.2 1.1h-7.4a2.9 2.9 0 0 0 .9 2.1 2.9 2.9 0 0 0 2.3.7 4.8 4.8 0 0 0 1.8-.3l1.2-.6zm-4.4-8a2.2 2.2 0 0 0-1.9.7 3 3 0 0 0-.8 1.8h4.8a3.6 3.6 0 0 0-.4-1.9 2.2 2.2 0 0 0-1.7-.6zm15.7 8.3a7.5 7.5 0 0 1-1.8.8l-2 .2a5.5 5.5 0 0 1-2.4-.4 4 4 0 0 1-1.6-1.2 4.8 4.8 0 0 1-.9-1.9 8 8 0 0 1-.3-2.3 6.3 6.3 0 0 1 1.4-4.3 5 5 0 0 1 3.9-1.6l2.1.2 1.4.6-.7 2.3a4.5 4.5 0 0 0-1.1-.3h-1.2a2.8 2.8 0 0 0-2.1.7 4.1 4.1 0 0 0-.7 2.5 4.3 4.3 0 0 0 .2 1.2 3.7 3.7 0 0 0 .5 1.1l.9.6a2.8 2.8 0 0 0 1.3.3l1.4-.2 1-.4zm.8-10.3h1.7v-1.5l2.9-.8v2.3h3v2.4h-3v3.8a4.1 4.1 0 0 0 .3 1.9.9.9 0 0 0 1 .6h.8l.7-.2.7 2.2-1.6.5a5 5 0 0 1-1.7.2 2.9 2.9 0 0 1-2.4-.8 3.7 3.7 0 0 1-.7-2.6v-5.6h-1.7zm9.7.7a10.5 10.5 0 0 1 2.3-.7 14.2 14.2 0 0 1 2.9-.2 5.5 5.5 0 0 1 1.9.2 4.1 4.1 0 0 1 1.3.8 3.1 3.1 0 0 1 .6 1.3 3.9 3.9 0 0 1 .2 1.6 14.8 14.8 0 0 1-.1 2.1v2.2a8.6 8.6 0 0 0 .1 1.6 7 7 0 0 0 .3 1.4h-2.4l-.5-1.6h-.2a4.1 4.1 0 0 1-1.4 1.2 3.8 3.8 0 0 1-2.2.6 3.2 3.2 0 0 1-1.4-.3 2.3 2.3 0 0 1-1.2-.6 4.1 4.1 0 0 1-.7-1.1 2.4 2.4 0 0 1-.3-1.2 3.6 3.6 0 0 1 1.3-2.9 6.4 6.4 0 0 1 3.8-.9h2v-.7c0-.6-.1-1-.4-1.2s-.7-.4-1.5-.4l-1.9.2-1.7.6zm3.9 8.1a2 2 0 0 0 1.5-.5 3.8 3.8 0 0 0 .9-.9v-1.3h-1.8a2.7 2.7 0 0 0-1.7.4 1 1 0 0 0-.5 1 1.2 1.2 0 0 0 .4 1.1 1.6 1.6 0 0 0 1.2.2zm14.9-6.1a3.1 3.1 0 0 0-1.3-.3 2.5 2.5 0 0 0-1.5.5 1.8 1.8 0 0 0-.8 1.1v7h-2.9v-11h2.3l.3 1.5h.3a2.8 2.8 0 0 1 1.1-1.3 3 3 0 0 1 1.6-.5l1.3.2zM10.2 71.5a1.4 1.4 0 0 1 .5-1.1 2 2 0 0 1 1.4-.5 2.2 2.2 0 0 1 1.4.5 1.6 1.6 0 0 1 .5 1.1 1.4 1.4 0 0 1-.5 1 2.2 2.2 0 0 1-1.4.5 2 2 0 0 1-1.4-.5 1.4 1.4 0 0 1-.5-1zm.4 2.4h3v11h-3zm6.3 8.1l.7.3.8.3 1 .2h.9l1.2-.2a1.3 1.3 0 0 0 .4-.9.7.7 0 0 0-.6-.7l-1.3-.4-1.2-.4-1.2-.6a2.4 2.4 0 0 1-.9-1.1 3.3 3.3 0 0 1-.3-1.5 3.1 3.1 0 0 1 1-2.6 4.4 4.4 0 0 1 2.9-.9 8.8 8.8 0 0 1 2.4.3l1.8.5-.6 2.2-1.4-.4a5.5 5.5 0 0 0-1.8-.2 1.5 1.5 0 0 0-1 .2.7.7 0 0 0-.4.7c0 .4.2.6.6.8l1.3.4 1.2.4 1.2.6a4.3 4.3 0 0 1 .9 1 3.3 3.3 0 0 1 .3 1.5 3.4 3.4 0 0 1-1.1 2.7 5 5 0 0 1-3.5 1l-2.3-.2a5.4 5.4 0 0 1-1.7-.7zm14.6-8.1h1.7v-1.5l3-.8v2.3h2.9v2.4h-2.9v3.8a4.5 4.5 0 0 0 .2 1.9 1.1 1.1 0 0 0 1.1.6h.8l.7-.2.6 2.2-1.5.5a5.2 5.2 0 0 1-1.7.2 2.9 2.9 0 0 1-2.4-.8 3.7 3.7 0 0 1-.8-2.6v-5.6h-1.7zm16.4 2.7a3.1 3.1 0 0 0-1.3-.3 2.5 2.5 0 0 0-1.5.5 1.8 1.8 0 0 0-.8 1.1v7h-2.9v-11h2.3l.3 1.5h.3a2.4 2.4 0 0 1 1.1-1.3 3 3 0 0 1 1.6-.5l1.3.2zm1.9-2a10.5 10.5 0 0 1 2.3-.7 13.7 13.7 0 0 1 2.9-.2 5.5 5.5 0 0 1 1.9.2 3.6 3.6 0 0 1 1.2.8 2.4 2.4 0 0 1 .7 1.3 7 7 0 0 1 .2 1.6 14.8 14.8 0 0 1-.1 2.1c0 .7-.1 1.4-.1 2.2s.1 1.1.1 1.6a7.4 7.4 0 0 0 .4 1.4h-2.4l-.5-1.6h-.2a5.3 5.3 0 0 1-1.4 1.2 3.8 3.8 0 0 1-2.2.6 4 4 0 0 1-1.5-.3 2.4 2.4 0 0 1-1.1-.6 2.6 2.6 0 0 1-.7-1.1 2.4 2.4 0 0 1-.3-1.2 3.4 3.4 0 0 1 1.3-2.9 6.4 6.4 0 0 1 3.8-.9H56a2 2 0 0 0 .1-.7c0-.6-.1-1-.4-1.2a2.1 2.1 0 0 0-1.5-.4l-1.9.2-1.7.6zm3.8 8.1a2.1 2.1 0 0 0 1.6-.5 3.8 3.8 0 0 0 .9-.9V80h-1.8a2.5 2.5 0 0 0-1.7.4 1.1 1.1 0 0 0-.6 1 1.3 1.3 0 0 0 .5 1.1 1.4 1.4 0 0 0 1.1.2zm15.9 2.2v-6.1a3.4 3.4 0 0 0-.5-2 1.6 1.6 0 0 0-1.5-.6 2.2 2.2 0 0 0-1.6.5A1.8 1.8 0 0 0 65 78v6.9h-2.9v-11h2.3l.3 1.5h.3a5.8 5.8 0 0 1 1.4-1.3 4.3 4.3 0 0 1 2.4-.6 4.1 4.1 0 0 1 1.6.3 2.6 2.6 0 0 1 1.1.7 5.2 5.2 0 0 1 .7 1.5 12.7 12.7 0 0 1 .2 2.2v6.7zm5.9-2.9l.7.3.9.3.9.2h.9l1.2-.2a1.3 1.3 0 0 0 .4-.9.7.7 0 0 0-.6-.7l-1.3-.5-1.2-.4-1.2-.6a2.4 2.4 0 0 1-.9-1.1 3.3 3.3 0 0 1-.3-1.5 3.1 3.1 0 0 1 1-2.6 4.5 4.5 0 0 1 3-.9 8.5 8.5 0 0 1 2.3.3l1.8.5-.6 2.2-1.4-.3a5.2 5.2 0 0 0-1.7-.2c-.5 0-.9 0-1.1.2a.7.7 0 0 0-.4.7c0 .4.2.6.6.8l1.3.4 1.2.4 1.2.6a4.3 4.3 0 0 1 .9 1 3.3 3.3 0 0 1 .3 1.5 3.4 3.4 0 0 1-1.1 2.7 5 5 0 0 1-3.5 1l-2.3-.2a5.4 5.4 0 0 1-1.7-.7zm10.2-8.1h2.1l.4 1.3h.2a3.5 3.5 0 0 1 1.5-1.2 4.6 4.6 0 0 1 2-.5 4.3 4.3 0 0 1 3.4 1.4 6.8 6.8 0 0 1 1.1 4.2 6.6 6.6 0 0 1-.4 2.5 6.3 6.3 0 0 1-1 2 6.6 6.6 0 0 1-1.7 1.2 6.1 6.1 0 0 1-2.4.4h-1.2l-1.1-.4v4.4h-2.9zm5.3 2.1a2.3 2.3 0 0 0-1.5.5 2.4 2.4 0 0 0-.9 1.4v4.2l.8.5 1.1.2a2.7 2.7 0 0 0 2.2-.9 5.4 5.4 0 0 0 .7-2.9 3.8 3.8 0 0 0-.6-2.2 1.9 1.9 0 0 0-1.8-.8zm7.1 3.4a5.9 5.9 0 0 1 1.5-4.3 5.5 5.5 0 0 1 4.1-1.6 6.2 6.2 0 0 1 2.5.5 4.3 4.3 0 0 1 1.7 1.2 5.9 5.9 0 0 1 1.1 1.9 8 8 0 0 1 .3 2.3 6.1 6.1 0 0 1-.4 2.4 5.2 5.2 0 0 1-1.1 1.9 4.2 4.2 0 0 1-1.7 1.1 7.4 7.4 0 0 1-4.8 0 4.6 4.6 0 0 1-1.8-1.3 4 4 0 0 1-1-1.8 8.5 8.5 0 0 1-.4-2.3zm3.1 0a5.7 5.7 0 0 0 .1 1.3 3.1 3.1 0 0 0 .5 1 1.6 1.6 0 0 0 .8.8 2 2 0 0 0 1.1.2c1.7 0 2.6-1.1 2.6-3.3 0-.5-.1-1-.1-1.4a3.1 3.1 0 0 0-.5-1 1.8 1.8 0 0 0-.8-.7 2.1 2.1 0 0 0-1.2-.3 2.2 2.2 0 0 0-1.8.8 3.7 3.7 0 0 0-.7 2.6zm17-2.8l-1.2-.3a2.5 2.5 0 0 0-1.6.5 1.6 1.6 0 0 0-.7 1.1v7h-3v-11h2.3l.3 1.5h.3a3.6 3.6 0 0 1 1.1-1.3 3 3 0 0 1 1.6-.5l1.3.2zm1.4-2.7h1.7v-1.5l2.9-.8v2.3h3v2.4h-3v3.8a4.1 4.1 0 0 0 .3 1.9 1 1 0 0 0 1 .6h.9l.7-.2.6 2.2-1.6.4a4.4 4.4 0 0 1-1.6.2 2.9 2.9 0 0 1-2.4-.8 3.7 3.7 0 0 1-.8-2.6v-5.5h-1.7zm19.2 10a9 9 0 0 1-4.6 1.3 5.4 5.4 0 0 1-4.2-1.5 6.5 6.5 0 0 1-1.3-4.3 6 6 0 0 1 1.5-4.4 5.7 5.7 0 0 1 4.2-1.5 4.7 4.7 0 0 1 1.7.3 4.6 4.6 0 0 1 1.6.7 3 3 0 0 1 1 1.4 4.6 4.6 0 0 1 .5 2.1c0 .3-.1.7-.1 1a4.3 4.3 0 0 1-.2 1.1h-7.3a2.6 2.6 0 0 0 .8 2.1 3.3 3.3 0 0 0 2.4.7 4.7 4.7 0 0 0 1.7-.3l1.3-.6zm-4.5-8a2.4 2.4 0 0 0-1.9.7 3 3 0 0 0-.7 1.8h4.7a2.8 2.8 0 0 0-.4-1.9 2.1 2.1 0 0 0-1.7-.6zm17.5 5.1a12.8 12.8 0 0 0 .1 1.9 7.1 7.1 0 0 0 .2 2h-2.1l-.4-1.5h-.3a3.5 3.5 0 0 1-1.4 1.3 4.3 4.3 0 0 1-2.1.5 4.3 4.3 0 0 1-3.4-1.4 6.2 6.2 0 0 1-1.2-4.2 9.5 9.5 0 0 1 .3-2.5 6.7 6.7 0 0 1 1-1.9 6.6 6.6 0 0 1 1.7-1.2 6.1 6.1 0 0 1 2.4-.4h1.2l1.1.3v-3.7h2.9zm-5.2 1.7a2.1 2.1 0 0 0 2.3-1.7v-4.4l-.8-.4-1.1-.2a2.6 2.6 0 0 0-2.1.8 4.4 4.4 0 0 0-.7 2.9 3.8 3.8 0 0 0 .6 2.2 1.9 1.9 0 0 0 1.8.8zM25.6 95.4h2.9v4.6h.3a2.5 2.5 0 0 1 1.3-.9 4.7 4.7 0 0 1 1.7-.3 4.2 4.2 0 0 1 3.3 1.4 6.7 6.7 0 0 1 1.1 4.1 7.5 7.5 0 0 1-.4 2.6 7.6 7.6 0 0 1-1.2 1.9 5.7 5.7 0 0 1-1.8 1.2 10.1 10.1 0 0 1-2.5.4 12 12 0 0 1-2.8-.3 6.4 6.4 0 0 1-1.9-.5zm2.9 12.2l.9.3h1c1.9 0 2.8-1.2 2.8-3.6a3.9 3.9 0 0 0-.6-2.3 2 2 0 0 0-1.7-.8 2.5 2.5 0 0 0-1.5.5 2.5 2.5 0 0 0-.9 1.3zm10-7.8a10.5 10.5 0 0 1 2.3-.7 13.2 13.2 0 0 1 2.8-.2 5.9 5.9 0 0 1 2 .2 3.6 3.6 0 0 1 1.2.8 3.3 3.3 0 0 1 .7 1.3 7 7 0 0 1 .2 1.6 14.8 14.8 0 0 1-.1 2.1c0 .7-.1 1.4-.1 2.2s.1 1.1.1 1.6a7.4 7.4 0 0 0 .4 1.4h-2.4l-.5-1.6h-.3a3.7 3.7 0 0 1-1.3 1.2 3.8 3.8 0 0 1-2.2.6 4 4 0 0 1-1.5-.3 2.4 2.4 0 0 1-1.1-.6 2.6 2.6 0 0 1-.7-1.1 2.4 2.4 0 0 1-.3-1.2 3.4 3.4 0 0 1 1.3-2.9 6.1 6.1 0 0 1 3.7-.9h2a2 2 0 0 0 .1-.7c0-.6-.1-1-.4-1.2a2.1 2.1 0 0 0-1.5-.4l-2 .2-1.6.6zm3.8 8.1a2.1 2.1 0 0 0 1.6-.5l.9-.9v-1.3H43a2.5 2.5 0 0 0-1.7.4 1.1 1.1 0 0 0-.6 1 1.3 1.3 0 0 0 .5 1.1 1.2 1.2 0 0 0 1.1.2zm16.8 1.5a7.5 7.5 0 0 1-1.8.8l-2 .2a5.5 5.5 0 0 1-2.4-.4 4 4 0 0 1-1.6-1.2 4.8 4.8 0 0 1-.9-1.9 8 8 0 0 1-.3-2.3 6.3 6.3 0 0 1 1.4-4.3 5 5 0 0 1 3.9-1.6l2.1.2 1.4.6-.7 2.3a4.5 4.5 0 0 0-1.1-.3h-1.2a2.8 2.8 0 0 0-2.1.7 4.1 4.1 0 0 0-.7 2.5 4.3 4.3 0 0 0 .2 1.2 3.7 3.7 0 0 0 .5 1.1 4.7 4.7 0 0 0 .9.6 2.8 2.8 0 0 0 1.3.3l1.4-.2 1-.4zm6.1-3.9h-1v4.6h-3V95.4h3v8.4l.9-.4 2.8-4.3h3.2l-2.8 4-1.3.9 1.4 1h-.1l3.3 5.1h-3.4zm11.6-6.4h1.7v-1.5l2.9-.8v2.3h3v2.4h-3v3.8a4.1 4.1 0 0 0 .3 1.9 1 1 0 0 0 1 .6h.8l.8-.2.6 2.2-1.6.5a5 5 0 0 1-1.7.2 2.9 2.9 0 0 1-2.4-.8 3.7 3.7 0 0 1-.7-2.6v-5.5h-1.7zm9.1 5.5a6.3 6.3 0 0 1 1.4-4.3 5.7 5.7 0 0 1 4.2-1.6 6 6 0 0 1 2.4.5 5.7 5.7 0 0 1 1.8 1.2 5.7 5.7 0 0 1 1 1.9 8 8 0 0 1 .3 2.3 8.8 8.8 0 0 1-.3 2.4 7.2 7.2 0 0 1-1.1 1.9 5.4 5.4 0 0 1-1.8 1.1 5.9 5.9 0 0 1-2.3.4 6.2 6.2 0 0 1-2.5-.4 4.6 4.6 0 0 1-1.8-1.3 5.2 5.2 0 0 1-1-1.8 8.5 8.5 0 0 1-.3-2.3zm3 0a5.7 5.7 0 0 0 .1 1.3 3.1 3.1 0 0 0 .5 1 2 2 0 0 0 .8.8 2.2 2.2 0 0 0 1.2.2c1.7 0 2.5-1.1 2.5-3.3a6.1 6.1 0 0 0-.1-1.4 3.1 3.1 0 0 0-.5-1 1.4 1.4 0 0 0-.8-.7 2 2 0 0 0-1.1-.3 2.4 2.4 0 0 0-1.9.8 3.7 3.7 0 0 0-.7 2.6zm15-5.5h1.7v-1.5l2.9-.8v2.3h3v2.4h-3v3.8a4.1 4.1 0 0 0 .3 1.9 1 1 0 0 0 1 .6h.8l.7-.2.7 2.2-1.6.5a5 5 0 0 1-1.7.2 2.9 2.9 0 0 1-2.4-.8 3.7 3.7 0 0 1-.7-2.6v-5.5h-1.7zm17.3 11V104a3.4 3.4 0 0 0-.5-2 1.8 1.8 0 0 0-1.6-.6 2.3 2.3 0 0 0-1.5.5 1.9 1.9 0 0 0-.9 1.4v6.8h-3V95.4h3v5h.2a5.3 5.3 0 0 1 1.4-1.2 4.8 4.8 0 0 1 2.2-.5 4.1 4.1 0 0 1 1.6.3 2.6 2.6 0 0 1 1.1.7 5.2 5.2 0 0 1 .7 1.5 11.8 11.8 0 0 1 .2 2.2v6.7zm15.3-1a5.6 5.6 0 0 1-1.9.9 7.5 7.5 0 0 1-2.6.4 5.4 5.4 0 0 1-4.2-1.5 6.5 6.5 0 0 1-1.3-4.3 6 6 0 0 1 1.5-4.4 5.7 5.7 0 0 1 4.2-1.5 5.1 5.1 0 0 1 1.7.3 4.6 4.6 0 0 1 1.6.7 3 3 0 0 1 1 1.4 4.6 4.6 0 0 1 .4 2.1v1a4.3 4.3 0 0 1-.2 1.1h-7.3a2.6 2.6 0 0 0 .8 2.1 3.3 3.3 0 0 0 2.4.7 4.7 4.7 0 0 0 1.7-.3 3.3 3.3 0 0 0 1.2-.6zm-4.4-8a2.4 2.4 0 0 0-1.9.7 2.5 2.5 0 0 0-.7 1.8h4.7a2.8 2.8 0 0 0-.4-1.9 2.1 2.1 0 0 0-1.7-.6zm-99.7 19.5h2.9v4.6h.3a2.7 2.7 0 0 1 1.2-.9 5.2 5.2 0 0 1 1.8-.3 3.9 3.9 0 0 1 3.2 1.4 6.1 6.1 0 0 1 1.2 4.1 10.9 10.9 0 0 1-.4 2.6 7.6 7.6 0 0 1-1.2 1.9 5.2 5.2 0 0 1-1.9 1.2 8.6 8.6 0 0 1-2.4.4 11.4 11.4 0 0 1-2.8-.3 5.6 5.6 0 0 1-1.9-.5zm2.9 12.2l.9.3h1q2.7 0 2.7-3.6a3.9 3.9 0 0 0-.5-2.3 2.1 2.1 0 0 0-1.7-.8 2.5 2.5 0 0 0-1.5.5 2.5 2.5 0 0 0-.9 1.3zm19.5 1.5a6.3 6.3 0 0 1-2 .9 7.5 7.5 0 0 1-2.6.4c-1.9 0-3.3-.5-4.1-1.5a6.5 6.5 0 0 1-1.4-4.3 6 6 0 0 1 1.5-4.4 6.3 6.3 0 0 1 6-1.2 5.1 5.1 0 0 1 1.5.7 4 4 0 0 1 1.1 1.4 6.5 6.5 0 0 1 .4 2.1 3.4 3.4 0 0 1-.1 1c0 .4-.1.7-.1 1.1h-7.4a3.4 3.4 0 0 0 .8 2.1 3.3 3.3 0 0 0 2.4.7 5.2 5.2 0 0 0 1.8-.3l1.2-.6zm-4.4-8a2.6 2.6 0 0 0-2 .7 3 3 0 0 0-.7 1.8h4.8a2.9 2.9 0 0 0-.5-1.9 2 2 0 0 0-1.6-.6zm16.7 8a5.6 5.6 0 0 1-1.9.9 7.5 7.5 0 0 1-2.6.4 5.4 5.4 0 0 1-4.2-1.5 6.5 6.5 0 0 1-1.3-4.3 6 6 0 0 1 1.5-4.4 5.7 5.7 0 0 1 4.2-1.5 5.1 5.1 0 0 1 1.7.3 3.5 3.5 0 0 1 1.5.7 2.6 2.6 0 0 1 1.1 1.4 4.6 4.6 0 0 1 .4 2.1v1c-.1.4-.1.7-.2 1.1H60a2.6 2.6 0 0 0 .8 2.1 3.2 3.2 0 0 0 2.3.7 4.8 4.8 0 0 0 1.8-.3l1.2-.6zm-4.4-8a2.4 2.4 0 0 0-1.9.7 2.5 2.5 0 0 0-.7 1.8h4.7a2.8 2.8 0 0 0-.4-1.9 2.2 2.2 0 0 0-1.7-.6zm6.8-5.7h2.6l-.8 4.6h-1.8zm3.5 11.8l.7.3.9.3.9.2h.9l1.2-.2a1 1 0 0 0 .4-.9.7.7 0 0 0-.6-.7l-1.3-.5-1.2-.4-1.2-.6a2.4 2.4 0 0 1-.9-1.1 3.3 3.3 0 0 1-.3-1.5 3.1 3.1 0 0 1 1-2.6 4.5 4.5 0 0 1 3-.9 8.5 8.5 0 0 1 2.3.3 6.5 6.5 0 0 1 1.8.5l-.6 2.2-1.4-.4a5.2 5.2 0 0 0-1.7-.2c-.5 0-.9 0-1.1.2a.7.7 0 0 0-.4.7c0 .4.2.6.6.8l1.3.4 1.2.4 1.2.6a2.8 2.8 0 0 1 .9 1 3.3 3.3 0 0 1 .3 1.5 3.1 3.1 0 0 1-1.1 2.7 4.9 4.9 0 0 1-3.4 1l-2.4-.2a5.4 5.4 0 0 1-1.7-.7zm23.4 2.9v-6.1a3.5 3.5 0 0 0-.4-2 1.8 1.8 0 0 0-1.6-.6 2.1 2.1 0 0 0-1.5.5 2.4 2.4 0 0 0-1 1.4v6.8H89v-14.7h2.9v5h.3a4.1 4.1 0 0 1 1.4-1.2 4.8 4.8 0 0 1 2.2-.5 3.3 3.3 0 0 1 1.5.3 2.4 2.4 0 0 1 1.2.7 3.4 3.4 0 0 1 .6 1.5 6.5 6.5 0 0 1 .3 2.2v6.7zm5.9-13.4a1.4 1.4 0 0 1 .5-1.1 2 2 0 0 1 1.4-.5 2.2 2.2 0 0 1 1.4.5 1.6 1.6 0 0 1 .5 1.1 1.4 1.4 0 0 1-.5 1 2.2 2.2 0 0 1-1.4.5 2 2 0 0 1-1.4-.5 1.4 1.4 0 0 1-.5-1zm.5 2.4h2.9v11h-2.9zm10.1 5.7l.5 1.7h.3l.3-1.8 2.1-5.6h3.2l-5.1 11.1h-1.7l-5.2-11.1h3.4zm16.9 4.3a6.3 6.3 0 0 1-2 .9 7.5 7.5 0 0 1-2.6.4 5.4 5.4 0 0 1-4.2-1.5 7.1 7.1 0 0 1-1.3-4.3 6 6 0 0 1 1.5-4.4 6.3 6.3 0 0 1 6-1.2 5.1 5.1 0 0 1 1.5.7 4 4 0 0 1 1.1 1.4 6.5 6.5 0 0 1 .4 2.1 3.4 3.4 0 0 1-.1 1 4.3 4.3 0 0 1-.2 1.1h-7.3a2.9 2.9 0 0 0 .8 2.1 3.3 3.3 0 0 0 2.4.7l1.8-.3 1.2-.6zm-4.4-8a2.6 2.6 0 0 0-2 .7 3 3 0 0 0-.7 1.8h4.7a2.4 2.4 0 0 0-.4-1.9 2 2 0 0 0-1.6-.6z"/></g></svg>