<?xml version="1.0" encoding="utf-8"?>
<!-- Generator: Adobe Illustrator 23.0.2, SVG Export Plug-In . SVG Version: 6.00 Build 0)  -->
<svg version="1.1" id="Layer_1" xmlns="http://www.w3.org/2000/svg" xmlns:xlink="http://www.w3.org/1999/xlink" x="0px" y="0px"
	 viewBox="0 0 161 182" style="enable-background:new 0 0 161 182;" xml:space="preserve">
<path d="M80.5,2.8L4.1,46.9v88.2l76.4,44.1l76.4-44.1V46.9L80.5,2.8z M110,138.1c-29.2,14.7-62.6,0-62.6,0L47,74.6
	c10.3,5.4,21.9,7.8,33.5,7v33.2c0,0,0.5,3,2.5,3c1.5,0.1,2.9-1,3-2.6c0-0.2,0-0.4,0-0.6l-0.2-33.4h0.4l2.6-0.4h0.3v21.6
	c0.1,1.4,1.2,2.5,2.6,2.5c1.5,0.2,2.8-0.9,3-2.4c0-0.1,0-0.1,0-0.2V79.6c5.3-1.1,10.4-2.8,15.3-5L110,138.1z M78.5,77.4
	C61.2,77.4,47,73.6,47,69s13.7-8.2,30.8-8.3c0-1.8,0.3-3.5,0.9-5.2l-1.2-1c0,0-6.5-6,6.5-15c1-1.1,1.7-2.3,2.1-3.7
	c0,0,10.9,18-4.6,20.4c-0.4,0.1-0.8,0-1.2-0.1c-0.5,1.5-1,3-1.3,4.6c17.2,0,31.1,3.8,31.1,8.3S95.9,77.4,78.5,77.4z"/>
</svg>
