<svg xmlns="http://www.w3.org/2000/svg" viewBox="0 0 161 182" width="161" height="182"><path d="M80.5 2.8L4.1 46.9v88.2l76.4 44.1 76.4-44.1V46.9L80.5 2.8zM110 138.1c-29.2 14.7-62.6 0-62.6 0L47 74.6c10.3 5.4 21.9 7.8 33.5 7v33.2s.5 3 2.5 3c1.5.1 2.9-1 3-2.6v-.6l-.2-33.4h.4l2.6-.4h.3v21.6c.1 1.4 1.2 2.5 2.6 2.5 1.5.2 2.8-.9 3-2.4V79.6c5.3-1.1 10.4-2.8 15.3-5v63.5zM78.5 77.4C61.2 77.4 47 73.6 47 69s13.7-8.2 30.8-8.3c0-1.8.3-3.5.9-5.2l-1.2-1s-6.5-6 6.5-15c1-1.1 1.7-2.3 2.1-3.7 0 0 10.9 18-4.6 20.4-.4.1-.8 0-1.2-.1-.5 1.5-1 3-1.3 4.6 17.2 0 31.1 3.8 31.1 8.3s-14.2 8.4-31.6 8.4z"/></svg>