<svg xmlns="http://www.w3.org/2000/svg"><symbol id="bee-2" viewBox="0 0 159.8 184.6"><g id="bee-2"><path fill="#fadb94" d="M159.8 46.1L79.9 0 0 46.1v92.3l79.9 46.2 79.9-46.2V46.1z"/><path fill="#fff" d="M37.5 77.6l24.7-14.4 25 14.4v28.7l-25 14.4-24.7-14.4z"/><path fill="#fff" d="M37.5 56.6l24.7-14.4 25 14.4V71l-25-14.4L37.5 71zM87.2 128l-25 14.3L37.5 128v-14.4L62.2 128l25-14.4zm5.5-50.3v12.8l47.7-12.8-24.8-14.5zm21 12.8l-21 5.1V107l26.7 12.1z"/></g></symbol><symbol id="cart" viewBox="0 0 115.7 82.2"><path fill="none" stroke="#fff" stroke-miterlimit="10" stroke-width="14" d="M84.6 20.1l-74.9.4 11.5 33.8 56.1.6L89 7h26.7"/><circle cx="26.2" cy="73.9" r="8.4" fill="#fff"/><circle cx="71.7" cy="73.9" r="8.4" fill="#fff"/></symbol><symbol id="close" viewBox="0 0 60.8 60.8"><path fill="none" stroke="#fff" stroke-miterlimit="10" stroke-width="14" d="M55.7 5.4L4.9 55.9m51-.2L5.4 4.9"/></symbol><symbol id="flower-1" viewBox="0 0 159.8 184.6"><path fill="#fadb94" d="M159.8 46.1L79.9 0 0 46.1v92.3l79.9 46.2 79.9-46.2V46.1z"/><path fill="#fff" d="M85.1 82.7l13.1-25.5L81 38.9 63.8 57.2l13.3 25.5a10.6 10.6 0 0 1 4-.8 11 11 0 0 1 4 .8zm36.4 7.7l8.7-25.7-27.7-2-12.7 23.5a10.7 10.7 0 0 1 2 3.8zM60 61.2l-28.2 2.3 8.5 26.9h30a12.2 12.2 0 0 1 2.8-5.1zm17.9 42.5l-12.6 24.2 17.2 18.3 17.3-18.3-13.1-25.3a10.8 10.8 0 0 1-5.6 1.6 11.3 11.3 0 0 1-3.2-.5zm25.3 18.7l29.1-2-10.1-25.7-30.2.4a12.6 12.6 0 0 1-1.5 3.8zM41 94.7l-9.2 26.9 28.9 2.3 12.5-23a11.8 11.8 0 0 1-3.1-6.2z"/></symbol><symbol id="hut-3" viewBox="0 0 161 184.6"><path fill="#fadb94" d="M160.4 46.1L80.5 0 .6 46.1v92.3l79.9 46.2 79.9-46.2V46.1z"/><path fill="#fff" d="M56.9 59l23.5-14.5L105.7 59l3.3 14.5L80.4 59 52 73.5z"/><path fill="#fff" d="M52 80.9l28.4-14.4L109 80.9v14.5L80.4 80.9 52 95.4z"/><path fill="#fff" d="M80.4 88.1L52 102.5v37.6h16.5c.2-8 1.8-26.2 13.6-26.2s12.8 18.2 13 26.2H109v-37.6z"/></symbol><symbol id="jar-4" viewBox="0 0 159.8 184.6"><path fill="#fadb94" d="M159.8 46.1L79.9 0 0 46.1v92.3l79.9 46.2 79.9-46.2V46.1z"/><path fill="#fff" d="M92.8 74.9h.8v25.3c-14 7.3-27.6 0-27.6 0V75.6a70.3 70.3 0 0 1-23.7-6.7l.4 63.6s35.7 13.9 74.8 0V68.9a121.4 121.4 0 0 1-24.7 6z"/><path fill="#fff" d="M42.3 57.8v6.6s33.5 15.8 75.2 0v-6.6s-38.9 18-75.2 0z"/><path fill="#fff" d="M42.3 54.1s33.7-18.4 73.7 0c0 0-35.8 15.8-73.7 0z"/></symbol><symbol id="shelf-4" viewBox="0 0 159.8 184.6"><path fill="#fadb94" d="M159.8 46.1L79.9 0 0 46.1v92.3l79.9 46.2 79.9-46.2V46.1z"/><path fill="#fff" d="M63.4 45.1v93.6l47.3-9.4v-77zm40.2 78l-33 6.6V53.8l33 4.4z"/><path fill="#fadb94" stroke="#fff" stroke-miterlimit="10" stroke-width="4.55" d="M55.1 42.2l.2 100.1"/><path fill="#fff" d="M75 123.2l24.5-4.1V63.2l-24.5-3v63z"/></symbol><symbol id="open" viewBox="0 0 71.6 65.5"><path fill="none" stroke="#fff" stroke-miterlimit="10" stroke-width="14" d="M71.6 7.2L0 7m71.6 25.8L0 32.6m71.6 25.9L0 58.3"/></symbol></svg>