<svg xmlns="http://www.w3.org/2000/svg"><symbol id="bee-2-text" viewBox="0 0 159.8 184.6"><g id="Layer_11"><path fill="#fadb94" d="M159.8 46.1L79.9 0 0 46.1v92.3l79.9 46.2 79.9-46.2V46.1z"/><path fill="#fff" d="M37.5 77.6l24.7-14.4 25 14.4v28.7l-25 14.4-24.7-14.4z"/><path fill="#fff" d="M37.5 56.6l24.7-14.4 25 14.4V71l-25-14.4L37.5 71zM87.2 128l-25 14.3L37.5 128v-14.4L62.2 128l25-14.4zm5.5-50.3v12.8l47.7-12.8-24.8-14.5zm21 12.8l-21 5.1V107l26.7 12.1z"/><path fill="#4c4a4b" d="M160 45.8L80.1-.3.2 45.8v92.3l79.9 46.1 79.9-46.1V45.8z" opacity=".85"/><path fill="#fff" d="M33 48.4a5.2 5.2 0 0 1-.4 2.1 10.6 10.6 0 0 1-1.1 2.1 24.3 24.3 0 0 1-1.4 2l-1.5 1.8-1.2.8L29 57h4.3v2.4h-9.6V58l1.3-1.3 1.3-1.4 1.4-1.6 1.2-1.7a11.9 11.9 0 0 0 .8-1.6A3.9 3.9 0 0 0 30 49a2.2 2.2 0 0 0-.5-1.4 2 2 0 0 0-1.6-.6 2.8 2.8 0 0 0-1.5.4 4 4 0 0 0-1.3.7L23.8 46a10.3 10.3 0 0 1 2.1-1.1 6.7 6.7 0 0 1 2.6-.5 4.8 4.8 0 0 1 1.8.3 5.2 5.2 0 0 1 1.5.7 6 6 0 0 1 .9 1.3 4.3 4.3 0 0 1 .3 1.7zm2.8 9.6a1.7 1.7 0 0 1 .5-1.2 2 2 0 0 1 1.3-.4 2.1 2.1 0 0 1 1.4.4 1.7 1.7 0 0 1 0 2.4 2.2 2.2 0 0 1-1.4.5 2.1 2.1 0 0 1-1.3-.5 1.7 1.7 0 0 1-.5-1.2zm20.9-10.5h-4.6v11.9H49V47.5h-4.7v-2.8h12.4zm9.2 11.9v-6a3.7 3.7 0 0 0-.4-2.1 1.8 1.8 0 0 0-1.6-.6 2.7 2.7 0 0 0-1.5.5 3.1 3.1 0 0 0-1 1.5v6.7h-2.9V44.7h2.9v5.1h.3a4.1 4.1 0 0 1 1.4-1.2 4.8 4.8 0 0 1 2.2-.5l1.5.2a2.5 2.5 0 0 1 1.2.8 2.6 2.6 0 0 1 .6 1.4 6.9 6.9 0 0 1 .3 2.2v6.7zm15.4-1a6.7 6.7 0 0 1-1.9 1 11 11 0 0 1-2.7.4 5.3 5.3 0 0 1-4.1-1.6 6.3 6.3 0 0 1-1.3-4.3 5.8 5.8 0 0 1 1.5-4.3 5.4 5.4 0 0 1 4.2-1.5l1.7.2a3.6 3.6 0 0 1 1.5.8 3.5 3.5 0 0 1 1.1 1.3 4.8 4.8 0 0 1 .4 2.2v1c-.1.3-.1.7-.2 1h-7.4a3.4 3.4 0 0 0 .9 2.2 3.5 3.5 0 0 0 2.3.6l1.8-.2 1.2-.6zm-4.4-8a2.2 2.2 0 0 0-1.9.7 3.7 3.7 0 0 0-.8 1.8H79a3 3 0 0 0-.4-1.8 1.9 1.9 0 0 0-1.7-.7zm13.3-5.7h2.9v4.7h.3a2.7 2.7 0 0 1 1.2-.9 3.7 3.7 0 0 1 1.8-.4 3.9 3.9 0 0 1 3.2 1.4 6.3 6.3 0 0 1 1.2 4.1 10.1 10.1 0 0 1-.4 2.6 5.1 5.1 0 0 1-3.1 3.1 6.1 6.1 0 0 1-2.4.4l-2.8-.2-1.9-.5zm2.9 12.2a1.6 1.6 0 0 0 .9.3h1q2.7 0 2.7-3.6a3.7 3.7 0 0 0-.5-2.3 2.1 2.1 0 0 0-1.7-.8 2.4 2.4 0 0 0-1.5.5 3 3 0 0 0-.9 1.3zm19.5 1.5a6.2 6.2 0 0 1-2 1 10.9 10.9 0 0 1-2.6.4 5 5 0 0 1-4.1-1.6 6.3 6.3 0 0 1-1.4-4.3 5.8 5.8 0 0 1 1.5-4.3 5.7 5.7 0 0 1 4.2-1.5l1.8.2a5.5 5.5 0 0 1 1.5.8 4.7 4.7 0 0 1 1.1 1.3 4.8 4.8 0 0 1 .4 2.2 3.8 3.8 0 0 1-.1 1c0 .3-.1.7-.1 1h-7.4a4.1 4.1 0 0 0 .8 2.2 3.8 3.8 0 0 0 2.4.6l1.8-.2 1.2-.6zm-4.4-8a2.6 2.6 0 0 0-2 .7 3.6 3.6 0 0 0-.7 1.8h4.8a2.4 2.4 0 0 0-.5-1.8 1.8 1.8 0 0 0-1.6-.7zm16.7 8a5.6 5.6 0 0 1-1.9 1 10.9 10.9 0 0 1-2.6.4 5.4 5.4 0 0 1-4.2-1.6 6.3 6.3 0 0 1-1.3-4.3 5.8 5.8 0 0 1 1.5-4.3 5.7 5.7 0 0 1 4.2-1.5l1.7.2a3.6 3.6 0 0 1 1.5.8 2.8 2.8 0 0 1 1.1 1.3 4.8 4.8 0 0 1 .4 2.2v1c-.1.3-.1.7-.2 1h-7.3a2.9 2.9 0 0 0 .8 2.2 3.7 3.7 0 0 0 2.3.6l1.8-.2 1.2-.6zm-4.4-8a2.4 2.4 0 0 0-1.9.7 2.9 2.9 0 0 0-.7 1.8h4.7a2.4 2.4 0 0 0-.4-1.8 1.9 1.9 0 0 0-1.7-.7zm7.5 6.2l.6.3.9.2.9.3h1a1.8 1.8 0 0 0 1.1-.2c.3-.1.4-.4.4-.8a.9.9 0 0 0-.5-.8l-1.4-.5-1.2-.4a3.4 3.4 0 0 1-1.2-.6 4.5 4.5 0 0 1-.9-1 3.8 3.8 0 0 1-.3-1.6 3 3 0 0 1 1-2.5 4.5 4.5 0 0 1 3-.9l2.3.2 1.8.5-.6 2.3-1.4-.5-1.7-.2-1.1.2a1 1 0 0 0-.4.8.7.7 0 0 0 .6.7l1.3.5 1.3.4a2.4 2.4 0 0 1 1.1.6 2.2 2.2 0 0 1 .9 1 3.3 3.3 0 0 1 .4 1.5 3.4 3.4 0 0 1-1.2 2.7 5.5 5.5 0 0 1-3.4 1 8.5 8.5 0 0 1-2.3-.3 4.8 4.8 0 0 1-1.8-.6zm-88.8 17h2.1l.3 1.4h.3a3.7 3.7 0 0 1 1.5-1.3 4 4 0 0 1 2-.4 3.9 3.9 0 0 1 3.3 1.3c.8.9 1.1 2.3 1.1 4.3a10.1 10.1 0 0 1-.3 2.5 5.9 5.9 0 0 1-1.1 1.9 3.5 3.5 0 0 1-1.7 1.2 5.6 5.6 0 0 1-2.3.5l-1.3-.2-1-.3v4.3h-2.9zm5.3 2.2a2.5 2.5 0 0 0-1.6.4 3.7 3.7 0 0 0-.8 1.4v4.3l.8.4a2 2 0 0 0 1.1.2 2.3 2.3 0 0 0 2.1-.9 4.3 4.3 0 0 0 .7-2.8 4.2 4.2 0 0 0-.5-2.2 1.9 1.9 0 0 0-1.8-.8zm14.2.5l-1.2-.2a2.4 2.4 0 0 0-1.5.4 2.1 2.1 0 0 0-.8 1.1v7h-3v-11h2.3l.4 1.5h.2a3.7 3.7 0 0 1 1.2-1.3 2.7 2.7 0 0 1 1.6-.4 3.4 3.4 0 0 1 1.3.2zm1.4 2.8a5.7 5.7 0 0 1 1.5-4.2 5 5 0 0 1 4.1-1.6 6.2 6.2 0 0 1 2.5.4 3.7 3.7 0 0 1 1.7 1.3 5.4 5.4 0 0 1 1.1 1.8 8.5 8.5 0 0 1 .3 2.3 6.9 6.9 0 0 1-.4 2.5 4.2 4.2 0 0 1-1.1 1.8 4.3 4.3 0 0 1-1.7 1.2 8.6 8.6 0 0 1-2.4.4 6.6 6.6 0 0 1-2.5-.5 5.2 5.2 0 0 1-1.7-1.2 4.4 4.4 0 0 1-1-1.9 5.6 5.6 0 0 1-.4-2.3zm3.1 0a5.3 5.3 0 0 0 .1 1.3 3.7 3.7 0 0 0 .5 1.1l.7.7a2.7 2.7 0 0 0 1.2.3c1.7 0 2.6-1.1 2.6-3.4a5.1 5.1 0 0 0-.2-1.3 2.1 2.1 0 0 0-.4-1.1 2.7 2.7 0 0 0-.8-.7 2.2 2.2 0 0 0-1.2-.2 2.2 2.2 0 0 0-1.9.8 4 4 0 0 0-.6 2.5zm20.5 1.7a10.9 10.9 0 0 0 .1 1.8 16.2 16.2 0 0 0 .1 2.1h-2l-.4-1.6h-.3a3.8 3.8 0 0 1-1.4 1.4 4.6 4.6 0 0 1-2.1.5 4.3 4.3 0 0 1-3.4-1.4 6.5 6.5 0 0 1-1.2-4.3 10.1 10.1 0 0 1 .3-2.5 6.9 6.9 0 0 1 1-1.9 6.6 6.6 0 0 1 1.7-1.2 8.6 8.6 0 0 1 2.4-.4h1.2l1.1.3v-3.7h2.9zm-5.2 1.7A2.5 2.5 0 0 0 80 82a2.5 2.5 0 0 0 .8-1.2v-4.5l-.8-.4h-1.1a2.3 2.3 0 0 0-2.1.8 4.1 4.1 0 0 0-.7 2.8 3.6 3.6 0 0 0 .6 2.2 2 2 0 0 0 1.8.8zm11.3-8.9v6.1a4.6 4.6 0 0 0 .4 2 1.6 1.6 0 0 0 1.5.6 2.4 2.4 0 0 0 1.5-.4 3.8 3.8 0 0 0 .9-1.3v-7h3v7.7a9.1 9.1 0 0 0 .1 1.7 7 7 0 0 0 .2 1.6h-2.1l-.6-1.7h-.2a4.6 4.6 0 0 1-1.6 1.5 4.4 4.4 0 0 1-2.3.6 4.1 4.1 0 0 1-1.6-.3 2.9 2.9 0 0 1-1.2-.7 5.2 5.2 0 0 1-.7-1.5 12.5 12.5 0 0 1-.2-2.1v-6.8zM108.7 84l-1.7.7a7.6 7.6 0 0 1-2.1.3 5.7 5.7 0 0 1-2.4-.5 2.8 2.8 0 0 1-1.6-1.2 5.1 5.1 0 0 1-.9-1.8 8.8 8.8 0 0 1-.3-2.4 6.5 6.5 0 0 1 1.4-4.3 5 5 0 0 1 3.9-1.5l2.1.2 1.4.5-.7 2.4-1.1-.4h-1.2a2.5 2.5 0 0 0-2 .8 3.3 3.3 0 0 0-.7 2.4 5.3 5.3 0 0 0 .1 1.3 2.1 2.1 0 0 0 .6 1 2.4 2.4 0 0 0 2.1.9h1.4l1-.4zm11.2-.4a6.2 6.2 0 0 1-2 1 10.9 10.9 0 0 1-2.6.4 5.4 5.4 0 0 1-4.2-1.6 6.9 6.9 0 0 1-1.3-4.3 5.8 5.8 0 0 1 1.5-4.3 5.7 5.7 0 0 1 4.2-1.5l1.8.2a5.5 5.5 0 0 1 1.5.8 4.7 4.7 0 0 1 1.1 1.3 6.7 6.7 0 0 1 .4 2.2 3.8 3.8 0 0 1-.1 1 3.6 3.6 0 0 1-.2 1h-7.3a3.4 3.4 0 0 0 .8 2.2 3.8 3.8 0 0 0 2.4.6l1.8-.2 1.2-.6zm-4.4-8a2.6 2.6 0 0 0-2 .7 3.6 3.6 0 0 0-.7 1.8h4.7a2.1 2.1 0 0 0-.4-1.8 1.8 1.8 0 0 0-1.6-.7zM28.2 98.8h2.1l.4 1.4h.2a5.8 5.8 0 0 1 1.5-1.3 4.6 4.6 0 0 1 2.1-.4 4 4 0 0 1 3.3 1.3 6.9 6.9 0 0 1 1.1 4.3 10.1 10.1 0 0 1-.3 2.5 5.9 5.9 0 0 1-1.1 1.9 4.1 4.1 0 0 1-1.7 1.2 5.9 5.9 0 0 1-2.3.5l-1.3-.2-1-.3v4.3h-3zm5.4 2.2a2.5 2.5 0 0 0-1.6.4 2.7 2.7 0 0 0-.8 1.4v4.3a2 2 0 0 0 .8.4 1.8 1.8 0 0 0 1.1.2 2.6 2.6 0 0 0 2.1-.9 4.3 4.3 0 0 0 .7-2.8 4.2 4.2 0 0 0-.5-2.2 1.9 1.9 0 0 0-1.8-.8zm14.2.5l-1.2-.2a2.5 2.5 0 0 0-1.6.4 2.8 2.8 0 0 0-.8 1.1v7h-2.9v-11h2.3l.3 1.5h.3a4.7 4.7 0 0 1 1.1-1.3 2.9 2.9 0 0 1 1.6-.4 3.2 3.2 0 0 1 1.3.2zm1.4 2.8a5.7 5.7 0 0 1 1.5-4.2 5 5 0 0 1 4.1-1.6 6.1 6.1 0 0 1 2.4.4 4.6 4.6 0 0 1 1.8 1.3 5.2 5.2 0 0 1 1 1.8 5.9 5.9 0 0 1 .4 2.3 10.1 10.1 0 0 1-.4 2.5 5.4 5.4 0 0 1-1.1 1.8 6.6 6.6 0 0 1-1.7 1.2 8.6 8.6 0 0 1-2.4.4 6.2 6.2 0 0 1-2.5-.5 4.3 4.3 0 0 1-1.7-1.2 5.9 5.9 0 0 1-1.1-1.9 8 8 0 0 1-.3-2.3zm3 0a5.1 5.1 0 0 0 .2 1.3 3.6 3.6 0 0 0 .4 1.1 2.7 2.7 0 0 0 .8.7 2.1 2.1 0 0 0 1.2.3c1.7 0 2.5-1.1 2.5-3.4a5.3 5.3 0 0 0-.1-1.3 3.6 3.6 0 0 0-.4-1.1 2.7 2.7 0 0 0-.8-.7 2.3 2.3 0 0 0-1.2-.2 2.2 2.2 0 0 0-1.9.8 3.9 3.9 0 0 0-.7 2.5zm9.2-5.5h1.7v-1.5l2.9-.8v2.3h3v2.5h-3v3.8a4.4 4.4 0 0 0 .3 1.9 1 1 0 0 0 1 .6h.9l.7-.2.6 2.2-1.6.5-1.6.2a3.3 3.3 0 0 1-2.4-.8 3.8 3.8 0 0 1-.8-2.6v-5.5h-1.7zm19.2 10a7.5 7.5 0 0 1-2 1 10.9 10.9 0 0 1-2.6.4 5.4 5.4 0 0 1-4.2-1.6 6.3 6.3 0 0 1-1.3-4.3A5.8 5.8 0 0 1 72 100a5.7 5.7 0 0 1 4.2-1.5l1.7.2a4.8 4.8 0 0 1 1.6.8 3.2 3.2 0 0 1 1 1.3 4.8 4.8 0 0 1 .5 2.2c0 .3-.1.6-.1 1a3.6 3.6 0 0 1-.2 1h-7.3a2.9 2.9 0 0 0 .8 2.2 3.8 3.8 0 0 0 2.4.6l1.7-.2a3.3 3.3 0 0 0 1.2-.6zm-4.5-8a2.4 2.4 0 0 0-1.9.7 2.9 2.9 0 0 0-.7 1.8h4.7a2.4 2.4 0 0 0-.4-1.8 1.8 1.8 0 0 0-1.7-.7zm7.4-4.4a1.6 1.6 0 0 1 .5-1.1 2 2 0 0 1 1.4-.4 2.1 2.1 0 0 1 1.4.4 1.5 1.5 0 0 1 0 2.2 2.1 2.1 0 0 1-1.4.4 2 2 0 0 1-1.4-.4 1.6 1.6 0 0 1-.5-1.1zm.5 2.4h2.9v11H84zm13.7 11v-6a3.8 3.8 0 0 0-.5-2.1 1.6 1.6 0 0 0-1.5-.6 2.8 2.8 0 0 0-1.6.5 2.2 2.2 0 0 0-.9 1.3v6.9h-2.9v-11h2.3l.3 1.6h.3a4.4 4.4 0 0 1 1.4-1.3 4.3 4.3 0 0 1 2.4-.6l1.6.2a2.8 2.8 0 0 1 1.1.8 3.7 3.7 0 0 1 .7 1.4 14 14 0 0 1 .2 2.3v6.6zm5.9-2.8l.7.3.9.2.9.3h.9a2.2 2.2 0 0 0 1.2-.2c.3-.1.4-.4.4-.8s-.2-.6-.6-.8l-1.3-.5-1.2-.4a2.7 2.7 0 0 1-1.2-.6 2.2 2.2 0 0 1-.9-1 3.8 3.8 0 0 1-.3-1.6 3 3 0 0 1 1-2.5 4.5 4.5 0 0 1 3-.9l2.3.2 1.8.5-.6 2.3-1.4-.5-1.7-.2-1.1.2a.8.8 0 0 0-.4.8.7.7 0 0 0 .6.7l1.3.5 1.2.4a2.3 2.3 0 0 1 1.2.6 2.2 2.2 0 0 1 .9 1 3.3 3.3 0 0 1 .3 1.5 3.7 3.7 0 0 1-1.1 2.7 5.5 5.5 0 0 1-3.4 1 9.3 9.3 0 0 1-2.4-.3 3.8 3.8 0 0 1-1.7-.6zm15.9-10.6a1.6 1.6 0 0 1 .5-1.1 2 2 0 0 1 1.4-.4 2.1 2.1 0 0 1 1.4.4 1.5 1.5 0 0 1 0 2.2 2.1 2.1 0 0 1-1.4.4 2 2 0 0 1-1.4-.4 1.6 1.6 0 0 1-.5-1.1zm.4 2.4h3v11h-3zm13.8 11v-6a3.8 3.8 0 0 0-.5-2.1 1.8 1.8 0 0 0-1.5-.6 2.8 2.8 0 0 0-1.6.5 2.2 2.2 0 0 0-.9 1.3v6.9h-3v-11h2.4l.3 1.6h.3a4.4 4.4 0 0 1 1.4-1.3 4.3 4.3 0 0 1 2.4-.6l1.6.2a2.8 2.8 0 0 1 1.1.8 3.7 3.7 0 0 1 .7 1.4 14 14 0 0 1 .2 2.3v6.6zM26.9 124h1.7v-1.5l2.9-.8v2.3h3v2.5h-3v3.8a4.4 4.4 0 0 0 .3 1.9 1 1 0 0 0 1 .6h.9l.7-.2.6 2.2-1.6.5-1.7.2a3.5 3.5 0 0 1-2.4-.8 3.8 3.8 0 0 1-.7-2.6v-5.5h-1.7zm17.3 11v-6a3.6 3.6 0 0 0-.5-2.1 1.6 1.6 0 0 0-1.5-.6 3 3 0 0 0-1.6.5 2.4 2.4 0 0 0-.9 1.5v6.7h-3v-14.7h3v5.1h.2a5.3 5.3 0 0 1 1.4-1.2 4.8 4.8 0 0 1 2.2-.5l1.6.2a2.8 2.8 0 0 1 1.1.8 3.7 3.7 0 0 1 .7 1.4 12.7 12.7 0 0 1 .2 2.2v6.7zm15.4-1a7.5 7.5 0 0 1-2 1 10.9 10.9 0 0 1-2.6.4 5.4 5.4 0 0 1-4.2-1.6 6.3 6.3 0 0 1-1.3-4.3 5.8 5.8 0 0 1 1.5-4.3 5.7 5.7 0 0 1 4.2-1.5l1.7.2a4.8 4.8 0 0 1 1.6.8 4.7 4.7 0 0 1 1.1 1.3 6.7 6.7 0 0 1 .4 2.2c0 .3-.1.6-.1 1a3.6 3.6 0 0 1-.2 1h-7.3a3.4 3.4 0 0 0 .8 2.2 3.8 3.8 0 0 0 2.4.6l1.7-.2 1.3-.6zm-4.4-8a2.4 2.4 0 0 0-2 .7 3.6 3.6 0 0 0-.7 1.8h4.7a2.4 2.4 0 0 0-.4-1.8 1.8 1.8 0 0 0-1.6-.7zm20.6 9v-6a3.9 3.9 0 0 0-.4-2.1 1.8 1.8 0 0 0-1.6-.6 3 3 0 0 0-1.6.5 3.8 3.8 0 0 0-.9 1.3v6.9h-2.9v-11h2.3l.3 1.6h.3a4.7 4.7 0 0 1 1.5-1.3 4.1 4.1 0 0 1 2.3-.6l1.6.2a2.3 2.3 0 0 1 1.1.8 2.6 2.6 0 0 1 .7 1.4 7.5 7.5 0 0 1 .3 2.3v6.6zm15.4-1a5.6 5.6 0 0 1-1.9 1 10.9 10.9 0 0 1-2.6.4 5.4 5.4 0 0 1-4.2-1.6 6.3 6.3 0 0 1-1.3-4.3 5.8 5.8 0 0 1 1.5-4.3 5.7 5.7 0 0 1 4.2-1.5l1.7.2a3.6 3.6 0 0 1 1.5.8 3.5 3.5 0 0 1 1.1 1.3 4.8 4.8 0 0 1 .4 2.2v1c-.1.3-.1.7-.2 1H84a3.4 3.4 0 0 0 .9 2.2 3.5 3.5 0 0 0 2.3.6l1.8-.2 1.2-.6zm-4.4-8a2.4 2.4 0 0 0-1.9.7 2.9 2.9 0 0 0-.7 1.8h4.7a2.4 2.4 0 0 0-.4-1.8 1.9 1.9 0 0 0-1.7-.7zm15.7 8.4l-1.7.7a7.6 7.6 0 0 1-2.1.3 5.4 5.4 0 0 1-2.4-.5 2.8 2.8 0 0 1-1.6-1.2 5.1 5.1 0 0 1-.9-1.8 8.8 8.8 0 0 1-.3-2.4 6.5 6.5 0 0 1 1.4-4.3 5 5 0 0 1 3.9-1.5l2.1.2 1.4.5-.7 2.4-1.1-.4h-1.2a2.9 2.9 0 0 0-2.1.8 3.8 3.8 0 0 0-.7 2.4 5.1 5.1 0 0 0 .2 1.3 3.1 3.1 0 0 0 .5 1l.9.7a2.7 2.7 0 0 0 1.3.2h1.4l1-.4zm.8-10.4h1.7v-1.5l2.9-.8v2.3h3v2.5h-3v3.8a4.4 4.4 0 0 0 .3 1.9 1 1 0 0 0 1 .6h.8l.8-.2.6 2.2-1.6.5-1.7.2a3.3 3.3 0 0 1-2.4-.8 3.8 3.8 0 0 1-.7-2.6v-5.5h-1.7zm9.7.8l2.4-.7a12.7 12.7 0 0 1 2.8-.3 5 5 0 0 1 1.9.3 2.4 2.4 0 0 1 1.3.8 2.3 2.3 0 0 1 .6 1.2 4.1 4.1 0 0 1 .2 1.6v2.1a16.9 16.9 0 0 0-.1 2.3 7.6 7.6 0 0 0 .1 1.5l.3 1.5h-2.4l-.5-1.7h-.2a5.8 5.8 0 0 1-1.4 1.3 4.8 4.8 0 0 1-2.2.5l-1.4-.2a3 3 0 0 1-1.1-.7 2.5 2.5 0 0 1-.8-1 2.7 2.7 0 0 1-.2-1.3 3.4 3.4 0 0 1 1.2-2.8 6.4 6.4 0 0 1 3.8-1h1.2l.8.2c0-.3.1-.6.1-.8a2.1 2.1 0 0 0-.4-1.2 2.8 2.8 0 0 0-1.5-.3 6.5 6.5 0 0 0-2 .2l-1.7.6zm3.9 8.1a2.3 2.3 0 0 0 1.5-.5 2.8 2.8 0 0 0 .9-1v-1.2h-1.8a3.5 3.5 0 0 0-1.7.4 1.4 1.4 0 0 0-.5 1 1.6 1.6 0 0 0 .4 1.2 2.1 2.1 0 0 0 1.2.1zm14.9-6.2l-1.3-.2a2.4 2.4 0 0 0-1.5.4 2.8 2.8 0 0 0-.8 1.1v7h-2.9v-11h2.3l.3 1.5h.3a3.5 3.5 0 0 1 1.1-1.3 2.9 2.9 0 0 1 1.6-.4 3.2 3.2 0 0 1 1.3.2z"/></g></symbol><symbol id="cart" viewBox="0 0 115.7 82.2"><path fill="none" stroke="#fff" stroke-miterlimit="10" stroke-width="14" d="M84.6 20.1l-74.9.4 11.5 33.8 56.1.6L89 7h26.7"/><circle cx="26.2" cy="73.9" r="8.4" fill="#fff"/><circle cx="71.7" cy="73.9" r="8.4" fill="#fff"/></symbol><symbol id="close" viewBox="0 0 60.8 60.8"><path fill="none" stroke="#fff" stroke-miterlimit="10" stroke-width="14" d="M55.7 5.4L4.9 55.9m51-.2L5.4 4.9"/></symbol><symbol id="bee-2" viewBox="0 0 159.8 184.6"><g id="bee-2"><path fill="#fadb94" d="M159.8 46.1L79.9 0 0 46.1v92.3l79.9 46.2 79.9-46.2V46.1z"/><path fill="#fff" d="M37.5 77.6l24.7-14.4 25 14.4v28.7l-25 14.4-24.7-14.4z"/><path fill="#fff" d="M37.5 56.6l24.7-14.4 25 14.4V71l-25-14.4L37.5 71zM87.2 128l-25 14.3L37.5 128v-14.4L62.2 128l25-14.4zm5.5-50.3v12.8l47.7-12.8-24.8-14.5zm21 12.8l-21 5.1V107l26.7 12.1z"/></g></symbol><symbol id="flower-1-text" viewBox="0 0 159.8 184.6"><g id="Layer_7"><path fill="#fadb94" d="M159.8 46.1L79.9 0 0 46.1v92.3l79.9 46.2 79.9-46.2V46.1z"/><path fill="#fff" d="M85.1 82.7l13.1-25.5L81 38.9 63.8 57.2l13.3 25.5a10.6 10.6 0 0 1 4-.8 11 11 0 0 1 4 .8zm36.4 7.7l8.7-25.7-27.7-2-12.7 23.5a10.7 10.7 0 0 1 2 3.8zM60 61.2l-28.2 2.3 8.5 26.9h30a12.2 12.2 0 0 1 2.8-5.1zm17.9 42.5l-12.6 24.2 17.2 18.3 17.3-18.3-13.1-25.3a10.8 10.8 0 0 1-5.6 1.6 11.3 11.3 0 0 1-3.2-.5zm25.3 18.7l29.1-2-10.1-25.7-30.2.4a12.6 12.6 0 0 1-1.5 3.8zM41 94.7l-9.2 26.9 28.9 2.3 12.5-23a11.8 11.8 0 0 1-3.1-6.2z"/><path fill="#4c4a4b" d="M159.8 46.5L79.9.4 0 46.5v92.3L79.9 185l79.9-46.2V46.5z" opacity=".85"/><path fill="#fff" d="M25.1 59.1h3.2V51l.3-1.5-1.1 1.3-2 1.4-1.2-1.8 5.2-3.8h1.6v12.5h3.1v2.4h-9.1zm11.4 1a1.7 1.7 0 0 1 .5-1.2 1.8 1.8 0 0 1 1.3-.4 2.1 2.1 0 0 1 1.4.4 1.7 1.7 0 0 1 0 2.4 2.2 2.2 0 0 1-1.4.5 1.9 1.9 0 0 1-1.3-.5 1.7 1.7 0 0 1-.5-1.2zm14.4-6.2l-1.3-2.2h-.1l.3 2.2v7.6h-2.9V46.7h2.2l6.1 7.9 1.2 2.1h.1l-.3-2.2v-7.7h2.9v14.8h-2.2zm20.6 6.6a7.5 7.5 0 0 1-2 1 10.9 10.9 0 0 1-2.6.4 5.4 5.4 0 0 1-4.2-1.6 6.3 6.3 0 0 1-1.3-4.3 5.8 5.8 0 0 1 1.5-4.3 5.7 5.7 0 0 1 4.2-1.5l1.7.2a4.8 4.8 0 0 1 1.6.8 3.2 3.2 0 0 1 1 1.3 4.8 4.8 0 0 1 .5 2.2c0 .3-.1.6-.1 1a5.2 5.2 0 0 1-.2 1.1h-7.3a2.9 2.9 0 0 0 .8 2.1 3.8 3.8 0 0 0 2.4.6 4.7 4.7 0 0 0 1.7-.2 3.3 3.3 0 0 0 1.2-.6zm-4.5-8a2.4 2.4 0 0 0-1.9.7 2.9 2.9 0 0 0-.7 1.8h4.7a2.4 2.4 0 0 0-.4-1.8 1.8 1.8 0 0 0-1.7-.7zm15.7 8.4l-1.7.7-2.1.3a6 6 0 0 1-2.4-.5 3.1 3.1 0 0 1-1.6-1.2 5.1 5.1 0 0 1-.9-1.8 8.8 8.8 0 0 1-.3-2.4 6.5 6.5 0 0 1 1.4-4.3 5 5 0 0 1 3.9-1.5l2.1.2 1.4.5-.7 2.4-1.1-.4h-1.2a2.5 2.5 0 0 0-2 .8 3.3 3.3 0 0 0-.7 2.4 5.3 5.3 0 0 0 .1 1.3 2.1 2.1 0 0 0 .6 1 2.2 2.2 0 0 0 .9.7 2.4 2.4 0 0 0 1.2.3l1.4-.2 1-.4zm.8-10.4h1.7V49l2.9-.8v2.3h3V53h-3v3.8a4.4 4.4 0 0 0 .3 1.9 1 1 0 0 0 1 .6h.9l.7-.3.6 2.2-1.6.5-1.6.2a3.3 3.3 0 0 1-2.4-.8 3.8 3.8 0 0 1-.8-2.6V53h-1.7zm9.7.8l2.4-.7a12.7 12.7 0 0 1 2.8-.3 6 6 0 0 1 2 .3 2.5 2.5 0 0 1 1.2.8 3.5 3.5 0 0 1 .7 1.2 7.8 7.8 0 0 1 .2 1.6c0 .7-.1 1.4-.1 2.1a16.9 16.9 0 0 0-.1 2.3 7.6 7.6 0 0 0 .1 1.5l.3 1.5h-2.4l-.4-1.7h-.3a5.8 5.8 0 0 1-1.4 1.3 4.3 4.3 0 0 1-2.1.5l-1.5-.2a4.1 4.1 0 0 1-1.1-.7 3.9 3.9 0 0 1-.8-1 5.1 5.1 0 0 1-.2-1.3 3.4 3.4 0 0 1 1.2-2.8 6.6 6.6 0 0 1 3.8-1h1.2l.8.2c0-.3.1-.6.1-.8a2.1 2.1 0 0 0-.4-1.2 2.8 2.8 0 0 0-1.5-.3 6.8 6.8 0 0 0-2 .2l-1.7.6zm3.9 8.1a2.8 2.8 0 0 0 1.6-.5 2.5 2.5 0 0 0 .8-1v-1.2c0-.1-.2-.1-.3-.1h-1.5a3.9 3.9 0 0 0-1.7.4 1.4 1.4 0 0 0-.5 1 1.6 1.6 0 0 0 .4 1.2 2.1 2.1 0 0 0 1.2.2zm14.9-6.2l-1.2-.2a2.5 2.5 0 0 0-1.6.4 1.9 1.9 0 0 0-.7 1.1v7h-3v-11h2.3l.3 1.5h.3a4.7 4.7 0 0 1 1.1-1.3 3.8 3.8 0 0 1 2.9-.2zm7.8-5.1a1.5 1.5 0 0 1 .4-1.1 2.1 2.1 0 0 1 1.4-.4 2 2 0 0 1 1.4.4 1.3 1.3 0 0 1 0 2.2 2 2 0 0 1-1.4.4 2.1 2.1 0 0 1-1.4-.4 1.5 1.5 0 0 1-.4-1.1zm.4 2.4h2.9v11h-2.9zm6.3 8.2l.7.3.8.3.9.2h1a1.8 1.8 0 0 0 1.1-.2c.3-.1.4-.4.4-.8a.9.9 0 0 0-.5-.8l-1.4-.5-1.2-.4a3.4 3.4 0 0 1-1.2-.6 4.5 4.5 0 0 1-.9-1 3.8 3.8 0 0 1-.3-1.6 3 3 0 0 1 1-2.5 4.5 4.5 0 0 1 3-.9l2.4.2 1.7.5-.6 2.3-1.4-.5-1.7-.2-1.1.2a1 1 0 0 0-.4.8.7.7 0 0 0 .6.7l1.4.5 1.2.4a2.4 2.4 0 0 1 1.1.6 2.2 2.2 0 0 1 .9 1 2.4 2.4 0 0 1 .4 1.5 3.4 3.4 0 0 1-1.2 2.7 5.3 5.3 0 0 1-3.4 1 8.5 8.5 0 0 1-2.3-.3 4.8 4.8 0 0 1-1.8-.6zM27.4 86.1l-1.7.7a7.1 7.1 0 0 1-2.1.3 6 6 0 0 1-2.4-.5 3.6 3.6 0 0 1-1.6-1.2 3.7 3.7 0 0 1-.8-1.8 8.8 8.8 0 0 1-.3-2.4 6.5 6.5 0 0 1 1.3-4.3 5.1 5.1 0 0 1 4-1.5l2 .2 1.5.5-.7 2.4-1.1-.4h-1.3a2.8 2.8 0 0 0-2 .8 3.3 3.3 0 0 0-.7 2.4 5.1 5.1 0 0 0 .2 1.3 3.1 3.1 0 0 0 .5 1 2.2 2.2 0 0 0 .9.7 2.8 2.8 0 0 0 1.3.3l1.4-.2 1-.4zm1.2-4.9A5.6 5.6 0 0 1 30 77a5.3 5.3 0 0 1 4.1-1.6 6.2 6.2 0 0 1 2.5.4 3.7 3.7 0 0 1 1.7 1.3 4.2 4.2 0 0 1 1.1 1.8 8.5 8.5 0 0 1 .3 2.3 10.1 10.1 0 0 1-.3 2.5 7.8 7.8 0 0 1-1.1 1.8 5.7 5.7 0 0 1-1.8 1.2 8.6 8.6 0 0 1-2.4.4 6 6 0 0 1-2.4-.5 5.7 5.7 0 0 1-1.8-1.2 5.7 5.7 0 0 1-1-1.9 8 8 0 0 1-.3-2.3zm3 0a5.3 5.3 0 0 0 .1 1.3 3.7 3.7 0 0 0 .5 1.1 1.9 1.9 0 0 0 .8.7 2 2 0 0 0 1.1.3c1.8 0 2.6-1.1 2.6-3.4a5.3 5.3 0 0 0-.1-1.3 3.7 3.7 0 0 0-.5-1.1 1.9 1.9 0 0 0-.8-.7 2.2 2.2 0 0 0-1.2-.2 1.9 1.9 0 0 0-1.8.8 3.4 3.4 0 0 0-.7 2.5zm13.5 1.7c0 1 .4 1.6 1.1 1.6h.5l.6-.2.4 2.3-1.2.4-1.6.2a3 3 0 0 1-2-.6 2.2 2.2 0 0 1-.7-1.9V72h2.9zm7.1 0c0 1 .3 1.6 1 1.6h.6l.6-.2.4 2.3a3.4 3.4 0 0 1-1.2.4l-1.6.2a2.8 2.8 0 0 1-2-.6 2.2 2.2 0 0 1-.7-1.9V72h2.9zm13.5 2.8a6.7 6.7 0 0 1-1.9 1 11.7 11.7 0 0 1-2.7.4 5.2 5.2 0 0 1-4.1-1.6 6.3 6.3 0 0 1-1.4-4.3 5.8 5.8 0 0 1 1.5-4.3 5.7 5.7 0 0 1 4.2-1.5l1.8.2a3.6 3.6 0 0 1 1.5.8 3.5 3.5 0 0 1 1.1 1.3 4.8 4.8 0 0 1 .4 2.2v1c-.1.3-.1.7-.2 1.1h-7.4a3.4 3.4 0 0 0 .9 2.1 3.3 3.3 0 0 0 2.3.6 5 5 0 0 0 1.8-.2l1.2-.6zm-4.4-8a2.2 2.2 0 0 0-1.9.7 3 3 0 0 0-.8 1.8h4.8a3 3 0 0 0-.4-1.8 1.9 1.9 0 0 0-1.7-.7zm15.6 8.4a5.4 5.4 0 0 1-1.7.7 6.4 6.4 0 0 1-2 .3 5.4 5.4 0 0 1-2.4-.5 2.8 2.8 0 0 1-1.6-1.2 3.8 3.8 0 0 1-.9-1.8 8.8 8.8 0 0 1-.3-2.4 6 6 0 0 1 1.4-4.3 5 5 0 0 1 3.9-1.5l2.1.2 1.4.5-.7 2.4-1.1-.4h-1.2a2.9 2.9 0 0 0-2.1.8 3.8 3.8 0 0 0-.7 2.4 5.1 5.1 0 0 0 .2 1.3 3.1 3.1 0 0 0 .5 1l.9.7a2.8 2.8 0 0 0 1.3.3l1.4-.2 1-.4zm.9-10.4h1.7v-1.5l2.9-.8v2.3h3v2.5h-3V82a4.4 4.4 0 0 0 .3 1.9.9.9 0 0 0 1 .6h.8l.7-.2.6 2.2-1.5.5-1.7.2a3.3 3.3 0 0 1-2.4-.8 3.8 3.8 0 0 1-.7-2.6v-5.6h-1.7zm19.1 10a6.7 6.7 0 0 1-1.9 1 11 11 0 0 1-2.7.4 5.2 5.2 0 0 1-4.1-1.6 6.3 6.3 0 0 1-1.3-4.3 6.2 6.2 0 0 1 1.4-4.3 5.7 5.7 0 0 1 4.2-1.5l1.8.2a3.6 3.6 0 0 1 1.5.8 3.5 3.5 0 0 1 1.1 1.3 4.8 4.8 0 0 1 .4 2.2v1c-.1.3-.1.7-.2 1.1h-7.4a3.4 3.4 0 0 0 .9 2.1 3.3 3.3 0 0 0 2.3.6 5 5 0 0 0 1.8-.2l1.2-.6zm-4.4-8a2.2 2.2 0 0 0-1.9.7 3.7 3.7 0 0 0-.8 1.8h4.8a3 3 0 0 0-.4-1.8 1.9 1.9 0 0 0-1.7-.7zm17.5 5.2v1.8a18.3 18.3 0 0 0 .2 2.1h-2l-.5-1.6h-.2a3.8 3.8 0 0 1-1.4 1.4 4.9 4.9 0 0 1-5.6-.9 6.5 6.5 0 0 1-1.2-4.3 6.9 6.9 0 0 1 .4-2.5 5 5 0 0 1 1-1.9 5.2 5.2 0 0 1 1.7-1.2 7.9 7.9 0 0 1 2.3-.4h1.3l1.1.3V72h2.9zm-5.3 1.7a2.5 2.5 0 0 0 1.6-.5 3.6 3.6 0 0 0 .8-1.2v-4.5l-.9-.4h-1.1a2.9 2.9 0 0 0-2.1.8 4.8 4.8 0 0 0-.6 2.8 3.6 3.6 0 0 0 .5 2.2 2 2 0 0 0 1.8.8zM118.9 72h3v4.7h.2a3.8 3.8 0 0 1 1.3-.9 5.3 5.3 0 0 1 1.8-.4 3.9 3.9 0 0 1 3.2 1.4 6.3 6.3 0 0 1 1.1 4.1 6.8 6.8 0 0 1-.4 2.6 4 4 0 0 1-1.1 1.9 5.2 5.2 0 0 1-1.9 1.2 6.1 6.1 0 0 1-2.4.4l-2.8-.2-2-.5zm3 12.2a1.6 1.6 0 0 0 .9.3h1q2.7 0 2.7-3.6a4.6 4.6 0 0 0-.5-2.3 2.1 2.1 0 0 0-1.7-.8 2.1 2.1 0 0 0-1.5.4 3 3 0 0 0-.9 1.3zm13.8-2.4l.4 1.8h.3l.4-1.8 1.8-6.1h3l-3.6 10c-.3.8-.6 1.6-.9 2.2a13.1 13.1 0 0 1-.9 1.7 3.8 3.8 0 0 1-1.1 1.1 2.9 2.9 0 0 1-1.4.3h-1a1.4 1.4 0 0 1-.9-.3l.6-2.2h1.2l.5-.2c.2-.1.3-.3.5-.5a4.6 4.6 0 0 0 .3-.9l-5-11.1h3.5zM7.8 100.9h1.7v-1.5l3-.8v2.3h2.9v2.5h-2.9v3.8a7.8 7.8 0 0 0 .2 1.9 1.1 1.1 0 0 0 1.1.6h.8l.7-.2.6 2.2-1.5.5-1.7.2a3.3 3.3 0 0 1-2.4-.8 3.8 3.8 0 0 1-.8-2.6v-5.5H7.8zm17.3 11v-6a3.7 3.7 0 0 0-.4-2.1 1.8 1.8 0 0 0-1.6-.6 3 3 0 0 0-1.6.5 3.8 3.8 0 0 0-.9 1.5v6.7h-2.9V97.2h2.9v5.1h.3a3.3 3.3 0 0 1 1.4-1.2 4.3 4.3 0 0 1 2.1-.5l1.6.2a2.3 2.3 0 0 1 1.1.8 2.6 2.6 0 0 1 .7 1.4 7.2 7.2 0 0 1 .2 2.2v6.7zm15.4-1a6.7 6.7 0 0 1-1.9 1 11.7 11.7 0 0 1-2.7.4 5 5 0 0 1-4.1-1.6 6.3 6.3 0 0 1-1.4-4.3 5.8 5.8 0 0 1 1.5-4.3 5.7 5.7 0 0 1 4.2-1.5l1.8.2a4.4 4.4 0 0 1 1.5.8 3.5 3.5 0 0 1 1.1 1.3 4.8 4.8 0 0 1 .4 2.2 3.8 3.8 0 0 1-.1 1c0 .3-.1.7-.1 1.1h-7.4a4 4 0 0 0 .8 2.1 3.8 3.8 0 0 0 2.4.6 5 5 0 0 0 1.8-.2l1.2-.6zm-4.4-8a2.2 2.2 0 0 0-1.9.7 3 3 0 0 0-.8 1.8h4.8a2.4 2.4 0 0 0-.5-1.8 1.7 1.7 0 0 0-1.6-.7zm13.2-5.7h3v4.7h.2a3.8 3.8 0 0 1 1.3-.9 4.8 4.8 0 0 1 1.8-.4 3.9 3.9 0 0 1 3.2 1.4 6.3 6.3 0 0 1 1.1 4.1 6.8 6.8 0 0 1-.4 2.6 4 4 0 0 1-1.1 1.9 6.2 6.2 0 0 1-1.9 1.2 6.1 6.1 0 0 1-2.4.4l-2.9-.2-1.9-.5zm3 12.2l.9.3h1q2.7 0 2.7-3.6a4.6 4.6 0 0 0-.5-2.3 2.1 2.1 0 0 0-1.7-.8 2.5 2.5 0 0 0-1.6.4 4.1 4.1 0 0 0-.8 1.3zm19.5 1.5a7.5 7.5 0 0 1-2 1 10.9 10.9 0 0 1-2.6.4 5.4 5.4 0 0 1-4.2-1.6 6.3 6.3 0 0 1-1.3-4.3 5.8 5.8 0 0 1 1.5-4.3 5.7 5.7 0 0 1 4.2-1.5l1.7.2a4.8 4.8 0 0 1 1.6.8 4.7 4.7 0 0 1 1.1 1.3 6.7 6.7 0 0 1 .4 2.2c0 .3-.1.6-.1 1a5.2 5.2 0 0 1-.2 1.1h-7.3a3.3 3.3 0 0 0 .8 2.1 3.8 3.8 0 0 0 2.4.6 5.5 5.5 0 0 0 1.8-.2l1.2-.6zm-4.4-8a2.4 2.4 0 0 0-2 .7 3.6 3.6 0 0 0-.7 1.8h4.7a2.1 2.1 0 0 0-.4-1.8 1.8 1.8 0 0 0-1.6-.7zm16.7 8a6.7 6.7 0 0 1-1.9 1 11 11 0 0 1-2.7.4 5.2 5.2 0 0 1-4.1-1.6 6.3 6.3 0 0 1-1.3-4.3 6.2 6.2 0 0 1 1.4-4.3 5.7 5.7 0 0 1 4.2-1.5l1.8.2a3.6 3.6 0 0 1 1.5.8 3.5 3.5 0 0 1 1.1 1.3 4.8 4.8 0 0 1 .4 2.2v1c-.1.3-.1.7-.2 1.1h-7.4a3.4 3.4 0 0 0 .9 2.1 3.3 3.3 0 0 0 2.3.6 5 5 0 0 0 1.8-.2l1.2-.6zm-4.4-8a2.2 2.2 0 0 0-1.9.7 3.7 3.7 0 0 0-.8 1.8h4.8a3 3 0 0 0-.4-1.8 1.9 1.9 0 0 0-1.7-.7zm7.4 6.2l.7.3.9.3.9.2h.9a2.2 2.2 0 0 0 1.2-.2c.3-.1.4-.4.4-.8s-.2-.6-.6-.8l-1.3-.5-1.2-.4a2.7 2.7 0 0 1-1.2-.6 2.2 2.2 0 0 1-.9-1 3.8 3.8 0 0 1-.3-1.6 3 3 0 0 1 1-2.5 4.5 4.5 0 0 1 3-.9l2.3.2 1.8.5-.6 2.3-1.4-.5-1.7-.2-1.1.2a.8.8 0 0 0-.4.8.7.7 0 0 0 .6.7l1.3.5 1.2.4a2.3 2.3 0 0 1 1.2.6 2.2 2.2 0 0 1 .9 1 3.9 3.9 0 0 1-.8 4.2 5.5 5.5 0 0 1-3.4 1 9.3 9.3 0 0 1-2.4-.3 4.3 4.3 0 0 1-1.7-.6zm14.8-8.2h1.7v-.7a4.1 4.1 0 0 1 .3-1.6 1.8 1.8 0 0 1 .8-.9 2.4 2.4 0 0 1 1.1-.6h3.2a3.5 3.5 0 0 1 1.4.3l-.6 2.3-.9-.3h-.9a1.2 1.2 0 0 0-1.5 1.5h2.7v2.5h-2.7v8.5h-2.9v-8.5h-1.7zm15.5 2.7l-1.3-.2a2.4 2.4 0 0 0-1.5.4 2.1 2.1 0 0 0-.8 1.1v7h-2.9v-11h2.3l.3 1.5h.3a2.8 2.8 0 0 1 1.1-1.3 2.9 2.9 0 0 1 1.6-.4 3.2 3.2 0 0 1 1.3.2zm1.4 2.8a5.6 5.6 0 0 1 1.4-4.2 5.3 5.3 0 0 1 4.1-1.6 6.2 6.2 0 0 1 2.5.4 3.7 3.7 0 0 1 1.7 1.3 4.2 4.2 0 0 1 1.1 1.8 8.5 8.5 0 0 1 .3 2.3 10.1 10.1 0 0 1-.3 2.5 7.8 7.8 0 0 1-1.1 1.8 5.7 5.7 0 0 1-1.8 1.2 8.6 8.6 0 0 1-2.4.4 6 6 0 0 1-2.4-.5 5.7 5.7 0 0 1-1.8-1.2 5.7 5.7 0 0 1-1-1.9 8 8 0 0 1-.3-2.3zm3 0a5.3 5.3 0 0 0 .1 1.3 3.7 3.7 0 0 0 .5 1.1 2.7 2.7 0 0 0 .8.7 2 2 0 0 0 1.1.3c1.8 0 2.6-1.1 2.6-3.4a5.3 5.3 0 0 0-.1-1.3 3.7 3.7 0 0 0-.5-1.1 1.9 1.9 0 0 0-.8-.7 2.2 2.2 0 0 0-1.2-.2 2.1 2.1 0 0 0-1.8.8 3.4 3.4 0 0 0-.7 2.5zm17.4 5.5v-5.7a6.3 6.3 0 0 0-.3-2.3c-.2-.5-.7-.7-1.4-.7a2 2 0 0 0-1.4.4 2.5 2.5 0 0 0-.8 1.2v7.1h-3v-11h2.3l.3 1.5h.3l.6-.6a2.1 2.1 0 0 1 .8-.6l1-.4 1.2-.2a3.8 3.8 0 0 1 1.9.5 3.3 3.3 0 0 1 1.1 1.6 4.3 4.3 0 0 1 1.5-1.5 3.6 3.6 0 0 1 2-.6l1.8.2 1.1.8a3.4 3.4 0 0 1 .6 1.6 8.2 8.2 0 0 1 .2 2.4v6.3h-2.9V106a4.9 4.9 0 0 0-.1-1.2 2.9 2.9 0 0 0-.2-.9l-.5-.5-1-.2a2.1 2.1 0 0 0-2.1 1.7v7zM21.6 126.1h1.7v-1.5l2.9-.8v2.3h3v2.5h-3v3.8a4.4 4.4 0 0 0 .3 1.9.9.9 0 0 0 1 .6h.8l.7-.2.6 2.2-1.5.5-1.7.2a3.3 3.3 0 0 1-2.4-.8 3.8 3.8 0 0 1-.7-2.6v-5.5h-1.7zm17.2 11v-6a3.7 3.7 0 0 0-.4-2.1 1.8 1.8 0 0 0-1.6-.6 2.7 2.7 0 0 0-1.5.5 3.1 3.1 0 0 0-1 1.5v6.7h-2.9v-14.7h2.9v5.1h.3a4.1 4.1 0 0 1 1.4-1.2 4.8 4.8 0 0 1 2.2-.5l1.5.2a2.5 2.5 0 0 1 1.2.8 2.6 2.6 0 0 1 .6 1.4 6.9 6.9 0 0 1 .3 2.2v6.7zm15.4-1a5.6 5.6 0 0 1-1.9 1 10.9 10.9 0 0 1-2.6.4 5.4 5.4 0 0 1-4.2-1.6 6.3 6.3 0 0 1-1.3-4.3 5.8 5.8 0 0 1 1.5-4.3 5.7 5.7 0 0 1 4.2-1.5l1.7.2a3.6 3.6 0 0 1 1.5.8 3.5 3.5 0 0 1 1.1 1.3 4.8 4.8 0 0 1 .4 2.2v1c-.1.3-.1.7-.2 1.1H47a3.4 3.4 0 0 0 .9 2.1 3.5 3.5 0 0 0 2.3.6 5 5 0 0 0 1.8-.2l1.2-.6zm-4.4-8a2.4 2.4 0 0 0-1.9.7 2.9 2.9 0 0 0-.7 1.8h4.7a2.4 2.4 0 0 0-.4-1.8 1.9 1.9 0 0 0-1.7-.7zm20.5-3.2h-2.9a.7.7 0 0 0-.6.3.5.5 0 0 0-.2.4 1.3 1.3 0 0 0-.1.6h2.4v2.5h-2.4v8.5h-2.9v-8.5h-1.7v-2.5h1.7v-.3a6.8 6.8 0 0 1 .2-1.5 2.3 2.3 0 0 1 .8-1.1 2.6 2.6 0 0 1 1.5-.7 7.5 7.5 0 0 1 2.3-.3h4.9V133a3.7 3.7 0 0 0 .2 1.2 1.2 1.2 0 0 0 .8.4h1.2l.3 2.2-1.2.4-1.5.2a2.8 2.8 0 0 1-2-.6 2.3 2.3 0 0 1-.8-1.9zm6.4 6.7a6.1 6.1 0 0 1 1.4-4.2 5.4 5.4 0 0 1 4.2-1.6 6.1 6.1 0 0 1 2.4.4 4.6 4.6 0 0 1 1.8 1.3 5.2 5.2 0 0 1 1 1.8 8.5 8.5 0 0 1 .4 2.3 10.1 10.1 0 0 1-.4 2.5 5.4 5.4 0 0 1-1.1 1.8 5.7 5.7 0 0 1-1.8 1.2 8.5 8.5 0 0 1-2.3.4 6.2 6.2 0 0 1-2.5-.5 5.7 5.7 0 0 1-1.8-1.2 5.7 5.7 0 0 1-1-1.9 8 8 0 0 1-.3-2.3zm3 0a5.1 5.1 0 0 0 .2 1.3 2.1 2.1 0 0 0 .4 1.1 2.7 2.7 0 0 0 .8.7 2.1 2.1 0 0 0 1.2.3c1.7 0 2.5-1.1 2.5-3.4a5.3 5.3 0 0 0-.1-1.3 2.2 2.2 0 0 0-.5-1.1l-.7-.7a2.5 2.5 0 0 0-1.2-.2 2.1 2.1 0 0 0-1.9.8 3.4 3.4 0 0 0-.7 2.5zm18.9-5.5c.3.9.7 1.9 1.1 2.8s.7 1.9 1.1 2.8l.4 1.8h.3l.3-1.8c.3-1 .5-1.9.8-2.8s.5-1.8.8-2.8h2.7l-3.8 11.1h-2.1q-.6-1.3-1.2-3a23.4 23.4 0 0 1-1.2-3l-.3-1.5h-.4l-.2.8c0 .2-.1.5-.1.7l-2.3 6h-2.2l-3.9-11.1h3.2l1.8 5.5.3 2h.3l.4-2.1 2-5.4zm18 10a6.7 6.7 0 0 1-1.9 1 11 11 0 0 1-2.7.4 5.3 5.3 0 0 1-4.1-1.6 6.3 6.3 0 0 1-1.3-4.3 5.8 5.8 0 0 1 1.5-4.3 5.4 5.4 0 0 1 4.2-1.5l1.7.2a3.6 3.6 0 0 1 1.5.8 3.5 3.5 0 0 1 1.1 1.3 4.8 4.8 0 0 1 .4 2.2v1c-.1.3-.1.7-.2 1.1h-7.4a3.4 3.4 0 0 0 .9 2.1 3.5 3.5 0 0 0 2.3.6 5 5 0 0 0 1.8-.2l1.2-.6zm-4.4-8a2.2 2.2 0 0 0-1.9.7 3.7 3.7 0 0 0-.8 1.8h4.8a3 3 0 0 0-.4-1.8 1.9 1.9 0 0 0-1.7-.7zm14 .7l-1.3-.2a2.4 2.4 0 0 0-1.5.4 2.1 2.1 0 0 0-.8 1.1v7h-2.9v-11h2.3l.3 1.5h.3a2.8 2.8 0 0 1 1.1-1.3 2.9 2.9 0 0 1 1.6-.4 3.2 3.2 0 0 1 1.3.2zm2 5.5l.7.3.8.3.9.2h1a1.8 1.8 0 0 0 1.1-.2c.3-.1.4-.4.4-.8a.9.9 0 0 0-.5-.8l-1.4-.5-1.2-.4a3.4 3.4 0 0 1-1.2-.6 3.4 3.4 0 0 1-1.2-2.6 3 3 0 0 1 1-2.5 4.5 4.5 0 0 1 3-.9l2.4.2 1.7.5-.6 2.3-1.4-.5-1.7-.2-1.1.2a1 1 0 0 0-.4.8.7.7 0 0 0 .6.7l1.4.5 1.2.4a2.4 2.4 0 0 1 1.1.6 2.2 2.2 0 0 1 .9 1 2.4 2.4 0 0 1 .4 1.5 3.4 3.4 0 0 1-1.2 2.7 5.3 5.3 0 0 1-3.4 1 8.5 8.5 0 0 1-2.3-.3 4.8 4.8 0 0 1-1.8-.6z"/></g></symbol><symbol id="flower-1" viewBox="0 0 159.8 184.6"><g id="flower-1"><path fill="#fadb94" d="M159.8 46.1L79.9 0 0 46.1v92.3l79.9 46.2 79.9-46.2V46.1z"/><path fill="#fff" d="M85.1 82.7l13.1-25.5L81 38.9 63.8 57.2l13.3 25.5a10.6 10.6 0 0 1 4-.8 11 11 0 0 1 4 .8zm36.4 7.7l8.7-25.7-27.7-2-12.7 23.5a10.7 10.7 0 0 1 2 3.8zM60 61.2l-28.2 2.3 8.5 26.9h30a12.2 12.2 0 0 1 2.8-5.1zm17.9 42.5l-12.6 24.2 17.2 18.3 17.3-18.3-13.1-25.3a10.8 10.8 0 0 1-5.6 1.6 11.3 11.3 0 0 1-3.2-.5zm25.3 18.7l29.1-2-10.1-25.7-30.2.4a12.6 12.6 0 0 1-1.5 3.8zM41 94.7l-9.2 26.9 28.9 2.3 12.5-23a11.8 11.8 0 0 1-3.1-6.2z"/></g></symbol><symbol id="hut-3-text" viewBox="0 0 161 184.6"><g id="Layer_9"><path fill="#fadb94" d="M160.4 46.1L80.5 0 .6 46.1v92.3l79.9 46.2 79.9-46.2V46.1z"/><path fill="#fff" d="M56.9 59l23.5-14.5L105.7 59l3.3 14.5L80.4 59 52 73.5z"/><path fill="#fff" d="M52 80.9l28.4-14.4L109 80.9v14.5L80.4 80.9 52 95.4z"/><path fill="#fff" d="M80.4 88.1L52 102.5v37.6h16.5c.2-8 1.8-26.2 13.6-26.2s12.8 18.2 13 26.2H109v-37.6z"/><path fill="#4c4a4b" d="M160.4 46.1L80.5 0 .6 46.1v92.3l79.9 46.2 79.9-46.2V46.1z" opacity=".85"/><path fill="#fff" d="M20.5 57.5a2.7 2.7 0 0 0 1.3-.2l.9-.4a3.5 3.5 0 0 0 .5-.8 1.1 1.1 0 0 0 .2-.8 1.8 1.8 0 0 0-.8-1.7 3.9 3.9 0 0 0-2.4-.5h-1.7v-1.6l2.7-3.3 1.4-1-1.9.2h-3.8V45h8.8v1.6l-3.2 3.8-1 .6h1a3.2 3.2 0 0 1 1.4.3 5.7 5.7 0 0 1 1.3.8 5.7 5.7 0 0 1 .8 1.3 4.7 4.7 0 0 1 .4 1.7 5.1 5.1 0 0 1-.5 2.2 4.4 4.4 0 0 1-1.2 1.5 5.6 5.6 0 0 1-1.9.9 7.8 7.8 0 0 1-2.2.3h-2.1l-.9-.2-.8-.3.8-2.4 1.3.4a4.1 4.1 0 0 0 1.6 0zm8.1.8a1.7 1.7 0 0 1 .5-1.3 2.1 2.1 0 0 1 1.4-.4 1.8 1.8 0 0 1 1.3.4 1.7 1.7 0 0 1 .5 1.3 1.7 1.7 0 0 1-.5 1.2 1.8 1.8 0 0 1-1.3.4 2.1 2.1 0 0 1-1.4-.4 1.7 1.7 0 0 1-.5-1.2zm21-10.6h-4.7v12h-3.1v-12h-4.7V45h12.5zm9.2 12v-6.1a3.4 3.4 0 0 0-.5-2 1.8 1.8 0 0 0-1.6-.6 2.3 2.3 0 0 0-1.5.5 1.9 1.9 0 0 0-.9 1.4v6.8h-3V45h3v5h.2a5.3 5.3 0 0 1 1.4-1.2 4.8 4.8 0 0 1 2.2-.5 4.1 4.1 0 0 1 1.6.3 2.6 2.6 0 0 1 1.1.7 5.2 5.2 0 0 1 .7 1.5 11.8 11.8 0 0 1 .2 2.2v6.7zm15.3-1a5.6 5.6 0 0 1-1.9.9 7.5 7.5 0 0 1-2.6.4 5.4 5.4 0 0 1-4.2-1.5 6.5 6.5 0 0 1-1.3-4.3 6 6 0 0 1 1.5-4.4 5.7 5.7 0 0 1 4.2-1.5 5.1 5.1 0 0 1 1.7.3 4.6 4.6 0 0 1 1.6.7 3 3 0 0 1 1 1.4 4.6 4.6 0 0 1 .4 2.1v1a4.3 4.3 0 0 1-.2 1.1H67a2.6 2.6 0 0 0 .8 2.1 3.3 3.3 0 0 0 2.4.7 4.7 4.7 0 0 0 1.7-.3 3.3 3.3 0 0 0 1.2-.6zm-4.4-8a2.4 2.4 0 0 0-1.9.7 2.5 2.5 0 0 0-.7 1.8h4.7a2.8 2.8 0 0 0-.4-1.9 2.1 2.1 0 0 0-1.7-.6zm20.7 9v-6.1a3.5 3.5 0 0 0-.4-2 1.8 1.8 0 0 0-1.6-.6 2.4 2.4 0 0 0-1.6.5 2.5 2.5 0 0 0-.9 1.3v6.9H83v-11h2.3l.3 1.5h.3a6.4 6.4 0 0 1 1.5-1.3 4.6 4.6 0 0 1 3.9-.3 2.1 2.1 0 0 1 1.1.7 3.5 3.5 0 0 1 .7 1.5 6.9 6.9 0 0 1 .3 2.2v6.7zm15.4-1a6.7 6.7 0 0 1-1.9.9 7.7 7.7 0 0 1-2.7.4 5.1 5.1 0 0 1-4.1-1.5 6.5 6.5 0 0 1-1.3-4.3 6.4 6.4 0 0 1 1.4-4.4 6.3 6.3 0 0 1 6-1.2 3.5 3.5 0 0 1 1.5.7 3.1 3.1 0 0 1 1.1 1.4 4.6 4.6 0 0 1 .4 2.1v1c-.1.4-.1.7-.2 1.1h-7.4a2.9 2.9 0 0 0 .9 2.1 2.9 2.9 0 0 0 2.3.7 4.8 4.8 0 0 0 1.8-.3l1.2-.6zm-4.4-8a2.2 2.2 0 0 0-1.9.7 3 3 0 0 0-.8 1.8h4.8a3.6 3.6 0 0 0-.4-1.9 2.2 2.2 0 0 0-1.7-.6zm15.7 8.3a7.5 7.5 0 0 1-1.8.8l-2 .2a5.5 5.5 0 0 1-2.4-.4 4 4 0 0 1-1.6-1.2 4.8 4.8 0 0 1-.9-1.9 8 8 0 0 1-.3-2.3 6.3 6.3 0 0 1 1.4-4.3 5 5 0 0 1 3.9-1.6l2.1.2 1.4.6-.7 2.3a4.5 4.5 0 0 0-1.1-.3h-1.2a2.8 2.8 0 0 0-2.1.7 4.1 4.1 0 0 0-.7 2.5 4.3 4.3 0 0 0 .2 1.2 3.7 3.7 0 0 0 .5 1.1l.9.6a2.8 2.8 0 0 0 1.3.3l1.4-.2 1-.4zm.8-10.3h1.7v-1.5l2.9-.8v2.3h3v2.4h-3v3.8a4.1 4.1 0 0 0 .3 1.9.9.9 0 0 0 1 .6h.8l.7-.2.7 2.2-1.6.5a5 5 0 0 1-1.7.2 2.9 2.9 0 0 1-2.4-.8 3.7 3.7 0 0 1-.7-2.6v-5.6h-1.7zm9.7.7a10.5 10.5 0 0 1 2.3-.7 14.2 14.2 0 0 1 2.9-.2 5.5 5.5 0 0 1 1.9.2 4.1 4.1 0 0 1 1.3.8 3.1 3.1 0 0 1 .6 1.3 3.9 3.9 0 0 1 .2 1.6 14.8 14.8 0 0 1-.1 2.1v2.2a8.6 8.6 0 0 0 .1 1.6 7 7 0 0 0 .3 1.4h-2.4l-.5-1.6h-.2a4.1 4.1 0 0 1-1.4 1.2 3.8 3.8 0 0 1-2.2.6 3.2 3.2 0 0 1-1.4-.3 2.3 2.3 0 0 1-1.2-.6 4.1 4.1 0 0 1-.7-1.1 2.4 2.4 0 0 1-.3-1.2 3.6 3.6 0 0 1 1.3-2.9 6.4 6.4 0 0 1 3.8-.9h2v-.7c0-.6-.1-1-.4-1.2s-.7-.4-1.5-.4l-1.9.2-1.7.6zm3.9 8.1a2 2 0 0 0 1.5-.5 3.8 3.8 0 0 0 .9-.9v-1.3h-1.8a2.7 2.7 0 0 0-1.7.4 1 1 0 0 0-.5 1 1.2 1.2 0 0 0 .4 1.1 1.6 1.6 0 0 0 1.2.2zm14.9-6.1a3.1 3.1 0 0 0-1.3-.3 2.5 2.5 0 0 0-1.5.5 1.8 1.8 0 0 0-.8 1.1v7h-2.9v-11h2.3l.3 1.5h.3a2.8 2.8 0 0 1 1.1-1.3 3 3 0 0 1 1.6-.5l1.3.2zM10.2 71.5a1.4 1.4 0 0 1 .5-1.1 2 2 0 0 1 1.4-.5 2.2 2.2 0 0 1 1.4.5 1.6 1.6 0 0 1 .5 1.1 1.4 1.4 0 0 1-.5 1 2.2 2.2 0 0 1-1.4.5 2 2 0 0 1-1.4-.5 1.4 1.4 0 0 1-.5-1zm.4 2.4h3v11h-3zm6.3 8.1l.7.3.8.3 1 .2h.9l1.2-.2a1.3 1.3 0 0 0 .4-.9.7.7 0 0 0-.6-.7l-1.3-.4-1.2-.4-1.2-.6a2.4 2.4 0 0 1-.9-1.1 3.3 3.3 0 0 1-.3-1.5 3.1 3.1 0 0 1 1-2.6 4.4 4.4 0 0 1 2.9-.9 8.8 8.8 0 0 1 2.4.3l1.8.5-.6 2.2-1.4-.4a5.5 5.5 0 0 0-1.8-.2 1.5 1.5 0 0 0-1 .2.7.7 0 0 0-.4.7c0 .4.2.6.6.8l1.3.4 1.2.4 1.2.6a4.3 4.3 0 0 1 .9 1 3.3 3.3 0 0 1 .3 1.5 3.4 3.4 0 0 1-1.1 2.7 5 5 0 0 1-3.5 1l-2.3-.2a5.4 5.4 0 0 1-1.7-.7zm14.6-8.1h1.7v-1.5l3-.8v2.3h2.9v2.4h-2.9v3.8a4.5 4.5 0 0 0 .2 1.9 1.1 1.1 0 0 0 1.1.6h.8l.7-.2.6 2.2-1.5.5a5.2 5.2 0 0 1-1.7.2 2.9 2.9 0 0 1-2.4-.8 3.7 3.7 0 0 1-.8-2.6v-5.6h-1.7zm16.4 2.7a3.1 3.1 0 0 0-1.3-.3 2.5 2.5 0 0 0-1.5.5 1.8 1.8 0 0 0-.8 1.1v7h-2.9v-11h2.3l.3 1.5h.3a2.4 2.4 0 0 1 1.1-1.3 3 3 0 0 1 1.6-.5l1.3.2zm1.9-2a10.5 10.5 0 0 1 2.3-.7 13.7 13.7 0 0 1 2.9-.2 5.5 5.5 0 0 1 1.9.2 3.6 3.6 0 0 1 1.2.8 2.4 2.4 0 0 1 .7 1.3 7 7 0 0 1 .2 1.6 14.8 14.8 0 0 1-.1 2.1c0 .7-.1 1.4-.1 2.2s.1 1.1.1 1.6a7.4 7.4 0 0 0 .4 1.4h-2.4l-.5-1.6h-.2a5.3 5.3 0 0 1-1.4 1.2 3.8 3.8 0 0 1-2.2.6 4 4 0 0 1-1.5-.3 2.4 2.4 0 0 1-1.1-.6 2.6 2.6 0 0 1-.7-1.1 2.4 2.4 0 0 1-.3-1.2 3.4 3.4 0 0 1 1.3-2.9 6.4 6.4 0 0 1 3.8-.9H56a2 2 0 0 0 .1-.7c0-.6-.1-1-.4-1.2a2.1 2.1 0 0 0-1.5-.4l-1.9.2-1.7.6zm3.8 8.1a2.1 2.1 0 0 0 1.6-.5 3.8 3.8 0 0 0 .9-.9V80h-1.8a2.5 2.5 0 0 0-1.7.4 1.1 1.1 0 0 0-.6 1 1.3 1.3 0 0 0 .5 1.1 1.4 1.4 0 0 0 1.1.2zm15.9 2.2v-6.1a3.4 3.4 0 0 0-.5-2 1.6 1.6 0 0 0-1.5-.6 2.2 2.2 0 0 0-1.6.5A1.8 1.8 0 0 0 65 78v6.9h-2.9v-11h2.3l.3 1.5h.3a5.8 5.8 0 0 1 1.4-1.3 4.3 4.3 0 0 1 2.4-.6 4.1 4.1 0 0 1 1.6.3 2.6 2.6 0 0 1 1.1.7 5.2 5.2 0 0 1 .7 1.5 12.7 12.7 0 0 1 .2 2.2v6.7zm5.9-2.9l.7.3.9.3.9.2h.9l1.2-.2a1.3 1.3 0 0 0 .4-.9.7.7 0 0 0-.6-.7l-1.3-.5-1.2-.4-1.2-.6a2.4 2.4 0 0 1-.9-1.1 3.3 3.3 0 0 1-.3-1.5 3.1 3.1 0 0 1 1-2.6 4.5 4.5 0 0 1 3-.9 8.5 8.5 0 0 1 2.3.3l1.8.5-.6 2.2-1.4-.3a5.2 5.2 0 0 0-1.7-.2c-.5 0-.9 0-1.1.2a.7.7 0 0 0-.4.7c0 .4.2.6.6.8l1.3.4 1.2.4 1.2.6a4.3 4.3 0 0 1 .9 1 3.3 3.3 0 0 1 .3 1.5 3.4 3.4 0 0 1-1.1 2.7 5 5 0 0 1-3.5 1l-2.3-.2a5.4 5.4 0 0 1-1.7-.7zm10.2-8.1h2.1l.4 1.3h.2a3.5 3.5 0 0 1 1.5-1.2 4.6 4.6 0 0 1 2-.5 4.3 4.3 0 0 1 3.4 1.4 6.8 6.8 0 0 1 1.1 4.2 6.6 6.6 0 0 1-.4 2.5 6.3 6.3 0 0 1-1 2 6.6 6.6 0 0 1-1.7 1.2 6.1 6.1 0 0 1-2.4.4h-1.2l-1.1-.4v4.4h-2.9zm5.3 2.1a2.3 2.3 0 0 0-1.5.5 2.4 2.4 0 0 0-.9 1.4v4.2l.8.5 1.1.2a2.7 2.7 0 0 0 2.2-.9 5.4 5.4 0 0 0 .7-2.9 3.8 3.8 0 0 0-.6-2.2 1.9 1.9 0 0 0-1.8-.8zm7.1 3.4a5.9 5.9 0 0 1 1.5-4.3 5.5 5.5 0 0 1 4.1-1.6 6.2 6.2 0 0 1 2.5.5 4.3 4.3 0 0 1 1.7 1.2 5.9 5.9 0 0 1 1.1 1.9 8 8 0 0 1 .3 2.3 6.1 6.1 0 0 1-.4 2.4 5.2 5.2 0 0 1-1.1 1.9 4.2 4.2 0 0 1-1.7 1.1 7.4 7.4 0 0 1-4.8 0 4.6 4.6 0 0 1-1.8-1.3 4 4 0 0 1-1-1.8 8.5 8.5 0 0 1-.4-2.3zm3.1 0a5.7 5.7 0 0 0 .1 1.3 3.1 3.1 0 0 0 .5 1 1.6 1.6 0 0 0 .8.8 2 2 0 0 0 1.1.2c1.7 0 2.6-1.1 2.6-3.3 0-.5-.1-1-.1-1.4a3.1 3.1 0 0 0-.5-1 1.8 1.8 0 0 0-.8-.7 2.1 2.1 0 0 0-1.2-.3 2.2 2.2 0 0 0-1.8.8 3.7 3.7 0 0 0-.7 2.6zm17-2.8l-1.2-.3a2.5 2.5 0 0 0-1.6.5 1.6 1.6 0 0 0-.7 1.1v7h-3v-11h2.3l.3 1.5h.3a3.6 3.6 0 0 1 1.1-1.3 3 3 0 0 1 1.6-.5l1.3.2zm1.4-2.7h1.7v-1.5l2.9-.8v2.3h3v2.4h-3v3.8a4.1 4.1 0 0 0 .3 1.9 1 1 0 0 0 1 .6h.9l.7-.2.6 2.2-1.6.4a4.4 4.4 0 0 1-1.6.2 2.9 2.9 0 0 1-2.4-.8 3.7 3.7 0 0 1-.8-2.6v-5.5h-1.7zm19.2 10a9 9 0 0 1-4.6 1.3 5.4 5.4 0 0 1-4.2-1.5 6.5 6.5 0 0 1-1.3-4.3 6 6 0 0 1 1.5-4.4 5.7 5.7 0 0 1 4.2-1.5 4.7 4.7 0 0 1 1.7.3 4.6 4.6 0 0 1 1.6.7 3 3 0 0 1 1 1.4 4.6 4.6 0 0 1 .5 2.1c0 .3-.1.7-.1 1a4.3 4.3 0 0 1-.2 1.1h-7.3a2.6 2.6 0 0 0 .8 2.1 3.3 3.3 0 0 0 2.4.7 4.7 4.7 0 0 0 1.7-.3l1.3-.6zm-4.5-8a2.4 2.4 0 0 0-1.9.7 3 3 0 0 0-.7 1.8h4.7a2.8 2.8 0 0 0-.4-1.9 2.1 2.1 0 0 0-1.7-.6zm17.5 5.1a12.8 12.8 0 0 0 .1 1.9 7.1 7.1 0 0 0 .2 2h-2.1l-.4-1.5h-.3a3.5 3.5 0 0 1-1.4 1.3 4.3 4.3 0 0 1-2.1.5 4.3 4.3 0 0 1-3.4-1.4 6.2 6.2 0 0 1-1.2-4.2 9.5 9.5 0 0 1 .3-2.5 6.7 6.7 0 0 1 1-1.9 6.6 6.6 0 0 1 1.7-1.2 6.1 6.1 0 0 1 2.4-.4h1.2l1.1.3v-3.7h2.9zm-5.2 1.7a2.1 2.1 0 0 0 2.3-1.7v-4.4l-.8-.4-1.1-.2a2.6 2.6 0 0 0-2.1.8 4.4 4.4 0 0 0-.7 2.9 3.8 3.8 0 0 0 .6 2.2 1.9 1.9 0 0 0 1.8.8zM25.6 95.4h2.9v4.6h.3a2.5 2.5 0 0 1 1.3-.9 4.7 4.7 0 0 1 1.7-.3 4.2 4.2 0 0 1 3.3 1.4 6.7 6.7 0 0 1 1.1 4.1 7.5 7.5 0 0 1-.4 2.6 7.6 7.6 0 0 1-1.2 1.9 5.7 5.7 0 0 1-1.8 1.2 10.1 10.1 0 0 1-2.5.4 12 12 0 0 1-2.8-.3 6.4 6.4 0 0 1-1.9-.5zm2.9 12.2l.9.3h1c1.9 0 2.8-1.2 2.8-3.6a3.9 3.9 0 0 0-.6-2.3 2 2 0 0 0-1.7-.8 2.5 2.5 0 0 0-1.5.5 2.5 2.5 0 0 0-.9 1.3zm10-7.8a10.5 10.5 0 0 1 2.3-.7 13.2 13.2 0 0 1 2.8-.2 5.9 5.9 0 0 1 2 .2 3.6 3.6 0 0 1 1.2.8 3.3 3.3 0 0 1 .7 1.3 7 7 0 0 1 .2 1.6 14.8 14.8 0 0 1-.1 2.1c0 .7-.1 1.4-.1 2.2s.1 1.1.1 1.6a7.4 7.4 0 0 0 .4 1.4h-2.4l-.5-1.6h-.3a3.7 3.7 0 0 1-1.3 1.2 3.8 3.8 0 0 1-2.2.6 4 4 0 0 1-1.5-.3 2.4 2.4 0 0 1-1.1-.6 2.6 2.6 0 0 1-.7-1.1 2.4 2.4 0 0 1-.3-1.2 3.4 3.4 0 0 1 1.3-2.9 6.1 6.1 0 0 1 3.7-.9h2a2 2 0 0 0 .1-.7c0-.6-.1-1-.4-1.2a2.1 2.1 0 0 0-1.5-.4l-2 .2-1.6.6zm3.8 8.1a2.1 2.1 0 0 0 1.6-.5l.9-.9v-1.3H43a2.5 2.5 0 0 0-1.7.4 1.1 1.1 0 0 0-.6 1 1.3 1.3 0 0 0 .5 1.1 1.2 1.2 0 0 0 1.1.2zm16.8 1.5a7.5 7.5 0 0 1-1.8.8l-2 .2a5.5 5.5 0 0 1-2.4-.4 4 4 0 0 1-1.6-1.2 4.8 4.8 0 0 1-.9-1.9 8 8 0 0 1-.3-2.3 6.3 6.3 0 0 1 1.4-4.3 5 5 0 0 1 3.9-1.6l2.1.2 1.4.6-.7 2.3a4.5 4.5 0 0 0-1.1-.3h-1.2a2.8 2.8 0 0 0-2.1.7 4.1 4.1 0 0 0-.7 2.5 4.3 4.3 0 0 0 .2 1.2 3.7 3.7 0 0 0 .5 1.1 4.7 4.7 0 0 0 .9.6 2.8 2.8 0 0 0 1.3.3l1.4-.2 1-.4zm6.1-3.9h-1v4.6h-3V95.4h3v8.4l.9-.4 2.8-4.3h3.2l-2.8 4-1.3.9 1.4 1h-.1l3.3 5.1h-3.4zm11.6-6.4h1.7v-1.5l2.9-.8v2.3h3v2.4h-3v3.8a4.1 4.1 0 0 0 .3 1.9 1 1 0 0 0 1 .6h.8l.8-.2.6 2.2-1.6.5a5 5 0 0 1-1.7.2 2.9 2.9 0 0 1-2.4-.8 3.7 3.7 0 0 1-.7-2.6v-5.5h-1.7zm9.1 5.5a6.3 6.3 0 0 1 1.4-4.3 5.7 5.7 0 0 1 4.2-1.6 6 6 0 0 1 2.4.5 5.7 5.7 0 0 1 1.8 1.2 5.7 5.7 0 0 1 1 1.9 8 8 0 0 1 .3 2.3 8.8 8.8 0 0 1-.3 2.4 7.2 7.2 0 0 1-1.1 1.9 5.4 5.4 0 0 1-1.8 1.1 5.9 5.9 0 0 1-2.3.4 6.2 6.2 0 0 1-2.5-.4 4.6 4.6 0 0 1-1.8-1.3 5.2 5.2 0 0 1-1-1.8 8.5 8.5 0 0 1-.3-2.3zm3 0a5.7 5.7 0 0 0 .1 1.3 3.1 3.1 0 0 0 .5 1 2 2 0 0 0 .8.8 2.2 2.2 0 0 0 1.2.2c1.7 0 2.5-1.1 2.5-3.3a6.1 6.1 0 0 0-.1-1.4 3.1 3.1 0 0 0-.5-1 1.4 1.4 0 0 0-.8-.7 2 2 0 0 0-1.1-.3 2.4 2.4 0 0 0-1.9.8 3.7 3.7 0 0 0-.7 2.6zm15-5.5h1.7v-1.5l2.9-.8v2.3h3v2.4h-3v3.8a4.1 4.1 0 0 0 .3 1.9 1 1 0 0 0 1 .6h.8l.7-.2.7 2.2-1.6.5a5 5 0 0 1-1.7.2 2.9 2.9 0 0 1-2.4-.8 3.7 3.7 0 0 1-.7-2.6v-5.5h-1.7zm17.3 11V104a3.4 3.4 0 0 0-.5-2 1.8 1.8 0 0 0-1.6-.6 2.3 2.3 0 0 0-1.5.5 1.9 1.9 0 0 0-.9 1.4v6.8h-3V95.4h3v5h.2a5.3 5.3 0 0 1 1.4-1.2 4.8 4.8 0 0 1 2.2-.5 4.1 4.1 0 0 1 1.6.3 2.6 2.6 0 0 1 1.1.7 5.2 5.2 0 0 1 .7 1.5 11.8 11.8 0 0 1 .2 2.2v6.7zm15.3-1a5.6 5.6 0 0 1-1.9.9 7.5 7.5 0 0 1-2.6.4 5.4 5.4 0 0 1-4.2-1.5 6.5 6.5 0 0 1-1.3-4.3 6 6 0 0 1 1.5-4.4 5.7 5.7 0 0 1 4.2-1.5 5.1 5.1 0 0 1 1.7.3 4.6 4.6 0 0 1 1.6.7 3 3 0 0 1 1 1.4 4.6 4.6 0 0 1 .4 2.1v1a4.3 4.3 0 0 1-.2 1.1h-7.3a2.6 2.6 0 0 0 .8 2.1 3.3 3.3 0 0 0 2.4.7 4.7 4.7 0 0 0 1.7-.3 3.3 3.3 0 0 0 1.2-.6zm-4.4-8a2.4 2.4 0 0 0-1.9.7 2.5 2.5 0 0 0-.7 1.8h4.7a2.8 2.8 0 0 0-.4-1.9 2.1 2.1 0 0 0-1.7-.6zm-99.7 19.5h2.9v4.6h.3a2.7 2.7 0 0 1 1.2-.9 5.2 5.2 0 0 1 1.8-.3 3.9 3.9 0 0 1 3.2 1.4 6.1 6.1 0 0 1 1.2 4.1 10.9 10.9 0 0 1-.4 2.6 7.6 7.6 0 0 1-1.2 1.9 5.2 5.2 0 0 1-1.9 1.2 8.6 8.6 0 0 1-2.4.4 11.4 11.4 0 0 1-2.8-.3 5.6 5.6 0 0 1-1.9-.5zm2.9 12.2l.9.3h1q2.7 0 2.7-3.6a3.9 3.9 0 0 0-.5-2.3 2.1 2.1 0 0 0-1.7-.8 2.5 2.5 0 0 0-1.5.5 2.5 2.5 0 0 0-.9 1.3zm19.5 1.5a6.3 6.3 0 0 1-2 .9 7.5 7.5 0 0 1-2.6.4c-1.9 0-3.3-.5-4.1-1.5a6.5 6.5 0 0 1-1.4-4.3 6 6 0 0 1 1.5-4.4 6.3 6.3 0 0 1 6-1.2 5.1 5.1 0 0 1 1.5.7 4 4 0 0 1 1.1 1.4 6.5 6.5 0 0 1 .4 2.1 3.4 3.4 0 0 1-.1 1c0 .4-.1.7-.1 1.1h-7.4a3.4 3.4 0 0 0 .8 2.1 3.3 3.3 0 0 0 2.4.7 5.2 5.2 0 0 0 1.8-.3l1.2-.6zm-4.4-8a2.6 2.6 0 0 0-2 .7 3 3 0 0 0-.7 1.8h4.8a2.9 2.9 0 0 0-.5-1.9 2 2 0 0 0-1.6-.6zm16.7 8a5.6 5.6 0 0 1-1.9.9 7.5 7.5 0 0 1-2.6.4 5.4 5.4 0 0 1-4.2-1.5 6.5 6.5 0 0 1-1.3-4.3 6 6 0 0 1 1.5-4.4 5.7 5.7 0 0 1 4.2-1.5 5.1 5.1 0 0 1 1.7.3 3.5 3.5 0 0 1 1.5.7 2.6 2.6 0 0 1 1.1 1.4 4.6 4.6 0 0 1 .4 2.1v1c-.1.4-.1.7-.2 1.1H60a2.6 2.6 0 0 0 .8 2.1 3.2 3.2 0 0 0 2.3.7 4.8 4.8 0 0 0 1.8-.3l1.2-.6zm-4.4-8a2.4 2.4 0 0 0-1.9.7 2.5 2.5 0 0 0-.7 1.8h4.7a2.8 2.8 0 0 0-.4-1.9 2.2 2.2 0 0 0-1.7-.6zm6.8-5.7h2.6l-.8 4.6h-1.8zm3.5 11.8l.7.3.9.3.9.2h.9l1.2-.2a1 1 0 0 0 .4-.9.7.7 0 0 0-.6-.7l-1.3-.5-1.2-.4-1.2-.6a2.4 2.4 0 0 1-.9-1.1 3.3 3.3 0 0 1-.3-1.5 3.1 3.1 0 0 1 1-2.6 4.5 4.5 0 0 1 3-.9 8.5 8.5 0 0 1 2.3.3 6.5 6.5 0 0 1 1.8.5l-.6 2.2-1.4-.4a5.2 5.2 0 0 0-1.7-.2c-.5 0-.9 0-1.1.2a.7.7 0 0 0-.4.7c0 .4.2.6.6.8l1.3.4 1.2.4 1.2.6a2.8 2.8 0 0 1 .9 1 3.3 3.3 0 0 1 .3 1.5 3.1 3.1 0 0 1-1.1 2.7 4.9 4.9 0 0 1-3.4 1l-2.4-.2a5.4 5.4 0 0 1-1.7-.7zm23.4 2.9v-6.1a3.5 3.5 0 0 0-.4-2 1.8 1.8 0 0 0-1.6-.6 2.1 2.1 0 0 0-1.5.5 2.4 2.4 0 0 0-1 1.4v6.8H89v-14.7h2.9v5h.3a4.1 4.1 0 0 1 1.4-1.2 4.8 4.8 0 0 1 2.2-.5 3.3 3.3 0 0 1 1.5.3 2.4 2.4 0 0 1 1.2.7 3.4 3.4 0 0 1 .6 1.5 6.5 6.5 0 0 1 .3 2.2v6.7zm5.9-13.4a1.4 1.4 0 0 1 .5-1.1 2 2 0 0 1 1.4-.5 2.2 2.2 0 0 1 1.4.5 1.6 1.6 0 0 1 .5 1.1 1.4 1.4 0 0 1-.5 1 2.2 2.2 0 0 1-1.4.5 2 2 0 0 1-1.4-.5 1.4 1.4 0 0 1-.5-1zm.5 2.4h2.9v11h-2.9zm10.1 5.7l.5 1.7h.3l.3-1.8 2.1-5.6h3.2l-5.1 11.1h-1.7l-5.2-11.1h3.4zm16.9 4.3a6.3 6.3 0 0 1-2 .9 7.5 7.5 0 0 1-2.6.4 5.4 5.4 0 0 1-4.2-1.5 7.1 7.1 0 0 1-1.3-4.3 6 6 0 0 1 1.5-4.4 6.3 6.3 0 0 1 6-1.2 5.1 5.1 0 0 1 1.5.7 4 4 0 0 1 1.1 1.4 6.5 6.5 0 0 1 .4 2.1 3.4 3.4 0 0 1-.1 1 4.3 4.3 0 0 1-.2 1.1h-7.3a2.9 2.9 0 0 0 .8 2.1 3.3 3.3 0 0 0 2.4.7l1.8-.3 1.2-.6zm-4.4-8a2.6 2.6 0 0 0-2 .7 3 3 0 0 0-.7 1.8h4.7a2.4 2.4 0 0 0-.4-1.9 2 2 0 0 0-1.6-.6z"/></g></symbol><symbol id="hut-3" viewBox="0 0 161 184.6"><g id="hut-3"><path fill="#fadb94" d="M160.4 46.1L80.5 0 .6 46.1v92.3l79.9 46.2 79.9-46.2V46.1z"/><path fill="#fff" d="M56.9 59l23.5-14.5L105.7 59l3.3 14.5L80.4 59 52 73.5z"/><path fill="#fff" d="M52 80.9l28.4-14.4L109 80.9v14.5L80.4 80.9 52 95.4z"/><path fill="#fff" d="M80.4 88.1L52 102.5v37.6h16.5c.2-8 1.8-26.2 13.6-26.2s12.8 18.2 13 26.2H109v-37.6z"/></g></symbol><symbol id="jar-5" viewBox="0 0 159.8 184.6"><g id="jar-5"><path fill="#fadb94" d="M159.8 46.1L79.9 0 0 46.1v92.3l79.9 46.2 79.9-46.2V46.1z"/><path fill="#fff" d="M92.8 74.9h.8v25.3c-14 7.3-27.6 0-27.6 0V75.6a70.3 70.3 0 0 1-23.7-6.7l.4 63.6s35.7 13.9 74.8 0V68.9a121.4 121.4 0 0 1-24.7 6z"/><path fill="#fff" d="M42.3 57.8v6.6s33.5 15.8 75.2 0v-6.6s-38.9 18-75.2 0z"/><path fill="#fff" d="M42.3 54.1s33.7-18.4 73.7 0c0 0-35.8 15.8-73.7 0z"/></g></symbol><symbol id="open" viewBox="0 0 71.6 65.5"><path fill="none" stroke="#fff" stroke-miterlimit="10" stroke-width="14" d="M71.6 7.2L0 7m71.6 25.8L0 32.6m71.6 25.9L0 58.3"/></symbol><symbol id="jar-5-text" viewBox="0 0 159.8 184.6"><g id="Layer_8"><path fill="#fadb94" d="M159.8 46.1L79.9 0 0 46.1v92.3l79.9 46.2 79.9-46.2V46.1z"/><path fill="#fff" d="M92.8 74.9h.8v25.3c-14 7.3-27.6 0-27.6 0V75.6a70.3 70.3 0 0 1-23.7-6.7l.4 63.6s35.7 13.9 74.8 0V68.9a121.4 121.4 0 0 1-24.7 6z"/><path fill="#fff" d="M42.3 57.8v6.6s33.5 15.8 75.2 0v-6.6s-38.9 18-75.2 0z"/><path fill="#fff" d="M42.3 54.1s33.7-18.4 73.7 0c0 0-35.8 15.8-73.7 0z"/><path fill="#4c4a4b" d="M159.8 46.1L79.9 0 0 46.1v92.3l79.9 46.2 79.9-46.2V46.1z" opacity=".85"/><path fill="#fff" d="M19.7 56.2a3.9 3.9 0 0 0 2.3-.6 2 2 0 0 0 .8-1.7 1.9 1.9 0 0 0-1-1.8 4.8 4.8 0 0 0-2.6-.6h-1.9v-7.7h7.9v2.8h-5.3v2.6h.9a4.6 4.6 0 0 1 2.1.4 3.8 3.8 0 0 1 1.5.9 4 4 0 0 1 1 1.5 5.8 5.8 0 0 1 .3 1.9 4.3 4.3 0 0 1-1.7 3.7 5.6 5.6 0 0 1-1.9.9 8.8 8.8 0 0 1-2.4.3h-2a5.3 5.3 0 0 1-1.5-.5l.8-2.4 1.1.3zm8.6.9a1.3 1.3 0 0 1 .5-1.2 1.8 1.8 0 0 1 1.3-.4 1.7 1.7 0 0 1 1.3.4 1.7 1.7 0 0 1 0 2.4 1.7 1.7 0 0 1-1.3.5 1.9 1.9 0 0 1-1.3-.5 1.3 1.3 0 0 1-.5-1.2zm20.9-10.5h-4.7v11.9h-3.1V46.6h-4.6v-2.8h12.4zm9.2 11.9v-6a4.8 4.8 0 0 0-.4-2.1 2 2 0 0 0-1.6-.6 3 3 0 0 0-1.6.5 2.9 2.9 0 0 0-.9 1.5v6.7H51V43.8h2.9v5.1h.2a4.4 4.4 0 0 1 1.5-1.2 4.1 4.1 0 0 1 2.1-.5l1.6.2a2.8 2.8 0 0 1 1.1.8 3.7 3.7 0 0 1 .7 1.4 7.2 7.2 0 0 1 .2 2.2v6.7zm15.4-1a6.2 6.2 0 0 1-2 1 10.9 10.9 0 0 1-2.6.4 5.4 5.4 0 0 1-4.2-1.6 6.9 6.9 0 0 1-1.3-4.3 5.8 5.8 0 0 1 1.5-4.3 5.7 5.7 0 0 1 4.2-1.5l1.8.2a5.5 5.5 0 0 1 1.5.8 4.7 4.7 0 0 1 1.1 1.3 6.7 6.7 0 0 1 .4 2.2 3.8 3.8 0 0 1-.1 1 5.2 5.2 0 0 1-.2 1.1h-7.3a3.3 3.3 0 0 0 .8 2.1 3.8 3.8 0 0 0 2.4.6l1.8-.2 1.2-.6zm-4.4-8a2.6 2.6 0 0 0-2 .7 3.6 3.6 0 0 0-.7 1.8h4.7a2.1 2.1 0 0 0-.4-1.8 1.8 1.8 0 0 0-1.6-.7zm20.7 9v-6a3.6 3.6 0 0 0-.5-2.1 1.8 1.8 0 0 0-1.6-.6 3 3 0 0 0-1.5.5 2.4 2.4 0 0 0-.9 1.5v6.7h-3V43.8h3v5.1h.2a5.3 5.3 0 0 1 1.4-1.2 4.8 4.8 0 0 1 2.2-.5l1.6.2a2.8 2.8 0 0 1 1.1.8 3.7 3.7 0 0 1 .7 1.4 12.7 12.7 0 0 1 .2 2.2v6.7zm5.3-5.5a6.1 6.1 0 0 1 1.4-4.2 5.4 5.4 0 0 1 4.2-1.6 6.1 6.1 0 0 1 2.4.4 4.6 4.6 0 0 1 1.8 1.3 5.2 5.2 0 0 1 1 1.8 8.5 8.5 0 0 1 .4 2.3 10.1 10.1 0 0 1-.4 2.5 5.4 5.4 0 0 1-1.1 1.8 5.7 5.7 0 0 1-1.8 1.2 7.9 7.9 0 0 1-2.3.4 6.2 6.2 0 0 1-2.5-.5 4.3 4.3 0 0 1-1.7-1.2 4.5 4.5 0 0 1-1.1-1.9 8 8 0 0 1-.3-2.3zm3 0a5.1 5.1 0 0 0 .2 1.3 3.6 3.6 0 0 0 .4 1.1 2.7 2.7 0 0 0 .8.7 2.1 2.1 0 0 0 1.2.3c1.7 0 2.5-1.1 2.5-3.4a5.3 5.3 0 0 0-.1-1.3 3.6 3.6 0 0 0-.4-1.1 2.7 2.7 0 0 0-.8-.7 2.5 2.5 0 0 0-1.2-.2 2.2 2.2 0 0 0-1.9.8 3.4 3.4 0 0 0-.7 2.5zm18 5.5v-6a3.8 3.8 0 0 0-.5-2.1 1.6 1.6 0 0 0-1.5-.6 2.8 2.8 0 0 0-1.6.5 2.2 2.2 0 0 0-.9 1.3v6.9H109v-11h2.3l.3 1.6h.3a4.4 4.4 0 0 1 1.4-1.3 4.3 4.3 0 0 1 2.4-.6l1.6.2a2.8 2.8 0 0 1 1.1.8 3.7 3.7 0 0 1 .7 1.4 14 14 0 0 1 .2 2.3v6.6zm15.4-1a6.2 6.2 0 0 1-2 1 10.9 10.9 0 0 1-2.6.4 5.4 5.4 0 0 1-4.2-1.6 6.9 6.9 0 0 1-1.3-4.3 5.8 5.8 0 0 1 1.5-4.3 5.7 5.7 0 0 1 4.2-1.5l1.8.2a5.5 5.5 0 0 1 1.5.8 4.7 4.7 0 0 1 1.1 1.3 6.7 6.7 0 0 1 .4 2.2 3.8 3.8 0 0 1-.1 1 5.2 5.2 0 0 1-.2 1.1h-7.3a3.3 3.3 0 0 0 .8 2.1 3.8 3.8 0 0 0 2.4.6l1.8-.2 1.2-.6zm-4.4-8a2.6 2.6 0 0 0-2 .7 3.6 3.6 0 0 0-.7 1.8h4.8a2.4 2.4 0 0 0-.5-1.8 1.8 1.8 0 0 0-1.6-.7zm11.1 4.1l.5 1.8h.2l.4-1.8 1.9-6.1h3l-3.7 10c-.3.8-.6 1.6-.9 2.2a4.6 4.6 0 0 1-.9 1.7 3.6 3.6 0 0 1-1 1.1 3.3 3.3 0 0 1-1.5.3h-1a1.1 1.1 0 0 1-.8-.3l.6-2.2h1.2l.5-.2.4-.5a1.9 1.9 0 0 0 .4-.9l-5.1-11.1h3.6zM22.4 70.3a1.5 1.5 0 0 1 .4-1.1 2.1 2.1 0 0 1 1.4-.4 2 2 0 0 1 1.4.4 1.3 1.3 0 0 1 0 2.2 2 2 0 0 1-1.4.4 2.1 2.1 0 0 1-1.4-.4 1.5 1.5 0 0 1-.4-1.1zm.4 2.4h2.9v11h-2.9zm6.3 8.2l.7.3.8.2.9.3h1c.5 0 .9 0 1.1-.2s.4-.4.4-.8a.7.7 0 0 0-.5-.8l-1.4-.5-1.2-.4a3.4 3.4 0 0 1-1.2-.6 3.4 3.4 0 0 1-1.2-2.6 3.4 3.4 0 0 1 1-2.5 4.5 4.5 0 0 1 3-.9l2.4.2 1.7.5-.6 2.3-1.4-.5-1.7-.2-1.1.2a1 1 0 0 0-.3.8.6.6 0 0 0 .5.7l1.4.5 1.2.4a3.4 3.4 0 0 1 1.2.6 2.7 2.7 0 0 1 .8 1 2.4 2.4 0 0 1 .4 1.5 3.4 3.4 0 0 1-1.2 2.7 5.3 5.3 0 0 1-3.4 1 8.5 8.5 0 0 1-2.3-.3 4.8 4.8 0 0 1-1.8-.6zM45 72.7h2.1l.4 1.4h.3a3.7 3.7 0 0 1 1.5-1.3 4 4 0 0 1 2-.4 3.9 3.9 0 0 1 3.3 1.3c.8.9 1.1 2.3 1.1 4.3a10.1 10.1 0 0 1-.3 2.5 5.9 5.9 0 0 1-1.1 1.9 3.5 3.5 0 0 1-1.7 1.2 5.6 5.6 0 0 1-2.3.5l-1.3-.2-1-.3v4.3h-3zm5.4 2.2a2.5 2.5 0 0 0-1.6.4 3.7 3.7 0 0 0-.8 1.4V81l.8.4a1.8 1.8 0 0 0 1.1.2 2.5 2.5 0 0 0 2.1-.9 4.3 4.3 0 0 0 .7-2.8 4.2 4.2 0 0 0-.5-2.2 1.9 1.9 0 0 0-1.8-.8zm10.7 5c0 1 .4 1.6 1.1 1.6h.5l.6-.2.4 2.3-1.2.4-1.6.2a3 3 0 0 1-2-.6 2.2 2.2 0 0 1-.7-1.9V69h2.9zm4-6.4a10.5 10.5 0 0 1 2.3-.7 13.6 13.6 0 0 1 2.9-.3 5.4 5.4 0 0 1 1.9.3 3.5 3.5 0 0 1 1.3.8 2.3 2.3 0 0 1 .6 1.2 7.8 7.8 0 0 1 .2 1.6 14.8 14.8 0 0 1-.1 2.1c0 .7-.1 1.5-.1 2.3a7.7 7.7 0 0 0 .2 1.5 4 4 0 0 0 .3 1.5h-2.4l-.5-1.7h-.2a8.6 8.6 0 0 1-1.4 1.3 4.8 4.8 0 0 1-2.2.5l-1.4-.2a3.5 3.5 0 0 1-1.2-.7 3.6 3.6 0 0 1-.7-1 2.8 2.8 0 0 1-.3-1.3 3.2 3.2 0 0 1 1.3-2.8 6.4 6.4 0 0 1 3.8-1h1.1l.9.2v-.8a1.6 1.6 0 0 0-.4-1.2 2.4 2.4 0 0 0-1.5-.3 6.2 6.2 0 0 0-1.9.2l-1.7.6zm3.8 8.1a2.5 2.5 0 0 0 1.6-.5 2.8 2.8 0 0 0 .9-1v-1.2h-1.8a3.5 3.5 0 0 0-1.7.4 1.2 1.2 0 0 0-.6 1 1.7 1.7 0 0 0 .5 1.2 1.8 1.8 0 0 0 1.1.1zm16.8 1.5l-1.7.7a7.6 7.6 0 0 1-2.1.3 5.4 5.4 0 0 1-2.4-.5 2.8 2.8 0 0 1-1.6-1.2 5.1 5.1 0 0 1-.9-1.8 8.8 8.8 0 0 1-.3-2.4 6.5 6.5 0 0 1 1.4-4.3 5 5 0 0 1 3.9-1.5l2.1.2 1.4.5-.7 2.4-1.1-.4h-1.2a2.5 2.5 0 0 0-2 .8 3.3 3.3 0 0 0-.7 2.4 5.3 5.3 0 0 0 .1 1.3 3.1 3.1 0 0 0 .5 1l.9.7a2.7 2.7 0 0 0 1.3.2H84l1-.4zm11.2-.4a7.5 7.5 0 0 1-2 1 10.9 10.9 0 0 1-2.6.4 5.4 5.4 0 0 1-4.2-1.6 6.9 6.9 0 0 1-1.3-4.3 5.8 5.8 0 0 1 1.5-4.3 5.7 5.7 0 0 1 4.2-1.5l1.7.2a4.8 4.8 0 0 1 1.6.8 4.7 4.7 0 0 1 1.1 1.3 6.7 6.7 0 0 1 .4 2.2 3.8 3.8 0 0 1-.1 1A5.2 5.2 0 0 1 97 79h-7.3a3.3 3.3 0 0 0 .8 2.1 3.8 3.8 0 0 0 2.4.6l1.8-.2 1.2-.6zm-4.4-8a2.4 2.4 0 0 0-2 .7 3.6 3.6 0 0 0-.7 1.8h4.7a2.1 2.1 0 0 0-.4-1.8 1.8 1.8 0 0 0-1.6-.7zm17.5 5.2v1.8a8.2 8.2 0 0 0 .2 2.1h-2.1l-.4-1.6h-.3a3.5 3.5 0 0 1-1.3 1.4 4.8 4.8 0 0 1-2.2.5 4.4 4.4 0 0 1-3.4-1.4 6.5 6.5 0 0 1-1.2-4.3 10.1 10.1 0 0 1 .3-2.5 7.2 7.2 0 0 1 1.1-1.9 4.3 4.3 0 0 1 1.7-1.2 7.3 7.3 0 0 1 2.3-.4h1.3l1 .3V69h3zm-5.3 1.7a2.5 2.5 0 0 0 1.5-.5 2.5 2.5 0 0 0 .8-1.2v-4.5l-.8-.4h-1.1a2.3 2.3 0 0 0-2.1.8 4.1 4.1 0 0 0-.7 2.8 3.6 3.6 0 0 0 .6 2.2 2 2 0 0 0 1.8.8zm14.1-11.3a1.6 1.6 0 0 1 .5-1.1 2 2 0 0 1 1.4-.4 2.1 2.1 0 0 1 1.4.4 1.5 1.5 0 0 1 0 2.2 2.1 2.1 0 0 1-1.4.4 2 2 0 0 1-1.4-.4 1.6 1.6 0 0 1-.5-1.1zm.5 2.4h2.9v11h-2.9zm13.7 11v-6a3.8 3.8 0 0 0-.5-2.1 1.6 1.6 0 0 0-1.5-.6 2.8 2.8 0 0 0-1.6.5 2.2 2.2 0 0 0-.9 1.3v6.9h-2.9v-11h2.3l.3 1.6h.3a4.4 4.4 0 0 1 1.4-1.3 4.3 4.3 0 0 1 2.4-.6l1.6.2a2.8 2.8 0 0 1 1.1.8 3.7 3.7 0 0 1 .7 1.4 14 14 0 0 1 .2 2.3v6.6zM8.6 97.9h2.9v11.5a4.6 4.6 0 0 1-.8 3.1 3 3 0 0 1-2.6 1.1l-1.5-.2V111h1a1 1 0 0 0 .6-.5.9.9 0 0 0 .3-.7 4.1 4.1 0 0 0 .1-1.1zm-.5-2.4a1.6 1.6 0 0 1 .5-1.1A2.1 2.1 0 0 1 10 94a2 2 0 0 1 1.4.4 1.5 1.5 0 0 1 0 2.2 2 2 0 0 1-1.4.4 2.1 2.1 0 0 1-1.4-.4 1.6 1.6 0 0 1-.5-1.1zm6.7 3.2a10.5 10.5 0 0 1 2.3-.7 12.7 12.7 0 0 1 2.8-.3 6 6 0 0 1 2 .3 2.5 2.5 0 0 1 1.2.8 3.5 3.5 0 0 1 .7 1.2 7.8 7.8 0 0 1 .2 1.6 14.8 14.8 0 0 1-.1 2.1 16.9 16.9 0 0 0-.1 2.3 7.6 7.6 0 0 0 .1 1.5 8.3 8.3 0 0 0 .4 1.5h-2.4l-.5-1.7h-.3a4.4 4.4 0 0 1-1.4 1.3 4.1 4.1 0 0 1-2.1.5l-1.5-.2a4.1 4.1 0 0 1-1.1-.7 3.9 3.9 0 0 1-.8-1 5.1 5.1 0 0 1-.2-1.3 3.4 3.4 0 0 1 1.2-2.8 6.6 6.6 0 0 1 3.8-1h1.2l.8.2a2.5 2.5 0 0 0 .1-.8 2.1 2.1 0 0 0-.4-1.2 2.8 2.8 0 0 0-1.5-.3 6.8 6.8 0 0 0-2 .2l-1.7.6zm3.8 8.1a2.5 2.5 0 0 0 1.6-.5 1.9 1.9 0 0 0 .8-1v-1.2h-1.8a3.1 3.1 0 0 0-1.6.4 1.2 1.2 0 0 0-.6 1 2.1 2.1 0 0 0 .4 1.2 2.1 2.1 0 0 0 1.2.1zm14.9-6.2l-1.2-.2a2.4 2.4 0 0 0-1.5.4 2.1 2.1 0 0 0-.8 1.1v7h-3v-11h2.3l.3 1.5h.3a4.7 4.7 0 0 1 1.1-1.3 3.3 3.3 0 0 1 1.7-.4 3.4 3.4 0 0 1 1.3.2zm2 5.5l.7.3.9.2.9.3h.9a2.2 2.2 0 0 0 1.2-.2.9.9 0 0 0 .4-.8c0-.4-.2-.6-.6-.8l-1.3-.5-1.2-.4a2.3 2.3 0 0 1-1.2-.6 2.2 2.2 0 0 1-.9-1 3.8 3.8 0 0 1-.3-1.6 3 3 0 0 1 1-2.5 4.5 4.5 0 0 1 3-.9l2.3.2 1.8.5-.6 2.3-1.4-.5-1.7-.2-1.1.2a.8.8 0 0 0-.4.8.7.7 0 0 0 .6.7l1.3.5 1.2.4a2.3 2.3 0 0 1 1.2.6c.4.2.6.6.9 1a3.3 3.3 0 0 1 .3 1.5 3.7 3.7 0 0 1-1.1 2.7 5.6 5.6 0 0 1-3.5 1 9.1 9.1 0 0 1-2.3-.3 3.8 3.8 0 0 1-1.7-.6zm14.6-8.2h1.7v-1.5l3-.8v2.3h2.9v2.5h-2.9v3.8a7.8 7.8 0 0 0 .2 1.9 1.1 1.1 0 0 0 1.1.6h.8l.7-.2.6 2.2-1.5.5-1.7.2a3.3 3.3 0 0 1-2.4-.8 3.8 3.8 0 0 1-.8-2.6v-5.5h-1.7zm9.1 5.5a5.7 5.7 0 0 1 1.5-4.2 5 5 0 0 1 4.1-1.6 6.6 6.6 0 0 1 2.5.4 4.3 4.3 0 0 1 1.7 1.3 4 4 0 0 1 1 1.8 5.9 5.9 0 0 1 .4 2.3 6.9 6.9 0 0 1-.4 2.5 4.2 4.2 0 0 1-1.1 1.8 5.2 5.2 0 0 1-1.7 1.2 8.6 8.6 0 0 1-2.4.4 6.6 6.6 0 0 1-2.5-.5 4.5 4.5 0 0 1-2.7-3.1 5.6 5.6 0 0 1-.4-2.3zm3 0a5.1 5.1 0 0 0 .2 1.3 3.6 3.6 0 0 0 .4 1.1 2.7 2.7 0 0 0 .8.7 2.1 2.1 0 0 0 1.2.3c1.7 0 2.6-1.1 2.6-3.4a5.1 5.1 0 0 0-.2-1.3 3.6 3.6 0 0 0-.4-1.1 2.7 2.7 0 0 0-.8-.7 2.2 2.2 0 0 0-1.2-.2 2.2 2.2 0 0 0-1.9.8 3.9 3.9 0 0 0-.7 2.5zm16.4-9.2h2.9v4.7h.3a2.5 2.5 0 0 1 1.3-.9 3.3 3.3 0 0 1 1.7-.4 4.2 4.2 0 0 1 3.3 1.4 6.9 6.9 0 0 1 1.1 4.1 10.1 10.1 0 0 1-.4 2.6 5.2 5.2 0 0 1-1.2 1.9 5.7 5.7 0 0 1-1.8 1.2 6.9 6.9 0 0 1-2.5.4l-2.8-.2-1.9-.5zm2.9 12.2a1.6 1.6 0 0 0 .9.3h1c1.8 0 2.8-1.2 2.8-3.6a3.7 3.7 0 0 0-.6-2.3 2 2 0 0 0-1.7-.8 2.4 2.4 0 0 0-1.5.4 3 3 0 0 0-.9 1.3zm19.5 1.5a6.7 6.7 0 0 1-1.9 1 11.7 11.7 0 0 1-2.7.4 5.2 5.2 0 0 1-4.1-1.6 6.3 6.3 0 0 1-1.4-4.3 5.8 5.8 0 0 1 1.5-4.3 5.7 5.7 0 0 1 4.2-1.5l1.8.2a3.6 3.6 0 0 1 1.5.8 3.5 3.5 0 0 1 1.1 1.3 4.8 4.8 0 0 1 .4 2.2v1c-.1.3-.1.7-.2 1.1h-7.4a3.4 3.4 0 0 0 .9 2.1 3.3 3.3 0 0 0 2.3.6l1.8-.2 1.2-.6zm-4.4-8a2.2 2.2 0 0 0-1.9.7 3 3 0 0 0-.8 1.8h4.8a3 3 0 0 0-.4-1.8 1.9 1.9 0 0 0-1.7-.7zm13.2 6.2l.7.3.8.2 1 .3h.9a2.2 2.2 0 0 0 1.2-.2.9.9 0 0 0 .4-.8c0-.4-.2-.6-.6-.8l-1.3-.5-1.2-.4a2.3 2.3 0 0 1-1.2-.6 2.2 2.2 0 0 1-.9-1 3.8 3.8 0 0 1-.3-1.6 3 3 0 0 1 1-2.5 4.4 4.4 0 0 1 2.9-.9l2.4.2 1.8.5-.6 2.3-1.4-.5-1.8-.2-1 .2a.8.8 0 0 0-.4.8.7.7 0 0 0 .6.7l1.3.5 1.2.4a2.3 2.3 0 0 1 1.2.6c.4.2.6.6.9 1a3.3 3.3 0 0 1 .3 1.5 3.7 3.7 0 0 1-1.1 2.7 5.6 5.6 0 0 1-3.5 1 8.5 8.5 0 0 1-2.3-.3 3.8 3.8 0 0 1-1.7-.6zm9.6-2.7a5.6 5.6 0 0 1 1.4-4.2 5.3 5.3 0 0 1 4.1-1.6 6.2 6.2 0 0 1 2.5.4 3.7 3.7 0 0 1 1.7 1.3 4.2 4.2 0 0 1 1.1 1.8 8.5 8.5 0 0 1 .3 2.3 10.1 10.1 0 0 1-.3 2.5 7.8 7.8 0 0 1-1.1 1.8 5.7 5.7 0 0 1-1.8 1.2 8.6 8.6 0 0 1-2.4.4 6 6 0 0 1-2.4-.5 5.7 5.7 0 0 1-1.8-1.2 5.7 5.7 0 0 1-1-1.9 8 8 0 0 1-.3-2.3zm3 0a5.3 5.3 0 0 0 .1 1.3 3.7 3.7 0 0 0 .5 1.1 1.9 1.9 0 0 0 .8.7 2 2 0 0 0 1.1.3c1.8 0 2.6-1.1 2.6-3.4a5.3 5.3 0 0 0-.1-1.3 3.7 3.7 0 0 0-.5-1.1 1.9 1.9 0 0 0-.8-.7 2.2 2.2 0 0 0-1.2-.2 1.9 1.9 0 0 0-1.8.8 3.4 3.4 0 0 0-.7 2.5zm13.5 1.7c0 1 .4 1.6 1.1 1.6h.5l.6-.2.4 2.3-1.2.4-1.6.2a3 3 0 0 1-2-.6 2.2 2.2 0 0 1-.7-1.9V94.2h2.9zm14.1 0a10.9 10.9 0 0 0 .1 1.8 16.2 16.2 0 0 0 .1 2.1h-2l-.4-1.6h-.3a3.8 3.8 0 0 1-1.4 1.4 4.6 4.6 0 0 1-2.1.5 4.3 4.3 0 0 1-3.4-1.4 6.5 6.5 0 0 1-1.2-4.3 10.1 10.1 0 0 1 .3-2.5 6.9 6.9 0 0 1 1-1.9 6.6 6.6 0 0 1 1.7-1.2 8.6 8.6 0 0 1 2.4-.4h1.2l1.1.3v-3.7h2.9zm-5.2 1.7a2.5 2.5 0 0 0 1.5-.5 2.5 2.5 0 0 0 .8-1.2v-4.5l-.8-.4h-1.1a2.3 2.3 0 0 0-2.1.8 4.1 4.1 0 0 0-.7 2.8 3.6 3.6 0 0 0 .6 2.2 2 2 0 0 0 1.8.8zM21.1 120.7a1.6 1.6 0 0 1 .5-1.1 2 2 0 0 1 1.4-.4 2.1 2.1 0 0 1 1.4.4 1.5 1.5 0 0 1 0 2.2 2.1 2.1 0 0 1-1.4.4 2 2 0 0 1-1.4-.4 1.6 1.6 0 0 1-.5-1.1zm.4 2.4h3v11h-3zm13.8 11v-6a3.8 3.8 0 0 0-.5-2.1 1.8 1.8 0 0 0-1.5-.6 2.8 2.8 0 0 0-1.6.5 2.2 2.2 0 0 0-.9 1.3v6.9h-3v-11h2.4l.3 1.6h.3a3.5 3.5 0 0 1 1.4-1.3 4.3 4.3 0 0 1 2.4-.6l1.5.2a2.5 2.5 0 0 1 1.2.8 3.7 3.7 0 0 1 .7 1.4 14 14 0 0 1 .2 2.3v6.6zm11.1-5.5a5.7 5.7 0 0 1 1.5-4.2 5 5 0 0 1 4.1-1.6 6.1 6.1 0 0 1 2.4.4 4.9 4.9 0 0 1 2.8 3.1 5.9 5.9 0 0 1 .4 2.3 6.9 6.9 0 0 1-.4 2.5 5.4 5.4 0 0 1-1.1 1.8 6.6 6.6 0 0 1-1.7 1.2 8.6 8.6 0 0 1-2.4.4 6.2 6.2 0 0 1-2.5-.5 4.3 4.3 0 0 1-1.7-1.2 5.9 5.9 0 0 1-1.1-1.9 8 8 0 0 1-.3-2.3zm3 0a5.1 5.1 0 0 0 .2 1.3 3.6 3.6 0 0 0 .4 1.1 2.7 2.7 0 0 0 .8.7 2.1 2.1 0 0 0 1.2.3c1.7 0 2.6-1.1 2.6-3.4a5.1 5.1 0 0 0-.2-1.3 3.6 3.6 0 0 0-.4-1.1 2.7 2.7 0 0 0-.8-.7 2.2 2.2 0 0 0-1.2-.2 2.2 2.2 0 0 0-1.9.8 3.9 3.9 0 0 0-.7 2.5zm13.5-5.5v6.1a3.5 3.5 0 0 0 .4 2c.2.4.7.6 1.4.6a2.5 2.5 0 0 0 1.6-.4 3.8 3.8 0 0 0 .9-1.3v-7h3v7.7a9.1 9.1 0 0 0 .1 1.7 7 7 0 0 0 .2 1.6h-2.1l-.6-1.7h-.2a4.6 4.6 0 0 1-1.6 1.5 4.4 4.4 0 0 1-2.3.6 4.1 4.1 0 0 1-1.6-.3 2.4 2.4 0 0 1-1.2-.7 5.2 5.2 0 0 1-.7-1.5 11.5 11.5 0 0 1-.2-2.1v-6.8zm17.1 2.7l-1.3-.2a2.4 2.4 0 0 0-1.5.4 2.1 2.1 0 0 0-.8 1.1v7h-2.9v-11h2.3l.3 1.5h.3a2.8 2.8 0 0 1 1.1-1.3 2.7 2.7 0 0 1 1.6-.4 3.2 3.2 0 0 1 1.3.2zm7.8 5.5l.6.3.9.2.9.3h1a2 2 0 0 0 1.1-.2c.3-.1.4-.4.4-.8a.9.9 0 0 0-.5-.8l-1.4-.5-1.2-.4-1.2-.6a4.5 4.5 0 0 1-.9-1 3.8 3.8 0 0 1-.3-1.6 3 3 0 0 1 1-2.5 4.5 4.5 0 0 1 3-.9l2.3.2 1.8.5-.6 2.3-1.4-.5-1.7-.2-1.1.2a.8.8 0 0 0-.4.8.7.7 0 0 0 .6.7l1.3.5 1.3.4a2.4 2.4 0 0 1 1.1.6 2.2 2.2 0 0 1 .9 1 3.3 3.3 0 0 1 .4 1.5 3.4 3.4 0 0 1-1.2 2.7 5.5 5.5 0 0 1-3.4 1 8 8 0 0 1-2.3-.3 4.2 4.2 0 0 1-1.8-.6zm8.8-8.2h1.7v-1.5l2.9-.8v2.3h3v2.5h-3v3.8a4.4 4.4 0 0 0 .3 1.9.9.9 0 0 0 1 .6h.8l.7-.2.6 2.2-1.5.5-1.7.2a3.3 3.3 0 0 1-2.4-.8 3.8 3.8 0 0 1-.7-2.6v-5.5h-1.7zm9 5.5a5.7 5.7 0 0 1 1.5-4.2 5.1 5.1 0 0 1 4.1-1.6 6.2 6.2 0 0 1 2.5.4 3.7 3.7 0 0 1 1.7 1.3 5.4 5.4 0 0 1 1.1 1.8 8.5 8.5 0 0 1 .3 2.3 6.9 6.9 0 0 1-.4 2.5 4.2 4.2 0 0 1-1.1 1.8 4.3 4.3 0 0 1-1.7 1.2 8.6 8.6 0 0 1-2.4.4 6 6 0 0 1-2.4-.5 5.7 5.7 0 0 1-1.8-1.2 5.7 5.7 0 0 1-1-1.9 7.9 7.9 0 0 1-.4-2.3zm3.1 0a5.3 5.3 0 0 0 .1 1.3 3.7 3.7 0 0 0 .5 1.1 1.9 1.9 0 0 0 .8.7 2 2 0 0 0 1.1.3c1.7 0 2.6-1.1 2.6-3.4 0-.5-.1-.9-.1-1.3a3.7 3.7 0 0 0-.5-1.1 2.7 2.7 0 0 0-.8-.7 2.2 2.2 0 0 0-1.2-.2 1.9 1.9 0 0 0-1.8.8 3.4 3.4 0 0 0-.7 2.5zm17-2.8l-1.2-.2a2.5 2.5 0 0 0-1.6.4 1.9 1.9 0 0 0-.7 1.1v7h-3v-11h2.3l.3 1.5h.3a4.7 4.7 0 0 1 1.1-1.3 3.8 3.8 0 0 1 2.9-.2zm11.5 7.3a7.5 7.5 0 0 1-2 1 10.9 10.9 0 0 1-2.6.4 5.4 5.4 0 0 1-4.2-1.6 6.9 6.9 0 0 1-1.3-4.3 5.8 5.8 0 0 1 1.5-4.3 5.7 5.7 0 0 1 4.2-1.5l1.7.2a4.8 4.8 0 0 1 1.6.8 4.7 4.7 0 0 1 1.1 1.3 6.7 6.7 0 0 1 .4 2.2c0 .3-.1.6-.1 1a5.2 5.2 0 0 1-.2 1.1H130a3.3 3.3 0 0 0 .8 2.1 3.8 3.8 0 0 0 2.4.6l1.8-.2 1.2-.6zm-4.4-8a2.4 2.4 0 0 0-2 .7 3.6 3.6 0 0 0-.7 1.8h4.7a2.1 2.1 0 0 0-.4-1.8 1.8 1.8 0 0 0-1.6-.7z"/></g></symbol><symbol id="shelf-4-text" viewBox="0 0 159.8 184.6"><g id="Layer_10"><path fill="#fadb94" d="M159.8 46.1L79.9 0 0 46.1v92.3l79.9 46.2 79.9-46.2V46.1z"/><path fill="#fff" d="M63.4 45.1v93.6l47.3-9.4v-77zm40.2 78l-33 6.6V53.8l33 4.4z"/><path fill="#fadb94" stroke="#fff" stroke-miterlimit="10" stroke-width="4.55" d="M55.1 42.2l.2 100.1"/><path fill="#fff" d="M75 123.2l24.5-4.1V63.2l-24.5-3v63z"/><path fill="#4c4a4b" d="M159.9 46.1L79.9 0 0 46.1v92.3l79.9 46.1 80-46.1V46.1z" opacity=".85"/><path fill="#fff" d="M28 59.5h-2.5v4h-2.8v-4h-6.9v-1.7l7.2-9.1h2.5v8.5H28zm-5.3-5.3l.2-1.7h-.1l-.7 1.4-2.4 2.7-1.2.8 1.5-.2h2.7zm6.3 7.9a1.7 1.7 0 0 1 .5-1.2 1.8 1.8 0 0 1 1.3-.4 2.1 2.1 0 0 1 1.4.4 1.7 1.7 0 0 1 0 2.4 2.2 2.2 0 0 1-1.4.5 1.9 1.9 0 0 1-1.3-.5 1.7 1.7 0 0 1-.5-1.2zm20.9-10.5h-4.6v11.9h-3.2V51.6h-4.6v-2.8h12.4zm9.2 11.9v-6a3.7 3.7 0 0 0-.4-2.1 1.8 1.8 0 0 0-1.6-.6 2.5 2.5 0 0 0-1.5.5 3.1 3.1 0 0 0-1 1.5v6.7h-2.9V48.8h2.9v5.1h.3a4.1 4.1 0 0 1 1.4-1.2 4.6 4.6 0 0 1 2.1-.5l1.6.2a2.3 2.3 0 0 1 1.1.8 2.6 2.6 0 0 1 .7 1.4 6.9 6.9 0 0 1 .3 2.2v6.7zm15.4-1a6.7 6.7 0 0 1-1.9 1 11.7 11.7 0 0 1-2.7.4 5.2 5.2 0 0 1-4.1-1.6 6.3 6.3 0 0 1-1.4-4.3 5.8 5.8 0 0 1 1.5-4.3 5.7 5.7 0 0 1 4.2-1.5l1.8.2a3.6 3.6 0 0 1 1.5.8 3.5 3.5 0 0 1 1.1 1.3 4.8 4.8 0 0 1 .4 2.2v1c-.1.3-.1.7-.2 1.1h-7.4a3.4 3.4 0 0 0 .9 2.1 3.3 3.3 0 0 0 2.3.6l1.8-.2 1.2-.6zm-4.4-8a2.2 2.2 0 0 0-1.9.7 3 3 0 0 0-.8 1.8h4.8a3 3 0 0 0-.4-1.8 1.9 1.9 0 0 0-1.7-.7zm20.7 9v-6a4.8 4.8 0 0 0-.4-2.1 2 2 0 0 0-1.6-.6 3 3 0 0 0-1.6.5 2.9 2.9 0 0 0-.9 1.5v6.7h-2.9V48.8h2.9v5.1h.2a4.4 4.4 0 0 1 1.5-1.2 4.1 4.1 0 0 1 2.1-.5l1.6.2a2.8 2.8 0 0 1 1.1.8 3.7 3.7 0 0 1 .7 1.4 12.7 12.7 0 0 1 .2 2.2v6.7zm5.3-5.5a5.7 5.7 0 0 1 1.5-4.2 5 5 0 0 1 4.1-1.6 6.6 6.6 0 0 1 2.5.4 4.3 4.3 0 0 1 1.7 1.3 4 4 0 0 1 1 1.8 5.9 5.9 0 0 1 .4 2.3 6.9 6.9 0 0 1-.4 2.5 4.2 4.2 0 0 1-1.1 1.8 5.2 5.2 0 0 1-1.7 1.2 8.6 8.6 0 0 1-2.4.4 6.6 6.6 0 0 1-2.5-.5 4.5 4.5 0 0 1-2.7-3.1 5.6 5.6 0 0 1-.4-2.3zm3 0a5.1 5.1 0 0 0 .2 1.3 3.6 3.6 0 0 0 .4 1.1 2.7 2.7 0 0 0 .8.7 2.1 2.1 0 0 0 1.2.3c1.7 0 2.6-1.1 2.6-3.4a5.1 5.1 0 0 0-.2-1.3 3.6 3.6 0 0 0-.4-1.1 2.7 2.7 0 0 0-.8-.7 2.2 2.2 0 0 0-1.2-.2 2.2 2.2 0 0 0-1.9.8 3.9 3.9 0 0 0-.7 2.5zm18 5.5v-6a3.9 3.9 0 0 0-.4-2.1 1.8 1.8 0 0 0-1.6-.6 3 3 0 0 0-1.6.5 3.8 3.8 0 0 0-.9 1.3v6.9h-2.9v-11h2.3l.3 1.6h.3a4.7 4.7 0 0 1 1.5-1.3 4.1 4.1 0 0 1 2.3-.6l1.6.2a2.8 2.8 0 0 1 1.1.8 2.6 2.6 0 0 1 .7 1.4 7.5 7.5 0 0 1 .3 2.3v6.6zm15.4-1a6.7 6.7 0 0 1-1.9 1 11.7 11.7 0 0 1-2.7.4 5.2 5.2 0 0 1-4.1-1.6 6.3 6.3 0 0 1-1.3-4.3 5.1 5.1 0 0 1 5.6-5.8l1.8.2a3.6 3.6 0 0 1 1.5.8 3.5 3.5 0 0 1 1.1 1.3 4.8 4.8 0 0 1 .4 2.2v1c-.1.3-.1.7-.2 1.1h-7.4a3.4 3.4 0 0 0 .9 2.1 3.3 3.3 0 0 0 2.3.6l1.8-.2 1.2-.6zm-4.4-8a2.2 2.2 0 0 0-1.9.7 3 3 0 0 0-.8 1.8h4.8a3 3 0 0 0-.4-1.8 1.9 1.9 0 0 0-1.7-.7zm11.2 4.1l.4 1.8h.2l.4-1.8 1.9-6.1h3l-3.7 10-.8 2.2a13.1 13.1 0 0 1-.9 1.7 3.8 3.8 0 0 1-1.1 1.1 3.2 3.2 0 0 1-1.4.3h-1.1a1.1 1.1 0 0 1-.8-.3l.6-2.2h1.2l.5-.2a1 1 0 0 0 .4-.5 1.9 1.9 0 0 0 .4-.9l-5-11.1h3.5zM10.4 75.3a1.3 1.3 0 0 1 .5-1.1 1.7 1.7 0 0 1 1.3-.4 2.4 2.4 0 0 1 1.5.4 1.5 1.5 0 0 1 0 2.2 2.4 2.4 0 0 1-1.5.4 1.7 1.7 0 0 1-1.3-.4 1.3 1.3 0 0 1-.5-1.1zm.4 2.4h3v11h-3zm6.3 8.2l.7.3.8.2.9.3h1c.5 0 .9 0 1.1-.2a.8.8 0 0 0 .5-.8c0-.4-.2-.6-.6-.8l-1.3-.5-1.3-.4a2.4 2.4 0 0 1-1.1-.6 2.2 2.2 0 0 1-.9-1 2.7 2.7 0 0 1-.4-1.6 3.1 3.1 0 0 1 1.1-2.5 4 4 0 0 1 2.9-.9l2.4.2 1.8.5-.7 2.3-1.4-.5-1.7-.2-1.1.2a1 1 0 0 0-.3.8.8.8 0 0 0 .5.7l1.4.5 1.2.4a3.4 3.4 0 0 1 1.2.6 2.7 2.7 0 0 1 .8 1 2.4 2.4 0 0 1 .4 1.5 3.4 3.4 0 0 1-1.2 2.7 5.3 5.3 0 0 1-3.4 1 8.5 8.5 0 0 1-2.3-.3 3.8 3.8 0 0 1-1.7-.6zm22.5-5.5l-1.3-.2a2.4 2.4 0 0 0-1.5.4 2.1 2.1 0 0 0-.8 1.1v7h-2.9v-11h2.3l.3 1.5h.3a2.8 2.8 0 0 1 1.1-1.3 2.7 2.7 0 0 1 1.6-.4 3.2 3.2 0 0 1 1.3.2zM51 87.7a6.7 6.7 0 0 1-1.9 1 11.7 11.7 0 0 1-2.7.4 5.2 5.2 0 0 1-4.1-1.6 6.3 6.3 0 0 1-1.3-4.3 5.1 5.1 0 0 1 5.6-5.8l1.8.2a3.6 3.6 0 0 1 1.5.8 3.5 3.5 0 0 1 1.1 1.3 4.8 4.8 0 0 1 .4 2.2v1c-.1.3-.1.7-.2 1.1h-7.4a3.4 3.4 0 0 0 .9 2.1 3.3 3.3 0 0 0 2.3.6l1.8-.2 1.2-.6zm-4.4-8a2.2 2.2 0 0 0-1.9.7 3 3 0 0 0-.8 1.8h4.8a3 3 0 0 0-.4-1.8 1.9 1.9 0 0 0-1.7-.7zm14.3 9V83a6.3 6.3 0 0 0-.3-2.3c-.2-.5-.7-.7-1.4-.7a2.1 2.1 0 0 0-1.4.4 3.6 3.6 0 0 0-.8 1.2v7.1h-2.9v-11h2.2l.4 1.5h.2l.7-.6a1.9 1.9 0 0 1 .7-.6l1-.4 1.2-.2a3.6 3.6 0 0 1 1.9.5 3.4 3.4 0 0 1 1.2 1.6A5.1 5.1 0 0 1 65 78a3.7 3.7 0 0 1 2.1-.6l1.7.2a2.3 2.3 0 0 1 1.1.8 4.8 4.8 0 0 1 .7 1.6 14.4 14.4 0 0 1 .2 2.4v6.3h-3v-7.1l-.3-.9a1.2 1.2 0 0 0-.5-.5l-.9-.2a2.5 2.5 0 0 0-1.5.5 2.4 2.4 0 0 0-.7 1.2v7zm12.3-5.5a5.6 5.6 0 0 1 1.4-4.2 5.4 5.4 0 0 1 4.2-1.6 6.1 6.1 0 0 1 2.4.4 4.6 4.6 0 0 1 1.8 1.3 5.2 5.2 0 0 1 1 1.8 8.5 8.5 0 0 1 .3 2.3 10.1 10.1 0 0 1-.3 2.5 7.8 7.8 0 0 1-1.1 1.8 5.7 5.7 0 0 1-1.8 1.2 8.5 8.5 0 0 1-2.3.4 6.2 6.2 0 0 1-2.5-.5 5.7 5.7 0 0 1-1.8-1.2 5.7 5.7 0 0 1-1-1.9 8 8 0 0 1-.3-2.3zm3 0a5.3 5.3 0 0 0 .1 1.3 3.7 3.7 0 0 0 .5 1.1 2.7 2.7 0 0 0 .8.7 2.1 2.1 0 0 0 1.2.3c1.7 0 2.5-1.1 2.5-3.4a5.3 5.3 0 0 0-.1-1.3 3.7 3.7 0 0 0-.5-1.1 1.9 1.9 0 0 0-.8-.7 2 2 0 0 0-1.1-.2 2.1 2.1 0 0 0-1.9.8 3.4 3.4 0 0 0-.7 2.5zm14.1.2l.5 1.7h.3l.3-1.7 2.1-5.7h3.1l-5 11.1h-1.7l-5.2-11.1h3.4zm16.9 4.3a7.5 7.5 0 0 1-2 1 10.9 10.9 0 0 1-2.6.4 5.4 5.4 0 0 1-4.2-1.6 6.3 6.3 0 0 1-1.3-4.3 5.8 5.8 0 0 1 1.5-4.3 5.7 5.7 0 0 1 4.2-1.5l1.7.2a4.8 4.8 0 0 1 1.6.8 4.7 4.7 0 0 1 1.1 1.3 6.7 6.7 0 0 1 .4 2.2c0 .3-.1.6-.1 1a5.2 5.2 0 0 1-.2 1.1H100a3.3 3.3 0 0 0 .8 2.1 3.8 3.8 0 0 0 2.4.6l1.7-.2 1.3-.6zm-4.4-8a2.4 2.4 0 0 0-2 .7 3.6 3.6 0 0 0-.7 1.8h4.7a2.4 2.4 0 0 0-.4-1.8 1.8 1.8 0 0 0-1.6-.7zm17.4 5.2c0 .6.1 1.2.1 1.8a8.2 8.2 0 0 0 .2 2.1h-2.1l-.4-1.6h-.3a4.4 4.4 0 0 1-1.3 1.4 5.1 5.1 0 0 1-2.2.5 4.3 4.3 0 0 1-3.4-1.4 6.5 6.5 0 0 1-1.2-4.3 10.1 10.1 0 0 1 .3-2.5A7.2 7.2 0 0 1 111 79a4.8 4.8 0 0 1 1.6-1.2 8.6 8.6 0 0 1 2.4-.4h1.2l1.1.3V74h2.9zm-5.2 1.7a2.5 2.5 0 0 0 1.5-.5 2.5 2.5 0 0 0 .8-1.2v-4.5l-.8-.4h-1.1a2.3 2.3 0 0 0-2.1.8 4.1 4.1 0 0 0-.7 2.8 3.6 3.6 0 0 0 .6 2.2 2 2 0 0 0 1.8.8zM129.2 74h2.9v4.7h.3a3 3 0 0 1 1.3-.9 3.3 3.3 0 0 1 1.7-.4 4.2 4.2 0 0 1 3.3 1.4 6.9 6.9 0 0 1 1.1 4.1 7.1 7.1 0 0 1-.4 2.6 5.2 5.2 0 0 1-1.2 1.9 5.7 5.7 0 0 1-1.8 1.2 6.9 6.9 0 0 1-2.5.4l-2.8-.2-1.9-.5zm2.9 12.2a1.6 1.6 0 0 0 .9.3h1c1.9 0 2.8-1.2 2.8-3.6a3.7 3.7 0 0 0-.6-2.3 2 2 0 0 0-1.7-.8 2.4 2.4 0 0 0-1.5.4 3 3 0 0 0-.9 1.3zm13.8-2.4l.5 1.8h.2l.4-1.8 1.9-6.1h3l-3.7 10c-.3.8-.6 1.6-.9 2.2a6.7 6.7 0 0 1-.8 1.7 5.7 5.7 0 0 1-1.1 1.1 3.2 3.2 0 0 1-1.4.3h-1.1a1.1 1.1 0 0 1-.8-.3l.6-2.2h1.2l.5-.2.4-.5a1.9 1.9 0 0 0 .4-.9l-5.1-11.1h3.6zM41.1 102.9h1.7v-1.5l2.9-.8v2.3h3v2.5h-3v3.8a4.4 4.4 0 0 0 .3 1.9 1 1 0 0 0 1 .6h.8l.8-.2.6 2.2-1.6.5-1.7.2a3.3 3.3 0 0 1-2.4-.8 3.8 3.8 0 0 1-.7-2.6v-5.5h-1.7zm17.3 11v-6a3.6 3.6 0 0 0-.5-2.1 1.8 1.8 0 0 0-1.6-.6 3 3 0 0 0-1.5.5 2.4 2.4 0 0 0-.9 1.5v6.7h-3V99.2h3v5.1h.2a5.3 5.3 0 0 1 1.4-1.2 4.8 4.8 0 0 1 2.2-.5l1.6.2a2.8 2.8 0 0 1 1.1.8 3.7 3.7 0 0 1 .7 1.4 12.7 12.7 0 0 1 .2 2.2v6.7zm15.4-1a7.5 7.5 0 0 1-2 1 10.9 10.9 0 0 1-2.6.4 5.4 5.4 0 0 1-4.2-1.6 6.3 6.3 0 0 1-1.3-4.3 5.8 5.8 0 0 1 1.5-4.3 5.7 5.7 0 0 1 4.2-1.5l1.7.2a4.8 4.8 0 0 1 1.6.8 3.2 3.2 0 0 1 1 1.3 4.8 4.8 0 0 1 .5 2.2c0 .3-.1.6-.1 1a5.2 5.2 0 0 1-.2 1.1h-7.3a2.9 2.9 0 0 0 .8 2.1 3.8 3.8 0 0 0 2.4.6l1.7-.2 1.2-.6zm-4.5-8a2.4 2.4 0 0 0-1.9.7 2.9 2.9 0 0 0-.7 1.8h4.7a2.4 2.4 0 0 0-.4-1.8 1.8 1.8 0 0 0-1.7-.7zm13.3-5.7h2.9v4.7h.3a3 3 0 0 1 1.3-.9 3.3 3.3 0 0 1 1.7-.4 4.2 4.2 0 0 1 3.3 1.4 6.9 6.9 0 0 1 1.1 4.1 7.1 7.1 0 0 1-.4 2.6 5.2 5.2 0 0 1-1.2 1.9 5.7 5.7 0 0 1-1.8 1.2 6.9 6.9 0 0 1-2.5.4l-2.8-.2-1.9-.5zm2.9 12.2a1.6 1.6 0 0 0 .9.3h1c1.9 0 2.8-1.2 2.8-3.6a3.7 3.7 0 0 0-.6-2.3 2 2 0 0 0-1.7-.8 2.4 2.4 0 0 0-1.5.4 3 3 0 0 0-.9 1.3zm19.5 1.5a6.7 6.7 0 0 1-1.9 1 11 11 0 0 1-2.7.4 5.3 5.3 0 0 1-4.1-1.6 6.3 6.3 0 0 1-1.3-4.3 5.8 5.8 0 0 1 1.5-4.3 5.4 5.4 0 0 1 4.2-1.5l1.7.2a3.6 3.6 0 0 1 1.5.8 3.5 3.5 0 0 1 1.1 1.3 4.8 4.8 0 0 1 .4 2.2v1c-.1.3-.1.7-.2 1.1h-7.4a3.4 3.4 0 0 0 .9 2.1 3.5 3.5 0 0 0 2.3.6l1.8-.2 1.2-.6zm-4.4-8a2.2 2.2 0 0 0-1.9.7 3.7 3.7 0 0 0-.8 1.8h4.8a3 3 0 0 0-.4-1.8 1.9 1.9 0 0 0-1.7-.7zm16.8 8a7.5 7.5 0 0 1-2 1 10.9 10.9 0 0 1-2.6.4 5.4 5.4 0 0 1-4.2-1.6 6.9 6.9 0 0 1-1.3-4.3 5.8 5.8 0 0 1 1.5-4.3 5.7 5.7 0 0 1 4.2-1.5l1.7.2a4.8 4.8 0 0 1 1.6.8 4.7 4.7 0 0 1 1.1 1.3 6.7 6.7 0 0 1 .4 2.2 3.8 3.8 0 0 1-.1 1 5.2 5.2 0 0 1-.2 1.1h-7.3a3.3 3.3 0 0 0 .8 2.1 3.8 3.8 0 0 0 2.4.6l1.8-.2 1.2-.6zm-4.4-8a2.4 2.4 0 0 0-2 .7 3.6 3.6 0 0 0-.7 1.8h4.7a2.1 2.1 0 0 0-.4-1.8 1.8 1.8 0 0 0-1.6-.7zm-62.9 29.7h-1v4.5h-2.9v-14.7h2.9v8.5l1-.4 2.7-4.4H56l-2.8 4h.1l-1.4 1 1.4.9 3.2 5.1h-3.4zm17.1 3.5a6.2 6.2 0 0 1-2 1 10.9 10.9 0 0 1-2.6.4 5.4 5.4 0 0 1-4.2-1.6 6.9 6.9 0 0 1-1.3-4.3 5.8 5.8 0 0 1 1.5-4.3 5.7 5.7 0 0 1 4.2-1.5l1.8.2a5.5 5.5 0 0 1 1.5.8 4.7 4.7 0 0 1 1.1 1.3 6.7 6.7 0 0 1 .4 2.2 3.8 3.8 0 0 1-.1 1 5.2 5.2 0 0 1-.2 1.1H60a3.3 3.3 0 0 0 .8 2.1 3.8 3.8 0 0 0 2.4.6l1.8-.2 1.2-.6zm-4.4-8a2.6 2.6 0 0 0-2 .7 3.6 3.6 0 0 0-.7 1.8h4.7a2.1 2.1 0 0 0-.4-1.8 1.8 1.8 0 0 0-1.6-.7zm16.7 8a5.6 5.6 0 0 1-1.9 1 11 11 0 0 1-2.7.4 5.3 5.3 0 0 1-4.1-1.6 6.3 6.3 0 0 1-1.3-4.3 5.8 5.8 0 0 1 1.5-4.3 5.7 5.7 0 0 1 4.2-1.5l1.7.2a3.6 3.6 0 0 1 1.5.8 3.5 3.5 0 0 1 1.1 1.3 4.8 4.8 0 0 1 .4 2.2v1c-.1.3-.1.7-.2 1.1h-7.4a3.4 3.4 0 0 0 .9 2.1 3.5 3.5 0 0 0 2.3.6l1.8-.2 1.2-.6zm-4.4-8a2.2 2.2 0 0 0-1.9.7 2.9 2.9 0 0 0-.7 1.8h4.7a2.4 2.4 0 0 0-.4-1.8 1.9 1.9 0 0 0-1.7-.7zm7.5-2h2.1l.3 1.4h.3a3.7 3.7 0 0 1 1.5-1.3 4.2 4.2 0 0 1 2-.4 3.9 3.9 0 0 1 3.3 1.3 6.3 6.3 0 0 1 1.2 4.3 10.1 10.1 0 0 1-.4 2.5 5.7 5.7 0 0 1-1 1.9 4.4 4.4 0 0 1-1.8 1.2 5.2 5.2 0 0 1-2.3.5l-1.2-.2-1.1-.3v4.3h-2.9zm5.3 2.2a2.1 2.1 0 0 0-1.5.4 2.8 2.8 0 0 0-.9 1.4v4.3l.8.4a2 2 0 0 0 1.1.2 2.3 2.3 0 0 0 2.1-.9 4.3 4.3 0 0 0 .7-2.8 3.4 3.4 0 0 0-.5-2.2 1.9 1.9 0 0 0-1.8-.8zm17.2 7.8a6.2 6.2 0 0 1-2 1 10.9 10.9 0 0 1-2.6.4 5.4 5.4 0 0 1-4.2-1.6 6.9 6.9 0 0 1-1.3-4.3 5.8 5.8 0 0 1 1.5-4.3 5.7 5.7 0 0 1 4.2-1.5l1.8.2a5.5 5.5 0 0 1 1.5.8 4.7 4.7 0 0 1 1.1 1.3 6.7 6.7 0 0 1 .4 2.2 3.8 3.8 0 0 1-.1 1c0 .3-.1.7-.1 1.1h-7.4a3.3 3.3 0 0 0 .8 2.1 3.8 3.8 0 0 0 2.4.6l1.8-.2 1.2-.6zm-4.4-8a2.6 2.6 0 0 0-2 .7 3.6 3.6 0 0 0-.7 1.8h4.8a2.4 2.4 0 0 0-.5-1.8 1.8 1.8 0 0 0-1.6-.7zm13.9.7l-1.2-.2a2.4 2.4 0 0 0-1.5.4 2.1 2.1 0 0 0-.8 1.1v7h-3v-11h2.3l.4 1.5h.2a3.7 3.7 0 0 1 1.2-1.3 2.7 2.7 0 0 1 1.6-.4 3.4 3.4 0 0 1 1.3.2z"/></g></symbol><symbol id="shelf-4" viewBox="0 0 159.8 184.6"><g id="shelf-4"><path fill="#fadb94" d="M159.8 46.1L79.9 0 0 46.1v92.3l79.9 46.2 79.9-46.2V46.1z"/><path fill="#fff" d="M63.4 45.1v93.6l47.3-9.4v-77zm40.2 78l-33 6.6V53.8l33 4.4z"/><path fill="#fadb94" stroke="#fff" stroke-miterlimit="10" stroke-width="4.55" d="M55.1 42.2l.2 100.1"/><path fill="#fff" d="M75 123.2l24.5-4.1V63.2l-24.5-3v63z"/></g></symbol></svg>