<svg xmlns="http://www.w3.org/2000/svg" width="3.1in" height="1.6in" viewBox="0 0 223.8 114.3"><path fill="#050505" d="M116.7 41.7l24.3-14 24.3 14v28.1l-24.3 14-24.3-14V41.7z"/><path fill="#050505" d="M116.7 21.2l24.3-14 24.3 14v14.1L141 21.2l-24.3 14.1V21.2zM165.3 91L141 105l-24.3-14V76.9L141 91l24.3-14.1V91zm5.4-49.1v12.4l46.6-12.4-24.1-14.2-22.5 14.2zm20.5 12.4l-20.5 4.9v11.3l26.1 11.9-5.6-28.1z"/><path fill="#231f20" d="M25 54.2l-1.6 2 5.2.7 4.2 1a22.7 22.7 0 0 1 3.4 1.1c3.5 1.4 5.2 3.4 5.2 6a6.4 6.4 0 0 1-2.2 4.6 20.8 20.8 0 0 1-5.6 4.1 35.8 35.8 0 0 1-7.1 2.7 23.5 23.5 0 0 1-6.6 1c-3.3 0-5.9-.6-7.7-1.8a5.8 5.8 0 0 1-2.8-5.1 10.2 10.2 0 0 1 1.7-5.2 65.7 65.7 0 0 1 5.2-7.5 9.8 9.8 0 0 1-3.8-.8 2.3 2.3 0 0 1-1.1-1.9 1.3 1.3 0 0 1 .5-1.1 1.7 1.7 0 0 1 1.1-.6l2.8-.5 5.2-.6a45.3 45.3 0 0 1 6.4-6.6 11.2 11.2 0 0 1 6.1-2.5h.6c.2 0 .3.1.3.2a3.4 3.4 0 0 1-.8 1l-2.4 2.8-3.9 4.4a92.8 92.8 0 0 0 10.1-1.9 19.6 19.6 0 0 0 5.9-2.5 4.3 4.3 0 0 0 2-3.3 3.3 3.3 0 0 0-2.1-3.2 17.7 17.7 0 0 0-6.5-1 39.9 39.9 0 0 0-5.6.5l-5.7 1.1-4.5 1.4c-1.3.4-1.9.8-1.9 1s0 .1.2.2 1.6.7 1.6 1-1.7 1-5 2a27.2 27.2 0 0 1-6.6 1.5A1.1 1.1 0 0 1 8 47.1c0-1 .9-2.7 2.7-5.2s3.3-4.1 4.8-4.8a24.6 24.6 0 0 1 3.5-1.2l6-1.5c2.2-.4 4.4-.9 6.7-1.2a46.8 46.8 0 0 1 6-.5c4.1 0 7.2.8 9.3 2.2a6.7 6.7 0 0 1 3.1 5.6 7.8 7.8 0 0 1-1.4 4.3 14.9 14.9 0 0 1-4.5 4 36.5 36.5 0 0 1-7.8 3.3A73.1 73.1 0 0 1 25 54.2zm-3.4 4.2L18.5 62l-1.9 2.5a4.9 4.9 0 0 0-.5 2 3.5 3.5 0 0 0 1.6 2.8 7.8 7.8 0 0 0 4.7 1.2 19.8 19.8 0 0 0 6-1 15.4 15.4 0 0 0 5.3-2.6c1.5-1 2.2-2.1 2.2-3.2a2.5 2.5 0 0 0-1.6-2.3 16.1 16.1 0 0 0-4.9-1.7c-2.2-.4-4.8-.9-7.8-1.3zm37.9 5.4a87.3 87.3 0 0 1-7.2 8.9c-1.6 1.8-3 2.7-4 2.7a3.4 3.4 0 0 1-2.3-1 6.4 6.4 0 0 1-1.6-2.8 11.6 11.6 0 0 1-.6-3.8 16.4 16.4 0 0 1 .2-2.3 8.9 8.9 0 0 1 1-2.3 13.1 13.1 0 0 1 1.8-2.8l2.7-3.3 1.7-1.9a4.2 4.2 0 0 1 1.3-1.1 5.1 5.1 0 0 1 2.1-.3 6.9 6.9 0 0 1 2 .3q.9.3.9.6a5.2 5.2 0 0 1-.9 2.1 34.9 34.9 0 0 1-3.1 3.8 55.6 55.6 0 0 1-5 4.3 11.3 11.3 0 0 0-.6 2.9c0 1 .3 1.4 1.1 1.4a3.3 3.3 0 0 0 1.3-.6l3.1-2.6 3.9-3.4a20.9 20.9 0 0 0 2.9-3.3A28.7 28.7 0 0 1 63 56l3.3-3.4a2.3 2.3 0 0 1 1.7-.7c.5 0 .8.1 1 .5a4.3 4.3 0 0 1 .3 2 3.7 3.7 0 0 1-.1 1.1 6.4 6.4 0 0 1-.6 1.1c-.2.4-.8 1.2-1.6 2.4s-1.8 2.7-3 4.3a19.9 19.9 0 0 0-1.6 2.9 7.9 7.9 0 0 0-.7 2.3c0 1.1.5 1.7 1.4 1.7a5.4 5.4 0 0 0 2.6-.9 46.6 46.6 0 0 0 4.5-3.3v2.2l-5.7 5.1a22 22 0 0 1-3.1 2.4 4.6 4.6 0 0 1-2.6.8c-1.8 0-2.7-1.1-2.7-3.2a8.6 8.6 0 0 1 .8-3.4c.5-1.4 1.4-3.4 2.6-6.1z"/><path fill="#231f20" d="M69.5 68.9v-2.4a28.2 28.2 0 0 0 3.7-5.3q-1.8-.3-1.8-1.5a4.8 4.8 0 0 1 1.2-2.6 15.9 15.9 0 0 1 2.9-2.9 5.2 5.2 0 0 1 2.6-1.3c.7 0 1.1.3 1.1.9a.6.6 0 0 1-.2.5.5.5 0 0 0-.3.5c0 .3.2.4.5.4a14 14 0 0 0 4.1-.7 22.2 22.2 0 0 1 3.4-.7c.5 0 .8.5 1 1.4a35 35 0 0 1 .7 4.3.9.9 0 0 1-.4.8 14.9 14.9 0 0 1-2.3 1.6l-3.5 2.4-4.1 3.1a7.4 7.4 0 0 1 2.5 1.9 8.2 8.2 0 0 1 1.4 3.1l8.2-6.4v2.2L82 74.8a18.8 18.8 0 0 1-2.2 6.4 31.2 31.2 0 0 1-4.3 5.8 30.5 30.5 0 0 1-4.9 4.2c-1.6 1.1-2.8 1.7-3.5 1.7a1.6 1.6 0 0 1-1.5-.7 4.1 4.1 0 0 1-.5-2.1 7.7 7.7 0 0 1 .9-3.6 12.2 12.2 0 0 1 2.4-3.5 45 45 0 0 1 3.8-3.5c1.5-1.2 3.5-2.6 6-4.3-.2-1.6-.6-2.5-1.2-2.9a8.1 8.1 0 0 0-2.6-1.1q-1.8-.6-1.8-1.8c0-.8 4.1-4.1 12.3-9.7l-4.6.8c-1.8.3-3.5.6-5 .7-1.2 1.8-2.2 3.3-3.2 4.6a24.4 24.4 0 0 1-2.6 3.1zm8.4 9.4a39.2 39.2 0 0 0-4.6 3.7c-1.4 1.3-2.7 2.6-3.8 3.8a6.4 6.4 0 0 0-1.5 2.3c0 .5.2.7.6.7a5.9 5.9 0 0 0 3.1-1.3 18.2 18.2 0 0 0 3.6-3.7 18.5 18.5 0 0 0 2.6-5.5z"/><path fill="#231f20" d="M89.7 68.9v-2.4a28.2 28.2 0 0 0 3.7-5.3q-1.8-.3-1.8-1.5a4.8 4.8 0 0 1 1.2-2.6 15.9 15.9 0 0 1 2.9-2.9 5.6 5.6 0 0 1 2.6-1.3c.7 0 1.1.3 1.1.9a.6.6 0 0 1-.2.5.5.5 0 0 0-.3.5c0 .3.2.4.5.4a14 14 0 0 0 4.1-.7 22.2 22.2 0 0 1 3.4-.7c.5 0 .9.5 1 1.4a35 35 0 0 1 .7 4.3.9.9 0 0 1-.4.8 14.9 14.9 0 0 1-2.3 1.6l-3.5 2.4-4.1 3.1a8 8 0 0 1 2.6 1.9 8.2 8.2 0 0 1 1.3 3.1l8.2-6.4v2.2l-8.2 6.6a16.9 16.9 0 0 1-2.2 6.4 31.2 31.2 0 0 1-4.3 5.8 30.5 30.5 0 0 1-4.9 4.2c-1.6 1.1-2.8 1.7-3.5 1.7a1.6 1.6 0 0 1-1.5-.7 4.1 4.1 0 0 1-.4-2.1 7.6 7.6 0 0 1 .8-3.6 18.2 18.2 0 0 1 2.4-3.5l3.8-3.5c1.5-1.2 3.5-2.6 6-4.3-.2-1.6-.6-2.5-1.2-2.9a8.1 8.1 0 0 0-2.6-1.1c-1.2-.4-1.7-1-1.7-1.8s4-4.1 12.2-9.7l-4.6.8a49.9 49.9 0 0 1-5 .7 51.3 51.3 0 0 1-3.2 4.6 24.4 24.4 0 0 1-2.6 3.1zm8.4 9.4a39.2 39.2 0 0 0-4.6 3.7 43.2 43.2 0 0 0-3.7 3.8 5.9 5.9 0 0 0-1.6 2.3c0 .5.2.7.6.7a5.9 5.9 0 0 0 3.1-1.3 18.2 18.2 0 0 0 3.6-3.7 18.5 18.5 0 0 0 2.6-5.5zM57.4 44.2l-.9 3.1h-2.1l3.5-10.8h2.5l3.5 10.8h-2.1l-1-3.1zm3.1-1.4l-.9-2.7c-.2-.7-.3-1.4-.5-2l-.6 2-.8 2.7zm4.9-6.3h2v9.1h4.4v1.7h-6.4zm7.9 0h2v9.1h4.4v1.7h-6.4zm12.6 1.7h-3.1v-1.7H91v1.7h-3.1v9.1h-2zm8.3-1.7v4.3h4.6v-4.3h2v10.8h-2v-4.8h-4.6v4.8h-1.9V36.5zm14.8 6h-4v3.2h4.5v1.6H103V36.5h6.3v1.6H105v2.8h4z"/></svg>