<svg id="Layer_1" data-name="Layer 1" xmlns="http://www.w3.org/2000/svg" width="3.1in" height="1.6in" viewBox="0 0 223.8 114.3"><title>Artboard 4@4x-100</title><polygon points="116.7 41.7 141 27.7 165.3 41.7 165.3 69.8 141 83.8 116.7 69.8 116.7 41.7" fill="#050505"/><polygon points="116.7 21.2 141 7.2 165.3 21.2 165.3 35.3 141 21.2 116.7 35.3 116.7 21.2" fill="#050505"/><polygon points="165.3 91 141 105 116.7 91 116.7 76.9 141 91 165.3 76.9 165.3 91" fill="#050505"/><polygon points="170.7 41.9 170.7 54.3 217.3 41.9 193.2 27.7 170.7 41.9" fill="#050505"/><polygon points="191.2 54.3 170.7 59.2 170.7 70.5 196.8 82.4 191.2 54.3" fill="#050505"/><path d="M25,54.2l-1.6,2,5.2.7,4.2,1A22.7,22.7,0,0,1,36.2,59c3.5,1.4,5.2,3.4,5.2,6a6.4,6.4,0,0,1-2.2,4.6,20.8,20.8,0,0,1-5.6,4.1,35.8,35.8,0,0,1-7.1,2.7,23.5,23.5,0,0,1-6.6,1c-3.3,0-5.9-.6-7.7-1.8a5.8,5.8,0,0,1-2.8-5.1,10.2,10.2,0,0,1,1.7-5.2,65.7,65.7,0,0,1,5.2-7.5,9.8,9.8,0,0,1-3.8-.8,2.3,2.3,0,0,1-1.1-1.9,1.3,1.3,0,0,1,.5-1.1,1.7,1.7,0,0,1,1.1-.6l2.8-.5,5.2-.6a45.3,45.3,0,0,1,6.4-6.6,11.2,11.2,0,0,1,6.1-2.5h.6c.2,0,.3.1.3.2a3.4,3.4,0,0,1-.8,1l-2.4,2.8-3.9,4.4a92.8,92.8,0,0,0,10.1-1.9,19.6,19.6,0,0,0,5.9-2.5,4.3,4.3,0,0,0,2-3.3,3.3,3.3,0,0,0-2.1-3.2,17.7,17.7,0,0,0-6.5-1,39.9,39.9,0,0,0-5.6.5l-5.7,1.1-4.5,1.4c-1.3.4-1.9.8-1.9,1s0,.1.2.2,1.6.7,1.6,1-1.7,1-5,2a27.2,27.2,0,0,1-6.6,1.5A1.1,1.1,0,0,1,8,47.1c0-1,.9-2.7,2.7-5.2s3.3-4.1,4.8-4.8A24.6,24.6,0,0,1,19,35.9l6-1.5c2.2-.4,4.4-.9,6.7-1.2a46.8,46.8,0,0,1,6-.5c4.1,0,7.2.8,9.3,2.2a6.7,6.7,0,0,1,3.1,5.6,7.8,7.8,0,0,1-1.4,4.3,14.9,14.9,0,0,1-4.5,4,36.5,36.5,0,0,1-7.8,3.3A73.1,73.1,0,0,1,25,54.2Zm-3.4,4.2L18.5,62l-1.9,2.5a4.9,4.9,0,0,0-.5,2,3.5,3.5,0,0,0,1.6,2.8,7.8,7.8,0,0,0,4.7,1.2,19.8,19.8,0,0,0,6-1,15.4,15.4,0,0,0,5.3-2.6c1.5-1,2.2-2.1,2.2-3.2a2.5,2.5,0,0,0-1.6-2.3,16.1,16.1,0,0,0-4.9-1.7C27.2,59.3,24.6,58.8,21.6,58.4Z" fill="#231f20"/><path d="M59.5,63.8a87.3,87.3,0,0,1-7.2,8.9c-1.6,1.8-3,2.7-4,2.7a3.4,3.4,0,0,1-2.3-1,6.4,6.4,0,0,1-1.6-2.8,11.6,11.6,0,0,1-.6-3.8,16.4,16.4,0,0,1,.2-2.3,8.9,8.9,0,0,1,1-2.3,13.1,13.1,0,0,1,1.8-2.8l2.7-3.3,1.7-1.9a4.2,4.2,0,0,1,1.3-1.1,5.1,5.1,0,0,1,2.1-.3,6.9,6.9,0,0,1,2,.3q.9.3.9.6a5.2,5.2,0,0,1-.9,2.1,34.9,34.9,0,0,1-3.1,3.8,55.6,55.6,0,0,1-5,4.3,11.3,11.3,0,0,0-.6,2.9c0,1,.3,1.4,1.1,1.4a3.3,3.3,0,0,0,1.3-.6L53.4,66l3.9-3.4a20.9,20.9,0,0,0,2.9-3.3A28.7,28.7,0,0,1,63,56l3.3-3.4a2.3,2.3,0,0,1,1.7-.7c.5,0,.8.1,1,.5a4.3,4.3,0,0,1,.3,2,3.7,3.7,0,0,1-.1,1.1,6.4,6.4,0,0,1-.6,1.1c-.2.4-.8,1.2-1.6,2.4s-1.8,2.7-3,4.3a19.9,19.9,0,0,0-1.6,2.9,7.9,7.9,0,0,0-.7,2.3c0,1.1.5,1.7,1.4,1.7a5.4,5.4,0,0,0,2.6-.9A46.6,46.6,0,0,0,70.2,66v2.2l-5.7,5.1a22,22,0,0,1-3.1,2.4,4.6,4.6,0,0,1-2.6.8c-1.8,0-2.7-1.1-2.7-3.2a8.6,8.6,0,0,1,.8-3.4C57.4,68.5,58.3,66.5,59.5,63.8Z" fill="#231f20"/><path d="M69.5,68.9V66.5a28.2,28.2,0,0,0,3.7-5.3q-1.8-.3-1.8-1.5a4.8,4.8,0,0,1,1.2-2.6,15.9,15.9,0,0,1,2.9-2.9,5.2,5.2,0,0,1,2.6-1.3c.7,0,1.1.3,1.1.9a.6.6,0,0,1-.2.5.5.5,0,0,0-.3.5c0,.3.2.4.5.4a14,14,0,0,0,4.1-.7,22.2,22.2,0,0,1,3.4-.7c.5,0,.8.5,1,1.4a35,35,0,0,1,.7,4.3.9.9,0,0,1-.4.8,14.9,14.9,0,0,1-2.3,1.6l-3.5,2.4-4.1,3.1a7.4,7.4,0,0,1,2.5,1.9A8.2,8.2,0,0,1,82,72.4L90.2,66v2.2L82,74.8a18.8,18.8,0,0,1-2.2,6.4A31.2,31.2,0,0,1,75.5,87a30.5,30.5,0,0,1-4.9,4.2c-1.6,1.1-2.8,1.7-3.5,1.7a1.6,1.6,0,0,1-1.5-.7,4.1,4.1,0,0,1-.5-2.1,7.7,7.7,0,0,1,.9-3.6A12.2,12.2,0,0,1,68.4,83a45,45,0,0,1,3.8-3.5c1.5-1.2,3.5-2.6,6-4.3-.2-1.6-.6-2.5-1.2-2.9a8.1,8.1,0,0,0-2.6-1.1q-1.8-.6-1.8-1.8c0-.8,4.1-4.1,12.3-9.7l-4.6.8c-1.8.3-3.5.6-5,.7-1.2,1.8-2.2,3.3-3.2,4.6A24.4,24.4,0,0,1,69.5,68.9Zm8.4,9.4A39.2,39.2,0,0,0,73.3,82c-1.4,1.3-2.7,2.6-3.8,3.8A6.4,6.4,0,0,0,68,88.1c0,.5.2.7.6.7a5.9,5.9,0,0,0,3.1-1.3,18.2,18.2,0,0,0,3.6-3.7A18.5,18.5,0,0,0,77.9,78.3Z" fill="#231f20"/><path d="M89.7,68.9V66.5a28.2,28.2,0,0,0,3.7-5.3q-1.8-.3-1.8-1.5a4.8,4.8,0,0,1,1.2-2.6,15.9,15.9,0,0,1,2.9-2.9,5.6,5.6,0,0,1,2.6-1.3c.7,0,1.1.3,1.1.9a.6.6,0,0,1-.2.5.5.5,0,0,0-.3.5c0,.3.2.4.5.4a14,14,0,0,0,4.1-.7,22.2,22.2,0,0,1,3.4-.7c.5,0,.9.5,1,1.4a35,35,0,0,1,.7,4.3.9.9,0,0,1-.4.8,14.9,14.9,0,0,1-2.3,1.6l-3.5,2.4-4.1,3.1a8,8,0,0,1,2.6,1.9,8.2,8.2,0,0,1,1.3,3.1l8.2-6.4v2.2l-8.2,6.6a16.9,16.9,0,0,1-2.2,6.4A31.2,31.2,0,0,1,95.7,87a30.5,30.5,0,0,1-4.9,4.2c-1.6,1.1-2.8,1.7-3.5,1.7a1.6,1.6,0,0,1-1.5-.7,4.1,4.1,0,0,1-.4-2.1,7.6,7.6,0,0,1,.8-3.6A18.2,18.2,0,0,1,88.6,83l3.8-3.5c1.5-1.2,3.5-2.6,6-4.3-.2-1.6-.6-2.5-1.2-2.9a8.1,8.1,0,0,0-2.6-1.1c-1.2-.4-1.7-1-1.7-1.8s4-4.1,12.2-9.7l-4.6.8a49.9,49.9,0,0,1-5,.7,51.3,51.3,0,0,1-3.2,4.6A24.4,24.4,0,0,1,89.7,68.9Zm8.4,9.4A39.2,39.2,0,0,0,93.5,82a43.2,43.2,0,0,0-3.7,3.8,5.9,5.9,0,0,0-1.6,2.3c0,.5.2.7.6.7a5.9,5.9,0,0,0,3.1-1.3,18.2,18.2,0,0,0,3.6-3.7A18.5,18.5,0,0,0,98.1,78.3Z" fill="#231f20"/><path d="M57.4,44.2l-.9,3.1H54.4l3.5-10.8h2.5l3.5,10.8H61.8l-1-3.1Zm3.1-1.4-.9-2.7c-.2-.7-.3-1.4-.5-2h0l-.6,2-.8,2.7Z" fill="#231f20"/><path d="M65.4,36.5h2v9.1h4.4v1.7H65.4Z" fill="#231f20"/><path d="M73.3,36.5h2v9.1h4.4v1.7H73.3Z" fill="#231f20"/><path d="M85.9,38.2H82.8V36.5H91v1.7H87.9v9.1h-2Z" fill="#231f20"/><path d="M94.2,36.5v4.3h4.6V36.5h2V47.3h-2V42.5H94.2v4.8H92.3V36.5Z" fill="#231f20"/><path d="M109,42.5h-4v3.2h4.5v1.6H103V36.5h6.3v1.6H105v2.8h4Z" fill="#231f20"/></svg>