<svg id="Layer_1" data-name="Layer 1" xmlns="http://www.w3.org/2000/svg" width="0.4in" height="0.4in" viewBox="0 0 32 32"><title>Artboard 2@4x-100</title><polygon points="2 12 8.8 8.1 15.5 12 15.5 19.8 8.8 23.7 2 19.8 2 12" fill="#050505"/><polygon points="2 6.3 8.8 2.4 15.5 6.3 15.5 10.2 8.8 6.3 2 10.2 2 6.3" fill="#050505"/><polygon points="15.5 25.7 8.8 29.6 2 25.7 2 21.8 8.8 25.7 15.5 21.8 15.5 25.7" fill="#050505"/><polygon points="17 12.1 17 15.5 30 12.1 23.3 8.1 17 12.1" fill="#050505"/><polygon points="22.7 15.5 17 16.9 17 20 24.3 23.3 22.7 15.5" fill="#050505"/></svg>