<svg id="Layer_1" data-name="Layer 1" xmlns="http://www.w3.org/2000/svg" width="146.4" height="103.8" viewBox="0 0 146.4 103.8"><title>Artboard 1 copy 3</title><path d="M87.4-29.4,62-14.6V14.9L87.4,29.7,113,14.9V-14.6Z" fill="#262626"/><path d="M57.2,23.2,31.8,38V67.5L57.2,82.3,82.8,67.5V38Z" fill="#262626"/><path d="M117.1,23.2,91.6,38V67.5l25.5,14.8,25.6-14.8V38Z" fill="#262626"/><path d="M146.3-29.4,120.8-14.6V14.9l25.5,14.8,25.6-14.8V-14.6Z" fill="#262626"/><path d="M26-29.4.5-14.6V14.9L26,29.7,51.6,14.9V-14.6Z" fill="#262626"/><path d="M87.4,74.2,62,89v29.5l25.4,14.8L113,118.5V89Z" fill="#262626"/><path d="M146.3,74.2,120.8,89v29.5l25.5,14.8,25.6-14.8V89Z" fill="#262626"/><path d="M26,74.2.5,89v29.5L26,133.3l25.6-14.8V89Z" fill="#262626"/></svg>