<svg xmlns="http://www.w3.org/2000/svg" width="182.9" height="59.1" viewBox="0 0 182.9 59.1"><g fill="#fadb94"><path d="M157.3 0l-25.5 14.8v29.5l25.5 14.8 25.6-14.8V14.8zm10.2 15.9h-3.8c-3 0-3.6 1.5-3.6 3.6v4.9h6.8l-1 7.3h-5.8v18.2h-7.5V31.7h-6.1v-7.3h6.1v-5.7c0-6.1 3.8-9.5 9.3-9.5a47.1 47.1 0 0 1 5.6.3z"/><circle cx="91.7" cy="29.2" r="6.3"/><path d="M106.5 18a6.5 6.5 0 0 0-3.6-3.5c-2.5-1-8.4-.8-11.2-.8s-8.6-.2-11.1.8A5.9 5.9 0 0 0 77 18c-1 2.5-.8 8.5-.8 11.2s-.2 8.7.8 11.2a6.4 6.4 0 0 0 3.6 3.6c2.4.9 8.4.7 11.1.7s8.7.2 11.2-.7a7 7 0 0 0 3.6-3.6c1-2.5.7-8.4.7-11.2s.3-8.7-.7-11.2zM91.7 38.9a9.7 9.7 0 1 1 9.7-9.7 9.6 9.6 0 0 1-9.7 9.7zm10.1-17.5a2.2 2.2 0 0 1-2.2-2.3 2.3 2.3 0 1 1 4.5 0 2.3 2.3 0 0 1-2.3 2.3z"/><path d="M91.4 0L65.9 14.8v29.5l25.5 14.8L117 44.3V14.8zm19.1 37c-.1 3-.8 5.7-3 7.9s-4.9 2.9-8 3.1-12.5.2-15.6 0-5.7-.9-7.9-3.1-2.9-4.9-3.1-7.9-.2-12.5 0-15.6.9-5.7 3.1-7.9 4.9-2.9 7.9-3.1 12.5-.2 15.6 0 5.7.9 8 3.1 2.9 4.9 3 7.9.2 12.5 0 15.6zM25.4 0L0 14.8v29.5l25.4 14.8 25.7-14.8V14.8zm-.1 47.6a17.7 17.7 0 0 1-5.6-.9 17.7 17.7 0 0 0 2.3-5c.3-.8 1.2-4.5 1.2-4.5a5.3 5.3 0 0 0 4.4 2.2c5.7 0 9.9-5.3 9.9-11.9s-5.2-11-11.8-11c-8.2 0-12.6 5.6-12.6 11.6 0 2.8 1.5 6.3 3.9 7.4q.6.2.6-.3c.1-.3.4-1.6.6-2.2a.6.6 0 0 0-.2-.5 8.1 8.1 0 0 1-1.4-4.3 8.2 8.2 0 0 1 8.6-8.3c4.7 0 8 3.2 8 7.7s-2.6 8.8-6 8.8a2.8 2.8 0 0 1-2.8-3.5c.5-2.2 1.6-4.7 1.6-6.3a2.4 2.4 0 0 0-2.4-2.7c-2 0-3.5 2-3.5 4.6a6.3 6.3 0 0 0 .6 2.8s-1.9 8-2.3 9.5a20.2 20.2 0 0 0 0 5.5 19.1 19.1 0 1 1 6.9 1.3z"/></g></svg>